<svg width="393" height="783" viewBox="0 0 393 783" fill="none" xmlns="http://www.w3.org/2000/svg">
<g opacity="0.2" filter="url(#filter0_iiif_208_23151)">
<ellipse cx="196.5" cy="609.8" rx="75.2" ry="53.2" stroke="url(#paint0_linear_208_23151)" stroke-width="80" stroke-linecap="round"/>
</g>
<g opacity="0.4" filter="url(#filter1_iiif_208_23151)">
<ellipse cx="196.5" cy="569.8" rx="89.6" ry="53.2" stroke="url(#paint1_linear_208_23151)" stroke-width="80" stroke-linecap="round"/>
</g>
<g opacity="0.7" filter="url(#filter2_iiif_208_23151)">
<ellipse cx="196.5" cy="529.8" rx="97.6" ry="53.2" stroke="url(#paint2_linear_208_23151)" stroke-width="80" stroke-linecap="round"/>
</g>
<g filter="url(#filter3_iii_208_23151)">
<ellipse cx="196.5" cy="489.8" rx="109.6" ry="53.2" stroke="url(#paint3_linear_208_23151)" stroke-width="80" stroke-linecap="round"/>
</g>
<path d="M182.697 433.136C200.538 431.113 218.873 433.051 233.528 438.513C234.967 439.05 237.022 439.895 238.63 440.606C239.841 441.14 243.534 443.102 244.885 443.916C255.322 450.272 260.518 458.365 259.402 466.51L259.478 479.926C259.708 481.464 259.715 483.016 259.492 484.569C258.531 491.327 253.655 497.538 245.121 502.867C243.165 504.08 238.044 506.676 235.8 507.584C228.532 510.514 220.735 512.528 212.063 513.713C198.43 515.566 183.45 515.042 170.48 512.247C150.461 507.933 136.462 498.621 133.371 487.544C132.895 485.857 132.68 484.163 132.714 482.479L132.634 482.48L132.534 464.908L132.608 464.907C132.595 459.94 134.775 455.048 139.01 450.656C147.549 441.805 163.835 435.272 182.697 433.136Z" fill="url(#paint4_linear_208_23151)"/>
<path d="M238.026 441.481C239.172 441.986 242.819 443.923 244.145 444.721L244.146 444.721C254.097 450.782 259.182 458.451 258.447 466.205L258.357 466.956C257.445 473.373 252.935 479.283 245.044 484.397L244.27 484.89C242.364 486.071 237.314 488.631 235.148 489.507C228.014 492.383 220.376 494.355 211.879 495.516C198.939 497.275 184.748 496.847 172.317 494.329L171.12 494.079C151.817 489.919 138.222 481.015 134.912 470.381L134.762 469.873L134.762 469.872L134.604 469.272C133.132 463.262 134.983 457.196 139.885 451.852L140.385 451.32C148.623 442.782 164.22 436.445 182.332 434.252L183.196 434.151C200.68 432.169 218.643 434.067 233.005 439.421L233.005 439.42C234.059 439.813 235.463 440.381 236.768 440.936L238.024 441.48L238.026 441.481Z" fill="#110F0F"/>
<path d="M238.026 441.481C239.172 441.986 242.819 443.923 244.145 444.721L244.146 444.721C254.097 450.782 259.182 458.451 258.447 466.205L258.357 466.956C257.445 473.373 252.935 479.283 245.044 484.397L244.27 484.89C242.364 486.071 237.314 488.631 235.148 489.507C228.014 492.383 220.376 494.355 211.879 495.516C198.939 497.275 184.748 496.847 172.317 494.329L171.12 494.079C151.817 489.919 138.222 481.015 134.912 470.381L134.762 469.873L134.762 469.872L134.604 469.272C133.132 463.262 134.983 457.196 139.885 451.852L140.385 451.32C148.623 442.782 164.22 436.445 182.332 434.252L183.196 434.151C200.68 432.169 218.643 434.067 233.005 439.421L233.005 439.42C234.059 439.813 235.463 440.381 236.768 440.936L238.024 441.48L238.026 441.481Z" fill="url(#paint5_linear_208_23151)"/>
<path d="M238.026 441.481C239.172 441.986 242.819 443.923 244.145 444.721L244.146 444.721C254.097 450.782 259.182 458.451 258.447 466.205L258.357 466.956C257.445 473.373 252.935 479.283 245.044 484.397L244.27 484.89C242.364 486.071 237.314 488.631 235.148 489.507C228.014 492.383 220.376 494.355 211.879 495.516C198.939 497.275 184.748 496.847 172.317 494.329L171.12 494.079C151.817 489.919 138.222 481.015 134.912 470.381L134.762 469.873L134.762 469.872L134.604 469.272C133.132 463.262 134.983 457.196 139.885 451.852L140.385 451.32C148.623 442.782 164.22 436.445 182.332 434.252L183.196 434.151C200.68 432.169 218.643 434.067 233.005 439.421L233.005 439.42C234.059 439.813 235.463 440.381 236.768 440.936L238.024 441.48L238.026 441.481Z" stroke="url(#paint6_linear_208_23151)" stroke-width="2.016"/>
<path fill-rule="evenodd" clip-rule="evenodd" d="M231.082 442.075C232.417 442.573 234.322 443.356 235.814 444.016C236.937 444.511 240.363 446.331 241.616 447.087C251.336 453.005 256.156 460.549 255.069 468.135C254.178 474.404 249.655 480.165 241.739 485.108C239.924 486.233 235.176 488.641 233.094 489.483C226.352 492.2 219.12 494.068 211.076 495.167C198.432 496.887 184.537 496.399 172.508 493.807C153.939 489.806 140.955 481.169 138.088 470.895C136.38 464.838 138.255 458.687 143.413 453.337C151.334 445.128 166.44 439.068 183.934 437.087C200.483 435.211 217.489 437.008 231.082 442.075ZM238.676 455.443C237.27 453.355 235.14 451.575 231.769 449.67C228.121 447.609 223.795 445.982 218.525 444.675C212.077 443.089 205.219 442.312 197.749 442.339C186.429 442.363 176.055 444.19 167.094 447.718C165.177 448.475 160.575 450.854 159.164 451.817C153.045 455.999 149.932 460.517 149.788 465.427C149.757 466.715 149.89 467.731 150.207 468.718C150.402 469.299 150.811 470.183 150.912 470.233C150.93 470.242 151.048 469.892 151.166 469.457C151.934 466.544 153.888 463.729 156.644 461.565C158.219 460.33 158.787 459.981 161.326 458.668C164.049 457.27 165.14 456.828 167.966 455.984C174.289 454.1 182.288 453.407 189.449 454.12C192.418 454.419 196.226 455.21 199.014 456.116C202.501 457.241 204.775 458.264 211.719 461.801C217.714 464.847 218.653 465.269 220.989 465.941C225.663 467.267 230.045 467.143 234.338 465.551C236.98 464.569 238.994 462.976 239.639 461.361C240.366 459.536 240.036 457.462 238.676 455.443ZM224.375 485.507C231.741 482.793 237.659 478.855 240.462 474.816C240.672 474.511 240.891 474.164 240.945 474.033L241.055 473.808L240.138 474.282C235.866 476.49 229.578 477.897 223.34 478.045C217.221 478.186 210.657 477.203 204.722 475.238C201.51 474.177 199.301 473.242 192.616 470.085C188.897 468.332 187.166 467.609 185.004 466.912C181.949 465.919 177.921 465.12 175.136 464.942C172.397 464.767 168.594 464.975 165.923 465.449C162.452 466.055 159.38 467.297 157.668 468.78C157.009 469.345 156.05 470.561 156.197 470.635C156.243 470.658 156.509 470.558 156.784 470.415C158.379 469.591 161.766 468.785 164.806 468.504C170.491 467.979 175.62 468.423 180.561 469.863C183.293 470.658 183.744 470.846 189.131 473.477C189.909 473.857 190.646 474.217 191.303 474.537C192.941 475.337 194.078 475.891 194.085 475.901C194.094 475.906 193.524 475.845 192.816 475.762C189.203 475.319 184.122 475.234 180.595 475.551C179.19 475.678 177.124 476.007 175.885 476.302C172.415 477.132 169.785 478.613 169.002 480.187C167.909 482.361 169.324 484.482 172.97 486.133C175.575 487.311 178.878 488.213 183.227 488.921C189.866 489.998 197.034 490.258 204.225 489.683C211.592 489.093 218.605 487.638 224.375 485.507Z" fill="black"/>
<path fill-rule="evenodd" clip-rule="evenodd" d="M231.074 440.547C232.408 441.045 234.314 441.827 235.805 442.488C236.928 442.983 240.354 444.803 241.607 445.558C251.327 451.477 256.148 459.021 255.06 466.607C254.169 472.876 249.647 478.636 241.73 483.58C239.916 484.704 235.167 487.112 233.085 487.955C226.344 490.672 219.112 492.54 211.068 493.639C198.423 495.358 184.529 494.871 172.499 492.279C153.93 488.278 140.946 479.641 138.08 469.366C136.371 463.309 138.246 457.159 143.404 451.808C151.325 443.599 166.431 437.54 183.926 435.559C200.474 433.683 217.481 435.48 231.074 440.547ZM238.668 453.915C237.262 451.826 235.131 450.047 231.76 448.142C228.112 446.08 223.787 444.454 218.516 443.147C212.068 441.56 205.21 440.784 197.74 440.81C186.421 440.835 176.046 442.662 167.085 446.19C165.168 446.947 160.566 449.326 159.155 450.289C153.036 454.471 149.923 458.989 149.78 463.899C149.749 465.187 149.882 466.203 150.198 467.189C150.394 467.771 150.802 468.654 150.903 468.705C150.922 468.714 151.04 468.363 151.157 467.928C151.925 465.015 153.879 462.2 156.635 460.037C158.21 458.802 158.778 458.452 161.317 457.14C164.04 455.742 165.132 455.299 167.958 454.456C174.28 452.572 182.28 451.879 189.441 452.592C192.41 452.89 196.217 453.682 199.005 454.588C202.492 455.713 204.767 456.735 211.71 460.273C217.705 463.319 218.644 463.741 220.981 464.413C225.654 465.738 230.037 465.615 234.33 464.023C236.971 463.041 238.986 461.448 239.631 459.833C240.358 458.007 240.027 455.934 238.668 453.915ZM224.366 483.978C231.732 481.265 237.65 477.327 240.453 473.287C240.663 472.982 240.882 472.635 240.937 472.504L241.046 472.28L240.129 472.753C235.857 474.961 229.57 476.369 223.332 476.516C217.213 476.658 210.648 475.674 204.713 473.71C201.502 472.648 199.292 471.714 192.608 468.557C188.888 466.804 187.157 466.08 184.995 465.384C181.94 464.391 177.912 463.592 175.128 463.413C172.389 463.239 168.586 463.447 165.914 463.92C162.444 464.526 159.371 465.768 157.659 467.252C157 467.817 156.041 469.033 156.188 469.106C156.234 469.129 156.5 469.029 156.775 468.887C158.371 468.063 161.757 467.257 164.797 466.976C170.483 466.45 175.612 466.895 180.552 468.335C183.284 469.13 183.735 469.318 189.122 471.949C189.9 472.328 190.638 472.688 191.295 473.009C192.933 473.808 194.07 474.363 194.076 474.373C194.085 474.377 193.515 474.317 192.808 474.234C189.195 473.791 184.113 473.705 180.586 474.022C179.181 474.15 177.115 474.479 175.876 474.774C172.407 475.604 169.776 477.085 168.993 478.659C167.9 480.832 169.315 482.953 172.961 484.604C175.567 485.783 178.869 486.685 183.218 487.393C189.857 488.469 197.025 488.73 204.217 488.155C211.583 487.565 218.596 486.109 224.366 483.978Z" fill="#00F6FF"/>
<g style="mix-blend-mode:soft-light">
<ellipse cx="196.222" cy="448.322" rx="65.322" ry="65.3221" fill="url(#paint7_radial_208_23151)"/>
</g>
<g style="mix-blend-mode:soft-light">
<circle cx="196.247" cy="432.347" r="44.5468" fill="url(#paint8_radial_208_23151)"/>
</g>
<g filter="url(#filter4_f_208_23151)">
<path d="M365.058 399.997V436.977M377.77 430.044H358.125" stroke="url(#paint9_linear_208_23151)" stroke-opacity="0.6" stroke-width="1.6"/>
</g>
<g filter="url(#filter5_f_208_23151)">
<path d="M115.963 368.999V382.866M122.896 375.933H57.0253" stroke="url(#paint10_linear_208_23151)" stroke-opacity="0.6" stroke-width="1.6"/>
</g>
<path d="M60.9535 655.996V698.755M67.8873 662.93H54.0197" stroke="url(#paint11_linear_208_23151)" stroke-opacity="0.6" stroke-width="1.6"/>
<path d="M9.9338 557V570.868M45.7585 563.934H3" stroke="url(#paint12_linear_208_23151)" stroke-opacity="0.6" stroke-width="1.6"/>
<g filter="url(#filter6_f_208_23151)">
<path d="M30.0465 396.999V410.866M36.9803 403.933H0" stroke="url(#paint13_linear_208_23151)" stroke-opacity="0.6" stroke-width="1.6"/>
</g>
<g filter="url(#filter7_f_208_23151)">
<path d="M339.049 691.998V705.865M345.983 698.931H332.115" stroke="url(#paint14_linear_208_23151)" stroke-opacity="0.6" stroke-width="1.6"/>
</g>
<path d="M308.038 362V375.868M314.972 368.934H301.104" stroke="url(#paint15_linear_208_23151)" stroke-opacity="0.6" stroke-width="1.6"/>
<path d="M374.934 549V591.758M381.868 555.934H368" stroke="url(#paint16_linear_208_23151)" stroke-opacity="0.6" stroke-width="1.6"/>
<defs>
<filter id="filter0_iiif_208_23151" x="68.5" y="460.373" width="355.653" height="292.803" filterUnits="userSpaceOnUse" color-interpolation-filters="sRGB">
<feFlood flood-opacity="0" result="BackgroundImageFix"/>
<feBlend mode="normal" in="SourceGraphic" in2="BackgroundImageFix" result="shape"/>
<feColorMatrix in="SourceAlpha" type="matrix" values="0 0 0 0 0 0 0 0 0 0 0 0 0 0 0 0 0 0 127 0" result="hardAlpha"/>
<feOffset dx="140.567" dy="-42.17"/>
<feGaussianBlur stdDeviation="56.2266"/>
<feComposite in2="hardAlpha" operator="arithmetic" k2="-1" k3="1"/>
<feColorMatrix type="matrix" values="0 0 0 0 0 0 0 0 0 0.7 0 0 0 0 1 0 0 0 1 0"/>
<feBlend mode="normal" in2="shape" result="effect1_innerShadow_208_23151"/>
<feColorMatrix in="SourceAlpha" type="matrix" values="0 0 0 0 0 0 0 0 0 0 0 0 0 0 0 0 0 0 127 0" result="hardAlpha"/>
<feOffset dx="44.8" dy="-64.568"/>
<feGaussianBlur stdDeviation="28.1133"/>
<feComposite in2="hardAlpha" operator="arithmetic" k2="-1" k3="1"/>
<feColorMatrix type="matrix" values="0 0 0 0 0.501961 0 0 0 0 0.176471 0 0 0 0 0.968627 0 0 0 1 0"/>
<feBlend mode="normal" in2="effect1_innerShadow_208_23151" result="effect2_innerShadow_208_23151"/>
<feColorMatrix in="SourceAlpha" type="matrix" values="0 0 0 0 0 0 0 0 0 0 0 0 0 0 0 0 0 0 127 0" result="hardAlpha"/>
<feOffset dx="-8.232" dy="50.176"/>
<feGaussianBlur stdDeviation="52.7125"/>
<feComposite in2="hardAlpha" operator="arithmetic" k2="-1" k3="1"/>
<feColorMatrix type="matrix" values="0 0 0 0 0.611765 0 0 0 0 0.866667 0 0 0 0 0.894118 0 0 0 1 0"/>
<feBlend mode="normal" in2="effect2_innerShadow_208_23151" result="effect3_innerShadow_208_23151"/>
<feGaussianBlur stdDeviation="6.4" result="effect4_foregroundBlur_208_23151"/>
</filter>
<filter id="filter1_iiif_208_23151" x="58.668" y="420.373" width="379.885" height="292.803" filterUnits="userSpaceOnUse" color-interpolation-filters="sRGB">
<feFlood flood-opacity="0" result="BackgroundImageFix"/>
<feBlend mode="normal" in="SourceGraphic" in2="BackgroundImageFix" result="shape"/>
<feColorMatrix in="SourceAlpha" type="matrix" values="0 0 0 0 0 0 0 0 0 0 0 0 0 0 0 0 0 0 127 0" result="hardAlpha"/>
<feOffset dx="140.567" dy="-42.17"/>
<feGaussianBlur stdDeviation="56.2266"/>
<feComposite in2="hardAlpha" operator="arithmetic" k2="-1" k3="1"/>
<feColorMatrix type="matrix" values="0 0 0 0 0 0 0 0 0 0.7 0 0 0 0 1 0 0 0 1 0"/>
<feBlend mode="normal" in2="shape" result="effect1_innerShadow_208_23151"/>
<feColorMatrix in="SourceAlpha" type="matrix" values="0 0 0 0 0 0 0 0 0 0 0 0 0 0 0 0 0 0 127 0" result="hardAlpha"/>
<feOffset dx="44.8" dy="-64.568"/>
<feGaussianBlur stdDeviation="28.1133"/>
<feComposite in2="hardAlpha" operator="arithmetic" k2="-1" k3="1"/>
<feColorMatrix type="matrix" values="0 0 0 0 0.501961 0 0 0 0 0.176471 0 0 0 0 0.968627 0 0 0 1 0"/>
<feBlend mode="normal" in2="effect1_innerShadow_208_23151" result="effect2_innerShadow_208_23151"/>
<feColorMatrix in="SourceAlpha" type="matrix" values="0 0 0 0 0 0 0 0 0 0 0 0 0 0 0 0 0 0 127 0" result="hardAlpha"/>
<feOffset dx="-8.232" dy="50.176"/>
<feGaussianBlur stdDeviation="52.7125"/>
<feComposite in2="hardAlpha" operator="arithmetic" k2="-1" k3="1"/>
<feColorMatrix type="matrix" values="0 0 0 0 0.611765 0 0 0 0 0.866667 0 0 0 0 0.894118 0 0 0 1 0"/>
<feBlend mode="normal" in2="effect2_innerShadow_208_23151" result="effect3_innerShadow_208_23151"/>
<feGaussianBlur stdDeviation="3.2" result="effect4_foregroundBlur_208_23151"/>
</filter>
<filter id="filter2_iiif_208_23151" x="50.668" y="380.373" width="395.885" height="292.803" filterUnits="userSpaceOnUse" color-interpolation-filters="sRGB">
<feFlood flood-opacity="0" result="BackgroundImageFix"/>
<feBlend mode="normal" in="SourceGraphic" in2="BackgroundImageFix" result="shape"/>
<feColorMatrix in="SourceAlpha" type="matrix" values="0 0 0 0 0 0 0 0 0 0 0 0 0 0 0 0 0 0 127 0" result="hardAlpha"/>
<feOffset dx="140.567" dy="-42.17"/>
<feGaussianBlur stdDeviation="56.2266"/>
<feComposite in2="hardAlpha" operator="arithmetic" k2="-1" k3="1"/>
<feColorMatrix type="matrix" values="0 0 0 0 0 0 0 0 0 0.7 0 0 0 0 1 0 0 0 1 0"/>
<feBlend mode="normal" in2="shape" result="effect1_innerShadow_208_23151"/>
<feColorMatrix in="SourceAlpha" type="matrix" values="0 0 0 0 0 0 0 0 0 0 0 0 0 0 0 0 0 0 127 0" result="hardAlpha"/>
<feOffset dx="44.8" dy="-64.568"/>
<feGaussianBlur stdDeviation="28.1133"/>
<feComposite in2="hardAlpha" operator="arithmetic" k2="-1" k3="1"/>
<feColorMatrix type="matrix" values="0 0 0 0 0.501961 0 0 0 0 0.176471 0 0 0 0 0.968627 0 0 0 1 0"/>
<feBlend mode="normal" in2="effect1_innerShadow_208_23151" result="effect2_innerShadow_208_23151"/>
<feColorMatrix in="SourceAlpha" type="matrix" values="0 0 0 0 0 0 0 0 0 0 0 0 0 0 0 0 0 0 127 0" result="hardAlpha"/>
<feOffset dx="-8.232" dy="50.176"/>
<feGaussianBlur stdDeviation="52.7125"/>
<feComposite in2="hardAlpha" operator="arithmetic" k2="-1" k3="1"/>
<feColorMatrix type="matrix" values="0 0 0 0 0.611765 0 0 0 0 0.866667 0 0 0 0 0.894118 0 0 0 1 0"/>
<feBlend mode="normal" in2="effect2_innerShadow_208_23151" result="effect3_innerShadow_208_23151"/>
<feGaussianBlur stdDeviation="1.6" result="effect4_foregroundBlur_208_23151"/>
</filter>
<filter id="filter3_iii_208_23151" x="38.668" y="340.373" width="419.885" height="292.803" filterUnits="userSpaceOnUse" color-interpolation-filters="sRGB">
<feFlood flood-opacity="0" result="BackgroundImageFix"/>
<feBlend mode="normal" in="SourceGraphic" in2="BackgroundImageFix" result="shape"/>
<feColorMatrix in="SourceAlpha" type="matrix" values="0 0 0 0 0 0 0 0 0 0 0 0 0 0 0 0 0 0 127 0" result="hardAlpha"/>
<feOffset dx="140.567" dy="-42.17"/>
<feGaussianBlur stdDeviation="56.2266"/>
<feComposite in2="hardAlpha" operator="arithmetic" k2="-1" k3="1"/>
<feColorMatrix type="matrix" values="0 0 0 0 0 0 0 0 0 0.7 0 0 0 0 1 0 0 0 1 0"/>
<feBlend mode="normal" in2="shape" result="effect1_innerShadow_208_23151"/>
<feColorMatrix in="SourceAlpha" type="matrix" values="0 0 0 0 0 0 0 0 0 0 0 0 0 0 0 0 0 0 127 0" result="hardAlpha"/>
<feOffset dx="44.8" dy="-64.568"/>
<feGaussianBlur stdDeviation="28.1133"/>
<feComposite in2="hardAlpha" operator="arithmetic" k2="-1" k3="1"/>
<feColorMatrix type="matrix" values="0 0 0 0 0.501961 0 0 0 0 0.176471 0 0 0 0 0.968627 0 0 0 1 0"/>
<feBlend mode="normal" in2="effect1_innerShadow_208_23151" result="effect2_innerShadow_208_23151"/>
<feColorMatrix in="SourceAlpha" type="matrix" values="0 0 0 0 0 0 0 0 0 0 0 0 0 0 0 0 0 0 127 0" result="hardAlpha"/>
<feOffset dx="-8.232" dy="50.176"/>
<feGaussianBlur stdDeviation="52.7125"/>
<feComposite in2="hardAlpha" operator="arithmetic" k2="-1" k3="1"/>
<feColorMatrix type="matrix" values="0 0 0 0 0.611765 0 0 0 0 0.866667 0 0 0 0 0.894118 0 0 0 1 0"/>
<feBlend mode="normal" in2="effect2_innerShadow_208_23151" result="effect3_innerShadow_208_23151"/>
</filter>
<filter id="filter4_f_208_23151" x="351.725" y="393.597" width="32.4458" height="49.7802" filterUnits="userSpaceOnUse" color-interpolation-filters="sRGB">
<feFlood flood-opacity="0" result="BackgroundImageFix"/>
<feBlend mode="normal" in="SourceGraphic" in2="BackgroundImageFix" result="shape"/>
<feGaussianBlur stdDeviation="3.2" result="effect1_foregroundBlur_208_23151"/>
</filter>
<filter id="filter5_f_208_23151" x="50.6253" y="362.599" width="78.6711" height="26.6677" filterUnits="userSpaceOnUse" color-interpolation-filters="sRGB">
<feFlood flood-opacity="0" result="BackgroundImageFix"/>
<feBlend mode="normal" in="SourceGraphic" in2="BackgroundImageFix" result="shape"/>
<feGaussianBlur stdDeviation="3.2" result="effect1_foregroundBlur_208_23151"/>
</filter>
<filter id="filter6_f_208_23151" x="-1.6" y="395.399" width="40.1802" height="17.0677" filterUnits="userSpaceOnUse" color-interpolation-filters="sRGB">
<feFlood flood-opacity="0" result="BackgroundImageFix"/>
<feBlend mode="normal" in="SourceGraphic" in2="BackgroundImageFix" result="shape"/>
<feGaussianBlur stdDeviation="0.8" result="effect1_foregroundBlur_208_23151"/>
</filter>
<filter id="filter7_f_208_23151" x="330.515" y="690.398" width="17.0676" height="17.0677" filterUnits="userSpaceOnUse" color-interpolation-filters="sRGB">
<feFlood flood-opacity="0" result="BackgroundImageFix"/>
<feBlend mode="normal" in="SourceGraphic" in2="BackgroundImageFix" result="shape"/>
<feGaussianBlur stdDeviation="0.8" result="effect1_foregroundBlur_208_23151"/>
</filter>
<linearGradient id="paint0_linear_208_23151" x1="340.124" y1="743.437" x2="244.895" y2="730.94" gradientUnits="userSpaceOnUse">
<stop stop-color="#C36FFF"/>
<stop offset="0.244792" stop-color="#00F7FF"/>
<stop offset="0.536458" stop-color="#00F6FF"/>
<stop offset="1" stop-color="#1500FF"/>
</linearGradient>
<linearGradient id="paint1_linear_208_23151" x1="367.626" y1="703.437" x2="254.963" y2="685.821" gradientUnits="userSpaceOnUse">
<stop stop-color="#C36FFF"/>
<stop offset="0.244792" stop-color="#00F7FF"/>
<stop offset="0.536458" stop-color="#00F6FF"/>
<stop offset="1" stop-color="#1500FF"/>
</linearGradient>
<linearGradient id="paint2_linear_208_23151" x1="382.906" y1="663.437" x2="260.726" y2="642.627" gradientUnits="userSpaceOnUse">
<stop stop-color="#C36FFF"/>
<stop offset="0.244792" stop-color="#00F7FF"/>
<stop offset="0.536458" stop-color="#00F6FF"/>
<stop offset="1" stop-color="#1500FF"/>
</linearGradient>
<linearGradient id="paint3_linear_208_23151" x1="405.824" y1="623.437" x2="269.625" y2="597.387" gradientUnits="userSpaceOnUse">
<stop stop-color="#C36FFF"/>
<stop offset="0.244792" stop-color="#00F7FF"/>
<stop offset="0.536458" stop-color="#00F6FF"/>
<stop offset="1" stop-color="#1500FF"/>
</linearGradient>
<linearGradient id="paint4_linear_208_23151" x1="278.996" y1="592.051" x2="133.276" y2="594.208" gradientUnits="userSpaceOnUse">
<stop/>
<stop offset="0.133699" stop-color="#0F0F0F"/>
<stop offset="0.260835" stop-color="#535353"/>
<stop offset="0.442104" stop-color="#222222"/>
<stop offset="0.597896" stop-color="#0F0F0F"/>
<stop offset="1"/>
</linearGradient>
<linearGradient id="paint5_linear_208_23151" x1="261.6" y1="455.004" x2="139.537" y2="506.124" gradientUnits="userSpaceOnUse">
<stop/>
<stop offset="0.133699" stop-color="#0F0F0F"/>
<stop offset="0.260835" stop-color="#535353"/>
<stop offset="0.442104" stop-color="#222222"/>
<stop offset="0.597896" stop-color="#0F0F0F"/>
<stop offset="1"/>
</linearGradient>
<linearGradient id="paint6_linear_208_23151" x1="198.417" y1="498.15" x2="177.758" y2="437.868" gradientUnits="userSpaceOnUse">
<stop stop-color="white" stop-opacity="0.2"/>
<stop offset="1" stop-color="#999999" stop-opacity="0"/>
</linearGradient>
<radialGradient id="paint7_radial_208_23151" cx="0" cy="0" r="1" gradientUnits="userSpaceOnUse" gradientTransform="translate(196.222 448.322) rotate(90) scale(65.3221 65.322)">
<stop stop-color="white"/>
<stop offset="1" stop-color="white" stop-opacity="0"/>
</radialGradient>
<radialGradient id="paint8_radial_208_23151" cx="0" cy="0" r="1" gradientUnits="userSpaceOnUse" gradientTransform="translate(196.247 432.347) rotate(90) scale(44.5468)">
<stop stop-color="white"/>
<stop offset="1" stop-color="white" stop-opacity="0"/>
</radialGradient>
<linearGradient id="paint9_linear_208_23151" x1="365.058" y1="399.997" x2="365.058" y2="436.977" gradientUnits="userSpaceOnUse">
<stop stop-color="white" stop-opacity="0"/>
<stop offset="1" stop-color="white"/>
</linearGradient>
<linearGradient id="paint10_linear_208_23151" x1="122.896" y1="375.933" x2="57.0253" y2="375.933" gradientUnits="userSpaceOnUse">
<stop stop-color="white"/>
<stop offset="1" stop-color="white" stop-opacity="0"/>
</linearGradient>
<linearGradient id="paint11_linear_208_23151" x1="60.9535" y1="655.996" x2="60.9535" y2="698.755" gradientUnits="userSpaceOnUse">
<stop stop-color="white"/>
<stop offset="1" stop-color="white" stop-opacity="0"/>
</linearGradient>
<linearGradient id="paint12_linear_208_23151" x1="3" y1="563.934" x2="45.7585" y2="563.934" gradientUnits="userSpaceOnUse">
<stop stop-color="white"/>
<stop offset="1" stop-color="white" stop-opacity="0"/>
</linearGradient>
<linearGradient id="paint13_linear_208_23151" x1="36.9803" y1="403.933" x2="-2.06643e-07" y2="403.933" gradientUnits="userSpaceOnUse">
<stop stop-color="white"/>
<stop offset="1" stop-color="white" stop-opacity="0"/>
</linearGradient>
<linearGradient id="paint14_linear_208_23151" x1="339.049" y1="691.998" x2="339.049" y2="705.865" gradientUnits="userSpaceOnUse">
<stop stop-color="white"/>
<stop offset="1" stop-color="white" stop-opacity="0.2"/>
</linearGradient>
<linearGradient id="paint15_linear_208_23151" x1="308.038" y1="362" x2="308.038" y2="375.868" gradientUnits="userSpaceOnUse">
<stop stop-color="white"/>
<stop offset="1" stop-color="white" stop-opacity="0.2"/>
</linearGradient>
<linearGradient id="paint16_linear_208_23151" x1="374.934" y1="549" x2="374.934" y2="591.758" gradientUnits="userSpaceOnUse">
<stop stop-color="white"/>
<stop offset="1" stop-color="white" stop-opacity="0"/>
</linearGradient>
</defs>
</svg>
