<svg width="53" height="52" viewBox="0 0 53 52" fill="none" xmlns="http://www.w3.org/2000/svg">
<g filter="url(#filter0_b_852_235)">
<rect x="0.666504" width="52" height="52" rx="8" fill="url(#paint0_radial_852_235)"/>
</g>
<g clip-path="url(#clip0_852_235)">
<g filter="url(#filter1_d_852_235)">
<path d="M29.9496 20.1562H29.854C29.2904 20.1562 28.7499 20.3801 28.3514 20.7786C27.9529 21.1771 27.729 21.7176 27.729 22.2812V29.7187C27.729 30.8459 27.2812 31.9269 26.4842 32.7239C25.6872 33.521 24.6062 33.9687 23.479 33.9687H23.3834C23.1155 35.3996 22.3233 36.679 21.1619 37.5567C20.0005 38.4344 18.5534 38.8472 17.1038 38.7143C15.6541 38.5814 14.3062 37.9124 13.3237 36.8383C12.3412 35.7641 11.7948 34.3619 11.7915 32.9062C11.7891 31.447 12.3327 30.0397 13.3154 28.961C14.2981 27.8824 15.6488 27.2103 17.1019 27.0772C18.555 26.944 20.0053 27.3592 21.1677 28.2413C22.3301 29.1234 23.1205 30.4084 23.3834 31.8437H23.479C24.0426 31.8437 24.5831 31.6198 24.9816 31.2213C25.3801 30.8228 25.604 30.2823 25.604 29.7187V22.2812C25.604 21.154 26.0518 20.073 26.8488 19.276C27.6458 18.479 28.7268 18.0312 29.854 18.0312H29.9496C30.2176 16.6003 31.0097 15.3209 32.1711 14.4432C33.3325 13.5656 34.7796 13.1528 36.2292 13.2856C37.6789 13.4185 39.0268 14.0875 40.0093 15.1617C40.9918 16.2359 41.5382 17.638 41.5415 19.0937C41.5439 20.5529 41.0004 21.9602 40.0177 23.0389C39.035 24.1176 37.6843 24.7896 36.2312 24.9228C34.7781 25.056 33.3277 24.6407 32.1653 23.7586C31.0029 22.8766 30.2125 21.5915 29.9496 20.1562Z" fill="url(#paint1_linear_852_235)"/>
<path d="M29.9913 20.1062L29.9988 20.1472C30.2595 21.5702 31.0431 22.8443 32.1955 23.7188C33.348 24.5933 34.7859 25.005 36.2266 24.873C37.6673 24.7409 39.0064 24.0747 39.9807 23.0052C40.955 21.9358 41.4939 20.5405 41.4915 19.0938C41.4882 17.6505 40.9465 16.2604 39.9724 15.1954C38.9983 14.1304 37.6619 13.4672 36.2247 13.3354C34.7874 13.2037 33.3527 13.613 32.2012 14.4831C31.0498 15.3533 30.2644 16.6218 29.9988 18.0404L29.9911 18.0812H29.9496H29.854C28.7401 18.0812 27.6718 18.5237 26.8842 19.3114C26.0965 20.099 25.654 21.1673 25.654 22.2812V29.7187C25.654 30.2956 25.4249 30.8488 25.017 31.2567C24.6091 31.6646 24.0559 31.8937 23.479 31.8937H23.3834H23.3417L23.3342 31.8527C23.0736 30.4297 22.29 29.1556 21.1375 28.2811C19.985 27.4066 18.5471 26.9949 17.1064 27.1269C15.6658 27.259 14.3266 27.9253 13.3523 28.9947C12.378 30.0642 11.8391 31.4594 11.8415 32.9061L29.9913 20.1062ZM29.9913 20.1062H29.9496M29.9913 20.1062H29.9496M29.9496 20.1062H29.854C29.2772 20.1062 28.7239 20.3354 28.3161 20.7433C27.9082 21.1512 27.679 21.7044 27.679 22.2812V29.7187C27.679 30.8326 27.2365 31.9009 26.4489 32.6886C25.6612 33.4762 24.5929 33.9187 23.479 33.9187H23.3834H23.3419M29.9496 20.1062L23.3419 33.9187M23.3419 33.9187L23.3342 33.9595M23.3419 33.9187L23.3342 33.9595M23.3342 33.9595C23.0686 35.3781 22.2832 36.6466 21.1318 37.5168M23.3342 33.9595L21.1318 37.5168M21.1318 37.5168C19.9803 38.387 18.5456 38.7962 17.1083 38.6645M21.1318 37.5168L17.1083 38.6645M17.1083 38.6645C15.6711 38.5328 14.3347 37.8695 13.3606 36.8045M17.1083 38.6645L13.3606 36.8045M13.3606 36.8045C12.3865 35.7395 11.8448 34.3494 11.8415 32.9061L13.3606 36.8045Z" stroke="white" stroke-width="0.1"/>
</g>
</g>
<defs>
<filter id="filter0_b_852_235" x="-11.8529" y="-12.5194" width="77.0384" height="77.0389" filterUnits="userSpaceOnUse" color-interpolation-filters="sRGB">
<feFlood flood-opacity="0" result="BackgroundImageFix"/>
<feGaussianBlur in="BackgroundImageFix" stdDeviation="6.25972"/>
<feComposite in2="SourceAlpha" operator="in" result="effect1_backgroundBlur_852_235"/>
<feBlend mode="normal" in="SourceGraphic" in2="effect1_backgroundBlur_852_235" result="shape"/>
</filter>
<filter id="filter1_d_852_235" x="-57.8085" y="-56.3388" width="168.95" height="164.678" filterUnits="userSpaceOnUse" color-interpolation-filters="sRGB">
<feFlood flood-opacity="0" result="BackgroundImageFix"/>
<feColorMatrix in="SourceAlpha" type="matrix" values="0 0 0 0 0 0 0 0 0 0 0 0 0 0 0 0 0 0 127 0" result="hardAlpha"/>
<feOffset/>
<feGaussianBlur stdDeviation="34.8"/>
<feComposite in2="hardAlpha" operator="out"/>
<feColorMatrix type="matrix" values="0 0 0 0 0.929412 0 0 0 0 0.737255 0 0 0 0 0.392157 0 0 0 0.35 0"/>
<feBlend mode="normal" in2="BackgroundImageFix" result="effect1_dropShadow_852_235"/>
<feBlend mode="normal" in="SourceGraphic" in2="effect1_dropShadow_852_235" result="shape"/>
</filter>
<radialGradient id="paint0_radial_852_235" cx="0" cy="0" r="1" gradientUnits="userSpaceOnUse" gradientTransform="translate(5.69875 52) rotate(-38.7564) scale(86.7991 140.134)">
<stop stop-color="white" stop-opacity="0.1"/>
<stop offset="1" stop-color="white" stop-opacity="0.05"/>
</radialGradient>
<linearGradient id="paint1_linear_852_235" x1="26.6665" y1="13.2612" x2="26.6665" y2="38.7387" gradientUnits="userSpaceOnUse">
<stop stop-color="#EDBC64"/>
<stop offset="1" stop-color="#FDA60B"/>
</linearGradient>
<clipPath id="clip0_852_235">
<rect width="34" height="34" fill="white" transform="translate(9.6665 9)"/>
</clipPath>
</defs>
</svg>
