<svg width="52" height="52" viewBox="0 0 52 52" fill="none" xmlns="http://www.w3.org/2000/svg">
<g filter="url(#filter0_b_852_227)">
<rect width="52" height="52" rx="8" fill="url(#paint0_radial_852_227)"/>
</g>
<g clip-path="url(#clip0_852_227)">
<g filter="url(#filter1_d_852_227)">
<path d="M31.6683 32.3317L35.3606 36.024C35.4663 36.1106 35.5769 36.1538 35.6923 36.1538C35.8077 36.1538 35.9183 36.1106 36.024 36.024C36.1106 35.9279 36.1538 35.8173 36.1538 35.6923C36.1538 35.5673 36.1106 35.4567 36.024 35.3606L32.3317 31.6683C32.2356 31.5817 32.125 31.5385 32 31.5385C31.875 31.5385 31.7644 31.5817 31.6683 31.6683C31.5817 31.7644 31.5385 31.875 31.5385 32C31.5385 32.125 31.5817 32.2356 31.6683 32.3317ZM29.2308 32.9231V37.5385C29.2308 37.6731 29.274 37.7837 29.3606 37.8702C29.4471 37.9567 29.5577 38 29.6923 38C29.8269 38 29.9375 37.9567 30.024 37.8702C30.1106 37.7837 30.1538 37.6731 30.1538 37.5385V32.9231C30.1538 32.7885 30.1106 32.6779 30.024 32.5913C29.9375 32.5048 29.8269 32.4615 29.6923 32.4615C29.5577 32.4615 29.4471 32.5048 29.3606 32.5913C29.274 32.6779 29.2308 32.7885 29.2308 32.9231ZM32.4615 29.6923C32.4615 29.8269 32.5048 29.9375 32.5913 30.024C32.6779 30.1106 32.7885 30.1538 32.9231 30.1538H37.5385C37.6731 30.1538 37.7837 30.1106 37.8702 30.024C37.9567 29.9375 38 29.8269 38 29.6923C38 29.5577 37.9567 29.4471 37.8702 29.3606C37.7837 29.274 37.6731 29.2308 37.5385 29.2308H32.9231C32.7885 29.2308 32.6779 29.274 32.5913 29.3606C32.5048 29.4471 32.4615 29.5577 32.4615 29.6923ZM14.2308 31.5385C14.2308 32.6923 14.6394 33.6683 15.4567 34.4663L17.5769 36.5721C18.375 37.3702 19.351 37.7692 20.5048 37.7692C21.6683 37.7692 22.649 37.3606 23.4471 36.5433L28.2644 31.7115C28.4663 31.5096 28.6683 31.2404 28.8702 30.9038L25.4231 30.6442L21.4856 34.5962C21.226 34.8558 20.899 34.988 20.5048 34.9928C20.1106 34.9976 19.7837 34.8702 19.524 34.6106L17.4038 32.5048C17.1346 32.2356 17 31.9135 17 31.5385C17 31.1538 17.1346 30.8269 17.4038 30.5577L21.3558 26.5913L21.0962 23.1442C20.7596 23.3462 20.4904 23.5481 20.2885 23.75L15.4423 28.5962C14.6346 29.4231 14.2308 30.4038 14.2308 31.5385ZM23.1298 21.0962L26.5769 21.3558L30.5144 17.4038C30.7837 17.1346 31.1106 17 31.4952 17C31.8702 17 32.1971 17.1298 32.476 17.3894L34.5962 19.4952C34.8654 19.7644 35 20.0865 35 20.4615C35 20.8462 34.8654 21.1731 34.5962 21.4423L30.6442 25.3942L30.9038 28.8558C31.2404 28.6538 31.5096 28.4519 31.7115 28.25L36.5577 23.4038C37.3654 22.5769 37.7692 21.5962 37.7692 20.4615C37.7692 19.3077 37.3606 18.3317 36.5433 17.5337L34.4231 15.4279C33.625 14.6298 32.649 14.2308 31.4952 14.2308C30.3317 14.2308 29.351 14.6394 28.5529 15.4567L23.7356 20.2885C23.5337 20.4904 23.3317 20.7596 23.1298 21.0962ZM14 22.3077C14 22.4423 14.0433 22.5529 14.1298 22.6394C14.2163 22.726 14.3269 22.7692 14.4615 22.7692H19.0769C19.2115 22.7692 19.3221 22.726 19.4087 22.6394C19.4952 22.5529 19.5385 22.4423 19.5385 22.3077C19.5385 22.1731 19.4952 22.0625 19.4087 21.976C19.3221 21.8894 19.2115 21.8462 19.0769 21.8462H14.4615C14.3269 21.8462 14.2163 21.8894 14.1298 21.976C14.0433 22.0625 14 22.1731 14 22.3077ZM21.8462 14.4615V19.0769C21.8462 19.2115 21.8894 19.3221 21.976 19.4087C22.0625 19.4952 22.1731 19.5385 22.3077 19.5385C22.4423 19.5385 22.5529 19.4952 22.6394 19.4087C22.726 19.3221 22.7692 19.2115 22.7692 19.0769V14.4615C22.7692 14.3269 22.726 14.2163 22.6394 14.1298C22.5529 14.0433 22.4423 14 22.3077 14C22.1731 14 22.0625 14.0433 21.976 14.1298C21.8894 14.2163 21.8462 14.3269 21.8462 14.4615ZM15.976 16.6394L19.6683 20.3317C19.774 20.4183 19.8846 20.4615 20 20.4615C20.1154 20.4615 20.226 20.4183 20.3317 20.3317C20.4183 20.2356 20.4615 20.125 20.4615 20C20.4615 19.875 20.4183 19.7644 20.3317 19.6683L16.6394 15.976C16.5433 15.8894 16.4327 15.8462 16.3077 15.8462C16.1827 15.8462 16.0721 15.8894 15.976 15.976C15.8894 16.0721 15.8462 16.1827 15.8462 16.3077C15.8462 16.4327 15.8894 16.5433 15.976 16.6394Z" fill="url(#paint1_linear_852_227)"/>
<path d="M15.492 34.4309L15.4917 34.4306C14.6841 33.642 14.2808 32.679 14.2808 31.5385C14.2808 30.4173 14.6793 29.449 15.4779 28.6313C15.4779 28.6312 15.478 28.6312 15.4781 28.6311L20.3238 23.7854C20.5081 23.6011 20.7506 23.4157 21.0524 23.2294L21.3042 26.5723L17.3685 30.5223L17.3684 30.5224M15.492 34.4309L17.4038 32.5048C17.1346 32.2356 17 31.9135 17 31.5385C17 31.1538 17.1346 30.8269 17.4038 30.5577L17.3684 30.5224M15.492 34.4309L17.6122 36.5366L17.6123 36.5368C18.4007 37.3252 19.3639 37.7192 20.5048 37.7192C21.6551 37.7192 22.6229 37.3158 23.4113 36.5083L23.4117 36.508L28.229 31.6762L28.2291 31.6762C28.4133 31.4919 28.5987 31.2494 28.7851 30.9476L25.4423 30.6958L21.521 34.6314L21.5209 34.6315C21.2514 34.9011 20.9116 35.0378 20.5054 35.0428C20.0989 35.0477 19.7587 34.9159 19.4888 34.6461M15.492 34.4309L19.4888 34.6461M17.3684 30.5224C17.0898 30.8011 16.95 31.1408 16.95 31.5385C16.95 31.9269 17.09 32.2617 17.3685 32.5402L17.3686 32.5403L19.4887 34.6459M17.3684 30.5224L19.4887 34.6459M19.4887 34.6459C19.4887 34.646 19.4888 34.646 19.4888 34.6461M19.4887 34.6459L19.4888 34.6461M30.479 17.3686L30.4791 17.3685C30.7578 17.0898 31.0975 16.95 31.4952 16.95C31.8831 16.95 32.2221 17.0848 32.51 17.3528L32.5101 17.3528L32.5112 17.3539L34.6314 19.4597L34.6315 19.4598C34.91 19.7383 35.05 20.0731 35.05 20.4615C35.05 20.8593 34.9102 21.1989 34.6315 21.4777L30.6958 25.4134L30.9476 28.7706C31.2494 28.5843 31.4919 28.3989 31.6762 28.2146L36.5219 23.3689C36.522 23.3688 36.5221 23.3688 36.5221 23.3687C37.3208 22.551 37.7192 21.5827 37.7192 20.4615C37.7192 19.321 37.3159 18.358 36.5083 17.5694L36.508 17.5691L34.3878 15.4634L34.3877 15.4632C33.5993 14.6748 32.6361 14.2808 31.4952 14.2808C30.3449 14.2808 29.3771 14.6842 28.5887 15.4917L28.5883 15.492L23.771 20.3238L23.7709 20.3238C23.5867 20.5081 23.4013 20.7506 23.2149 21.0524L26.5577 21.3042L30.479 17.3686ZM31.5885 32C31.5885 32.1118 31.6266 32.2102 31.7046 32.2973L35.3941 35.9869C35.4921 36.0665 35.5912 36.1038 35.6923 36.1038C35.7931 36.1038 35.8918 36.0667 35.9894 35.9878C36.0663 35.9011 36.1038 35.8033 36.1038 35.6923C36.1038 35.5805 36.0657 35.4821 35.9877 35.395L32.2973 31.7046C32.2102 31.6266 32.1118 31.5885 32 31.5885C31.8887 31.5885 31.7905 31.6263 31.7037 31.7037C31.6263 31.7905 31.5885 31.8887 31.5885 32ZM29.2808 32.9231V37.5385C29.2808 37.6613 29.3198 37.7587 29.3959 37.8348C29.4721 37.911 29.5695 37.95 29.6923 37.95C29.8151 37.95 29.9125 37.911 29.9887 37.8348C30.0649 37.7587 30.1038 37.6613 30.1038 37.5385V32.9231C30.1038 32.8003 30.0649 32.7029 29.9887 32.6267C29.9125 32.5505 29.8151 32.5115 29.6923 32.5115C29.5695 32.5115 29.4721 32.5505 29.3959 32.6267C29.3198 32.7029 29.2808 32.8003 29.2808 32.9231ZM32.5115 29.6923C32.5115 29.8151 32.5505 29.9125 32.6267 29.9887C32.7029 30.0649 32.8003 30.1038 32.9231 30.1038H37.5385C37.6613 30.1038 37.7587 30.0649 37.8348 29.9887C37.911 29.9125 37.95 29.8151 37.95 29.6923C37.95 29.5695 37.911 29.4721 37.8348 29.3959C37.7587 29.3198 37.6613 29.2808 37.5385 29.2808H32.9231C32.8003 29.2808 32.7029 29.3198 32.6267 29.3959C32.5505 29.4721 32.5115 29.5695 32.5115 29.6923ZM14.05 22.3077C14.05 22.4305 14.089 22.5279 14.1652 22.6041C14.2413 22.6802 14.3387 22.7192 14.4615 22.7192H19.0769C19.1997 22.7192 19.2971 22.6802 19.3733 22.6041C19.4495 22.5279 19.4885 22.4305 19.4885 22.3077C19.4885 22.1849 19.4495 22.0875 19.3733 22.0113C19.2971 21.9351 19.1997 21.8962 19.0769 21.8962H14.4615C14.3387 21.8962 14.2413 21.9351 14.1652 22.0113C14.089 22.0875 14.05 22.1849 14.05 22.3077ZM21.8962 14.4615V19.0769C21.8962 19.1997 21.9351 19.2971 22.0113 19.3733C22.0875 19.4495 22.1849 19.4885 22.3077 19.4885C22.4305 19.4885 22.5279 19.4495 22.6041 19.3733C22.6802 19.2971 22.7192 19.1997 22.7192 19.0769V14.4615C22.7192 14.3387 22.6802 14.2413 22.6041 14.1652C22.5279 14.089 22.4305 14.05 22.3077 14.05C22.1849 14.05 22.0875 14.089 22.0113 14.1652C21.9351 14.2413 21.8962 14.3387 21.8962 14.4615ZM16.0123 16.605L19.7018 20.2946C19.7998 20.3742 19.8989 20.4115 20 20.4115C20.1008 20.4115 20.1995 20.3744 20.2971 20.2955C20.374 20.2088 20.4115 20.111 20.4115 20C20.4115 19.8882 20.3734 19.7898 20.2954 19.7027L16.605 16.0123C16.5179 15.9343 16.4195 15.8962 16.3077 15.8962C16.1963 15.8962 16.0982 15.934 16.0114 16.0114C15.934 16.0982 15.8962 16.1964 15.8962 16.3077C15.8962 16.4195 15.9343 16.5179 16.0123 16.605Z" stroke="white" stroke-width="0.1"/>
</g>
</g>
<defs>
<filter id="filter0_b_852_227" x="-12.5194" y="-12.5194" width="77.0389" height="77.0389" filterUnits="userSpaceOnUse" color-interpolation-filters="sRGB">
<feFlood flood-opacity="0" result="BackgroundImageFix"/>
<feGaussianBlur in="BackgroundImageFix" stdDeviation="6.25972"/>
<feComposite in2="SourceAlpha" operator="in" result="effect1_backgroundBlur_852_227"/>
<feBlend mode="normal" in="SourceGraphic" in2="effect1_backgroundBlur_852_227" result="shape"/>
</filter>
<filter id="filter1_d_852_227" x="-55.6" y="-55.6" width="163.2" height="163.2" filterUnits="userSpaceOnUse" color-interpolation-filters="sRGB">
<feFlood flood-opacity="0" result="BackgroundImageFix"/>
<feColorMatrix in="SourceAlpha" type="matrix" values="0 0 0 0 0 0 0 0 0 0 0 0 0 0 0 0 0 0 127 0" result="hardAlpha"/>
<feOffset/>
<feGaussianBlur stdDeviation="34.8"/>
<feComposite in2="hardAlpha" operator="out"/>
<feColorMatrix type="matrix" values="0 0 0 0 0.929412 0 0 0 0 0.737255 0 0 0 0 0.392157 0 0 0 0.35 0"/>
<feBlend mode="normal" in2="BackgroundImageFix" result="effect1_dropShadow_852_227"/>
<feBlend mode="normal" in="SourceGraphic" in2="effect1_dropShadow_852_227" result="shape"/>
</filter>
<radialGradient id="paint0_radial_852_227" cx="0" cy="0" r="1" gradientUnits="userSpaceOnUse" gradientTransform="translate(5.03225 52) rotate(-38.7564) scale(86.7991 140.134)">
<stop stop-color="white" stop-opacity="0.1"/>
<stop offset="1" stop-color="white" stop-opacity="0.05"/>
</radialGradient>
<linearGradient id="paint1_linear_852_227" x1="26" y1="14" x2="26" y2="38" gradientUnits="userSpaceOnUse">
<stop stop-color="#EDBC64"/>
<stop offset="1" stop-color="#FDA60B"/>
</linearGradient>
<clipPath id="clip0_852_227">
<rect width="24" height="24" fill="white" transform="translate(14 14)"/>
</clipPath>
</defs>
</svg>
