<svg width="500" height="506" viewBox="0 0 500 506" fill="none" xmlns="http://www.w3.org/2000/svg">
<path d="M249.821 135.355L499.651 279.59L249.825 423.828L0 279.59L249.821 135.355Z" fill="#FFDB9A" fill-opacity="0.85"/>
<path d="M0.5 361.281V279.456L249.325 423.117V504.942L0.5 361.281Z" fill="#FFD25F" fill-opacity="0.77" stroke="#FFC75F"/>
<path d="M250.325 504.942V424.117L499.151 280.456V361.281L250.325 504.942Z" fill="#E4B051" fill-opacity="0.9" stroke="#FFC75F"/>
<g opacity="0.5">
<path d="M249.821 0.355469L321.362 41.6593L71.5405 185.894L0 144.59L249.821 0.355469Z" fill="#FF4F4F" fill-opacity="0.7"/>
<path d="M0.5 278.281V145.456L71.0405 186.182V319.007L0.5 278.281Z" fill="#FF4F4F" fill-opacity="0.8" stroke="#FF4F4F"/>
<path d="M72.0361 319.008V186.183L320.861 42.5254V175.35L72.0361 319.008Z" fill="#FF4F4F" stroke="#FF4F4F"/>
<path d="M339.13 51.918L500 144.797L383.971 211.785L223.102 118.906L339.13 51.918Z" fill="#D39DFF" fill-opacity="0.7"/>
<path d="M223.602 252.597V119.772L383.471 212.073V344.898L223.602 252.597Z" fill="#B65CFF" fill-opacity="0.8" stroke="#A134F9"/>
<path d="M384.472 344.898V212.073L499.5 145.663V278.488L384.472 344.898Z" fill="#A134F9" fill-opacity="0.9" stroke="#A134F9"/>
<path d="M205.333 128.165L276.874 169.469L160.845 236.457L89.3047 195.153L205.333 128.165Z" fill="#58D6A9" fill-opacity="0.7"/>
<path d="M89.8087 328.844L89.8047 196.019L160.345 236.745V369.57L89.8087 328.844Z" fill="#58D6A9" fill-opacity="0.9" stroke="#58D6A9"/>
<path d="M161.346 369.57V236.745L276.374 170.335V303.156L161.346 369.57Z" fill="#58D6A9" fill-opacity="0.8" stroke="#58D6A9"/>
<path d="M294.667 257.603L366.204 298.91L250.175 365.898L178.639 324.594L294.667 257.603Z" fill="#93B9FF" fill-opacity="0.7"/>
<path d="M179.139 381.038V325.46L249.675 366.187V421.765L179.139 381.038Z" fill="#669BFF" fill-opacity="0.9" stroke="#4988FF"/>
<path d="M250.675 421.765V366.187L365.703 299.776V355.355L250.675 421.765Z" fill="#4988FF" fill-opacity="0.8" stroke="#4988FF"/>
<path d="M294.667 180.355L366.208 221.659L250.179 288.647L178.639 247.343L294.667 180.355Z" fill="#93B9FF" fill-opacity="0.7"/>
<path d="M179.139 303.787V248.209L249.679 288.936V344.518L179.139 303.787Z" fill="#669BFF" fill-opacity="0.8" stroke="#4988FF"/>
<path d="M250.675 344.518V288.936L365.707 222.525V278.104L250.675 344.518Z" fill="#4988FF" fill-opacity="0.9" stroke="#4988FF"/>
</g>
<path fill-rule="evenodd" clip-rule="evenodd" d="M461.651 319.855C449.693 326.759 440 343.548 440 357.355C440 361.055 440.696 364.165 441.945 366.603C445.784 366.208 452.202 363.098 461.72 353.225C467.344 347.391 473.665 344.013 479.246 343.19C480.055 343.07 480.878 342.911 481.708 342.705C482.735 339.202 483.301 335.692 483.301 332.355C483.301 318.548 473.608 312.952 461.651 319.855ZM473.342 338.105C473.342 330.65 468.108 327.628 461.651 331.355C455.194 335.083 449.959 344.15 449.959 351.605L473.342 338.105ZM480.648 345.89C479.522 348.911 478.072 351.885 476.368 354.694C471.338 355.642 465.784 358.617 460.699 363.611C456.431 367.803 452.801 370.687 449.754 372.615C447.351 372.174 445.283 371.003 443.676 369.174C448.212 367.737 454.521 363.721 462.669 355.269C467.619 350.135 473.269 347.078 478.34 346.33C479.083 346.22 479.855 346.076 480.648 345.89ZM461.553 365.754C465.554 361.824 469.942 359.264 474.08 358.152C470.562 363.036 466.276 367.185 461.651 369.855C458.813 371.494 456.102 372.428 453.619 372.716C456.03 370.876 458.673 368.582 461.553 365.754Z" fill="white"/>
</svg>
