<?xml version="1.0" encoding="UTF-8"?>
<svg xmlns="http://www.w3.org/2000/svg" xmlns:xlink="http://www.w3.org/1999/xlink" width="50px" height="50px" viewBox="0 0 50 50" version="1.1">
<g id="surface1">
<path style=" stroke:none;fill-rule:evenodd;fill:rgb(39.215686%,58.431373%,92.941176%);fill-opacity:1;" d="M 42.582031 42.769531 C 44.550781 40.824219 46.199219 38.550781 47.4375 36.039062 C 46.324219 35.675781 45.242188 35.269531 44.210938 34.835938 C 38.453125 32.410156 31.941406 31.933594 26.136719 33.96875 C 15.386719 37.734375 7.496094 37.351562 2.257812 35.394531 C 3.921875 39.039062 6.441406 42.210938 9.554688 44.660156 C 13.167969 44.539062 17.507812 43.761719 22.648438 41.957031 C 29.148438 39.679688 36.3125 40.207031 42.582031 42.773438 Z M 40.179688 44.867188 C 34.816406 42.972656 28.933594 42.734375 23.636719 44.59375 C 19.867188 45.914062 16.445312 46.726562 13.371094 47.136719 C 16.84375 48.964844 20.800781 50 25 50 C 30.707031 50 35.96875 48.085938 40.179688 44.867188 Z M 45.367188 32.265625 C 46.40625 32.703125 47.46875 33.097656 48.539062 33.4375 C 49.484375 30.800781 50 27.960938 50 25 L 0 25 C 0 27.289062 0.308594 29.503906 0.882812 31.609375 C 4.976562 34.070312 12.714844 35.691406 25.152344 31.332031 C 31.75 29.019531 39.03125 29.597656 45.367188 32.265625 Z M 45.367188 32.265625 "/>
<path style=" stroke:none;fill-rule:evenodd;fill:rgb(92.941176%,73.72549%,39.215686%);fill-opacity:1;" d="M 0 25 C 0 11.191406 11.191406 0 25 0 C 38.808594 0 50 11.191406 50 25 L 38.5 25 C 38.5 17.542969 32.457031 11.5 25 11.5 C 17.542969 11.5 11.5 17.542969 11.5 25 Z M 0 25 "/>
</g>
</svg>
