<svg width="40" height="41" viewBox="0 0 40 41" fill="none" xmlns="http://www.w3.org/2000/svg">
<g filter="url(#filter0_i_852_373)">
<path d="M0 4.5C0 2.29086 1.79086 0.5 4 0.5H36C38.2091 0.5 40 2.29086 40 4.5V36.5C40 38.7091 38.2091 40.5 36 40.5H4C1.79086 40.5 0 38.7091 0 36.5V4.5Z" fill="white" fill-opacity="0.05"/>
<path d="M0.25 4.5C0.25 2.42893 1.92893 0.75 4 0.75H36C38.0711 0.75 39.75 2.42893 39.75 4.5V36.5C39.75 38.5711 38.0711 40.25 36 40.25H4C1.92893 40.25 0.25 38.5711 0.25 36.5V4.5Z" stroke="url(#paint0_linear_852_373)" stroke-width="0.5"/>
<path d="M24.25 16.5L18.25 22.5L16.25 20.5M27.5 13.257V30.25L23.75 28.75L20 30.25L16.25 28.75L12.5 30.25V13.257C12.5 12.149 13.306 11.2 14.407 11.072C18.1232 10.6406 21.8768 10.6406 25.593 11.072C26.693 11.2 27.5 12.149 27.5 13.257Z" stroke="#EDBC64" stroke-width="1.5" stroke-linecap="round" stroke-linejoin="round"/>
</g>
<defs>
<filter id="filter0_i_852_373" x="0" y="0.5" width="40" height="40" filterUnits="userSpaceOnUse" color-interpolation-filters="sRGB">
<feFlood flood-opacity="0" result="BackgroundImageFix"/>
<feBlend mode="normal" in="SourceGraphic" in2="BackgroundImageFix" result="shape"/>
<feColorMatrix in="SourceAlpha" type="matrix" values="0 0 0 0 0 0 0 0 0 0 0 0 0 0 0 0 0 0 127 0" result="hardAlpha"/>
<feOffset/>
<feGaussianBlur stdDeviation="5.9"/>
<feComposite in2="hardAlpha" operator="arithmetic" k2="-1" k3="1"/>
<feColorMatrix type="matrix" values="0 0 0 0 0.929412 0 0 0 0 0.737255 0 0 0 0 0.392157 0 0 0 0.1 0"/>
<feBlend mode="normal" in2="shape" result="effect1_innerShadow_852_373"/>
</filter>
<linearGradient id="paint0_linear_852_373" x1="20" y1="0.5" x2="20" y2="40.5" gradientUnits="userSpaceOnUse">
<stop/>
<stop offset="1" stop-color="#EDBC64"/>
</linearGradient>
</defs>
</svg>
