<svg width="250" height="250" viewBox="0 0 250 250" fill="none" xmlns="http://www.w3.org/2000/svg">
<circle cx="125" cy="125.044" r="123.225" stroke="#014092" stroke-width="2.61967" stroke-dasharray="110.03 43.03"/>
<path d="M48.0506 221.139L64.5425 222.941L54.7362 236.323L48.0506 221.139Z" fill="#014092"/>
<path d="M13.9282 54.5844L29.2816 48.2993L27.048 64.7383L13.9282 54.5844Z" fill="#014092"/>
<path d="M185.936 28.0925L194.597 13.9432L202.52 28.5192L185.936 28.0925Z" fill="#014092"/>
<path d="M220.857 202.473L221.753 185.907L235.651 194.966L220.857 202.473Z" fill="#014092"/>
<path d="M67.2026 139.962C60.7468 139.962 57.7646 137.34 57.7646 132.49V132.064H62.5819V132.392C62.5819 134.817 63.4667 135.505 67.432 135.505C70.2175 135.505 70.9057 134.948 70.9057 133.473C70.9057 131.999 70.5779 131.474 67.4975 130.95L63.6306 130.262C59.4359 129.541 57.6663 127.411 57.6663 124.003C57.6663 120.66 60.1241 117.35 66.4161 117.35C72.6753 117.35 75.2969 120.594 75.2969 124.953V125.215H70.4469V124.855C70.4469 122.561 69.4965 121.807 66.2522 121.807C63.4339 121.807 62.5491 122.43 62.5491 123.806C62.5491 125.215 63.139 125.543 65.6951 126.034L69.5948 126.788C74.2155 127.673 75.7885 130.098 75.7885 133.309C75.7885 136.816 73.429 139.962 67.2026 139.962ZM87.9579 139.962C81.5676 139.962 78.3233 136.554 78.3233 131.081V117.678H83.2062V131.015C83.2062 134.161 84.3204 135.21 87.9579 135.21C91.5627 135.21 92.6769 134.161 92.6769 131.015V117.678H97.5925V131.081C97.5925 136.554 94.3482 139.962 87.9579 139.962ZM106.202 139.634H101.287V117.678H106.53L113.641 128.689L115.477 131.638H115.804L115.739 128.689V117.678H120.654V139.634H115.411L108.595 129.246L106.465 125.87H106.137L106.202 129.246V139.634ZM129.388 139.634H124.472V117.678H134.565C139.809 117.678 142.725 120.103 142.725 124.363C142.725 127.935 140.956 130.065 137.187 130.393V130.721C139.088 131.31 140.005 132.457 140.857 134.129L143.643 139.634H137.908L135.319 134.555C134.336 132.654 133.681 131.835 131.354 131.835H129.388V139.634ZM129.388 122.102V127.771H134.795C137.089 127.771 137.843 127.083 137.843 124.92C137.843 122.823 137.089 122.102 134.795 122.102H129.388ZM150.621 139.634H145.705V117.678H150.621V139.634ZM163.575 139.962C157.119 139.962 154.137 137.34 154.137 132.49V132.064H158.954V132.392C158.954 134.817 159.839 135.505 163.805 135.505C166.59 135.505 167.278 134.948 167.278 133.473C167.278 131.999 166.951 131.474 163.87 130.95L160.003 130.262C155.809 129.541 154.039 127.411 154.039 124.003C154.039 120.66 156.497 117.35 162.789 117.35C169.048 117.35 171.67 120.594 171.67 124.953V125.215H166.819V124.855C166.819 122.561 165.869 121.807 162.625 121.807C159.807 121.807 158.922 122.43 158.922 123.806C158.922 125.215 159.512 125.543 162.068 126.034L165.967 126.788C170.588 127.673 172.161 130.098 172.161 133.309C172.161 136.816 169.802 139.962 163.575 139.962ZM191.54 139.634H174.794V117.678H191.54V122.102H179.71V126.395H191.048V130.786H179.71V135.21H191.54V139.634Z" fill="url(#paint0_linear_645_521)"/>
<path d="M67.2026 139.962C60.7468 139.962 57.7646 137.34 57.7646 132.49V132.064H62.5819V132.392C62.5819 134.817 63.4667 135.505 67.432 135.505C70.2175 135.505 70.9057 134.948 70.9057 133.473C70.9057 131.999 70.5779 131.474 67.4975 130.95L63.6306 130.262C59.4359 129.541 57.6663 127.411 57.6663 124.003C57.6663 120.66 60.1241 117.35 66.4161 117.35C72.6753 117.35 75.2969 120.594 75.2969 124.953V125.215H70.4469V124.855C70.4469 122.561 69.4965 121.807 66.2522 121.807C63.4339 121.807 62.5491 122.43 62.5491 123.806C62.5491 125.215 63.139 125.543 65.6951 126.034L69.5948 126.788C74.2155 127.673 75.7885 130.098 75.7885 133.309C75.7885 136.816 73.429 139.962 67.2026 139.962ZM87.9579 139.962C81.5676 139.962 78.3233 136.554 78.3233 131.081V117.678H83.2062V131.015C83.2062 134.161 84.3204 135.21 87.9579 135.21C91.5627 135.21 92.6769 134.161 92.6769 131.015V117.678H97.5925V131.081C97.5925 136.554 94.3482 139.962 87.9579 139.962ZM106.202 139.634H101.287V117.678H106.53L113.641 128.689L115.477 131.638H115.804L115.739 128.689V117.678H120.654V139.634H115.411L108.595 129.246L106.465 125.87H106.137L106.202 129.246V139.634ZM129.388 139.634H124.472V117.678H134.565C139.809 117.678 142.725 120.103 142.725 124.363C142.725 127.935 140.956 130.065 137.187 130.393V130.721C139.088 131.31 140.005 132.457 140.857 134.129L143.643 139.634H137.908L135.319 134.555C134.336 132.654 133.681 131.835 131.354 131.835H129.388V139.634ZM129.388 122.102V127.771H134.795C137.089 127.771 137.843 127.083 137.843 124.92C137.843 122.823 137.089 122.102 134.795 122.102H129.388ZM150.621 139.634H145.705V117.678H150.621V139.634ZM163.575 139.962C157.119 139.962 154.137 137.34 154.137 132.49V132.064H158.954V132.392C158.954 134.817 159.839 135.505 163.805 135.505C166.59 135.505 167.278 134.948 167.278 133.473C167.278 131.999 166.951 131.474 163.87 130.95L160.003 130.262C155.809 129.541 154.039 127.411 154.039 124.003C154.039 120.66 156.497 117.35 162.789 117.35C169.048 117.35 171.67 120.594 171.67 124.953V125.215H166.819V124.855C166.819 122.561 165.869 121.807 162.625 121.807C159.807 121.807 158.922 122.43 158.922 123.806C158.922 125.215 159.512 125.543 162.068 126.034L165.967 126.788C170.588 127.673 172.161 130.098 172.161 133.309C172.161 136.816 169.802 139.962 163.575 139.962ZM191.54 139.634H174.794V117.678H191.54V122.102H179.71V126.395H191.048V130.786H179.71V135.21H191.54V139.634Z" fill="#FF0E0E" fill-opacity="0.2"/>
<path d="M45.8712 174.694H40.9556V152.737H57.4392V157.161H45.8712V162.175H56.9477V166.566H45.8712V174.694ZM76.6188 174.694H60.3645V152.737H65.2801V170.27H76.6188V174.694ZM86.324 174.694H81.4084V166.763L72.8552 152.737H78.4263L81.8672 158.505L83.7679 161.749H84.0956L85.9635 158.505L89.4044 152.737H94.8771L86.324 166.763V174.694ZM107.49 174.694H100.28L95.8561 152.737H101.558L103.23 162.634L104.016 169.876H104.377L105.72 162.634L108.309 152.737H115.289L117.878 162.568L119.254 169.876H119.615L120.401 162.568L122.073 152.737H127.644L123.22 174.694H116.043L113.388 164.961L111.914 158.013H111.586L110.111 164.961L107.49 174.694ZM134.484 174.694H129.568V152.737H134.484V161.454H144.053V152.737H148.968V174.694H144.053V165.845H134.484V174.694ZM169.531 174.694H152.785V152.737H169.531V157.161H157.701V161.454H169.04V165.845H157.701V170.27H169.531V174.694ZM189.516 174.694H172.77V152.737H189.516V157.161H177.686V161.454H189.025V165.845H177.686V170.27H189.516V174.694ZM209.01 174.694H192.755V152.737H197.671V170.27H209.01V174.694Z" fill="url(#paint1_linear_645_521)"/>
<path d="M45.8712 174.694H40.9556V152.737H57.4392V157.161H45.8712V162.175H56.9477V166.566H45.8712V174.694ZM76.6188 174.694H60.3645V152.737H65.2801V170.27H76.6188V174.694ZM86.324 174.694H81.4084V166.763L72.8552 152.737H78.4263L81.8672 158.505L83.7679 161.749H84.0956L85.9635 158.505L89.4044 152.737H94.8771L86.324 166.763V174.694ZM107.49 174.694H100.28L95.8561 152.737H101.558L103.23 162.634L104.016 169.876H104.377L105.72 162.634L108.309 152.737H115.289L117.878 162.568L119.254 169.876H119.615L120.401 162.568L122.073 152.737H127.644L123.22 174.694H116.043L113.388 164.961L111.914 158.013H111.586L110.111 164.961L107.49 174.694ZM134.484 174.694H129.568V152.737H134.484V161.454H144.053V152.737H148.968V174.694H144.053V165.845H134.484V174.694ZM169.531 174.694H152.785V152.737H169.531V157.161H157.701V161.454H169.04V165.845H157.701V170.27H169.531V174.694ZM189.516 174.694H172.77V152.737H189.516V157.161H177.686V161.454H189.025V165.845H177.686V170.27H189.516V174.694ZM209.01 174.694H192.755V152.737H197.671V170.27H209.01V174.694Z" fill="#FF0E0E" fill-opacity="0.2"/>
<path fill-rule="evenodd" clip-rule="evenodd" d="M142.582 97.8534C144.551 95.9081 146.199 93.6346 147.438 91.1229C146.324 90.7596 145.242 90.3534 144.211 89.9198C138.453 87.494 131.941 87.0175 126.137 89.0526C115.387 92.8182 107.496 92.4354 102.258 90.4784C103.922 94.1229 106.441 97.2948 109.555 99.744C113.168 99.6229 117.508 98.8456 122.648 97.0409C129.148 94.7636 136.312 95.2909 142.582 97.8573V97.8534ZM140.18 99.951C134.816 98.0565 128.934 97.8182 123.637 99.6776C119.867 100.998 116.445 101.81 113.371 102.221C116.844 104.049 120.801 105.084 125 105.084C130.707 105.084 135.969 103.17 140.18 99.951ZM145.367 87.3495C146.406 87.787 147.469 88.1815 148.539 88.5214C149.484 85.8846 150 83.0448 150 80.0839H100C100 82.3729 100.309 84.5878 100.883 86.6932C104.977 89.1542 112.715 90.7753 125.152 86.4159C131.75 84.1034 139.031 84.6815 145.367 87.3495Z" fill="#6495ED"/>
<path fill-rule="evenodd" clip-rule="evenodd" d="M100 80.084C100 66.2754 111.191 55.084 125 55.084C138.809 55.084 150 66.2754 150 80.084H138.5C138.5 72.6269 132.457 66.584 125 66.584C117.543 66.584 111.5 72.6269 111.5 80.084H100Z" fill="#EDBC64"/>
<defs>
<linearGradient id="paint0_linear_645_521" x1="56.1841" y1="128.753" x2="193.184" y2="128.753" gradientUnits="userSpaceOnUse">
<stop stop-color="#FF9500"/>
<stop offset="1" stop-color="#FFC400"/>
</linearGradient>
<linearGradient id="paint1_linear_645_521" x1="39.2298" y1="163.813" x2="210.23" y2="163.813" gradientUnits="userSpaceOnUse">
<stop stop-color="#FF9500"/>
<stop offset="1" stop-color="#FFC400"/>
</linearGradient>
</defs>
</svg>
