<svg width="83" height="84" viewBox="0 0 83 84" fill="none" xmlns="http://www.w3.org/2000/svg">
<circle cx="41.4998" cy="42.208" r="40.9722" stroke="#014092" stroke-width="0.87104" stroke-dasharray="36.59 14.31"/>
<path d="M15.9143 74.1596L21.3978 74.7587L18.1372 79.208L15.9143 74.1596Z" fill="#014092"/>
<path d="M4.56867 18.7801L9.67367 16.6903L8.931 22.1562L4.56867 18.7801Z" fill="#014092"/>
<path d="M61.7611 9.97152L64.6411 5.26687L67.2754 10.1134L61.7611 9.97152Z" fill="#014092"/>
<path d="M73.3724 67.9529L73.6703 62.4448L78.2915 65.4568L73.3724 67.9529Z" fill="#014092"/>
<path d="M22.2821 47.1681C20.1355 47.1681 19.144 46.2964 19.144 44.6838V44.5421H20.7457V44.6511C20.7457 45.4574 21.0399 45.6862 22.3584 45.6862C23.2846 45.6862 23.5134 45.501 23.5134 45.0106C23.5134 44.5203 23.4044 44.346 22.3802 44.1716L21.0944 43.9428C19.6997 43.7031 19.1113 42.9948 19.1113 41.8616C19.1113 40.7502 19.9285 39.6497 22.0206 39.6497C24.1018 39.6497 24.9735 40.7284 24.9735 42.1776V42.2648H23.3608V42.1449C23.3608 41.3822 23.0448 41.1316 21.9661 41.1316C21.029 41.1316 20.7348 41.3386 20.7348 41.7963C20.7348 42.2648 20.931 42.3738 21.7809 42.5372L23.0775 42.7878C24.6139 43.082 25.1369 43.8883 25.1369 44.9562C25.1369 46.1221 24.3524 47.1681 22.2821 47.1681ZM29.1833 47.1681C27.0585 47.1681 25.9798 46.0349 25.9798 44.2152V39.7587H27.6033V44.1934C27.6033 45.2395 27.9738 45.5882 29.1833 45.5882C30.3818 45.5882 30.7523 45.2395 30.7523 44.1934V39.7587H32.3867V44.2152C32.3867 46.0349 31.308 47.1681 29.1833 47.1681ZM35.2496 47.0591H33.6151V39.7587H35.3585L37.723 43.4198L38.3332 44.4005H38.4422L38.4204 43.4198V39.7587H40.0548V47.0591H38.3114L36.045 43.605L35.3367 42.4827H35.2278L35.2496 43.605V47.0591ZM42.9587 47.0591H41.3242V39.7587H44.6803C46.4237 39.7587 47.3934 40.565 47.3934 41.9815C47.3934 43.1692 46.805 43.8774 45.552 43.9864V44.0954C46.1839 44.2915 46.489 44.6729 46.7723 45.2286L47.6985 47.0591H45.7917L44.9309 45.3702C44.604 44.7382 44.3861 44.4658 43.6124 44.4658H42.9587V47.0591ZM42.9587 41.2297V43.1147H44.7565C45.5193 43.1147 45.7699 42.8859 45.7699 42.1667C45.7699 41.4694 45.5193 41.2297 44.7565 41.2297H42.9587ZM50.0187 47.0591H48.3842V39.7587H50.0187V47.0591ZM54.326 47.1681C52.1794 47.1681 51.1879 46.2964 51.1879 44.6838V44.5421H52.7896V44.6511C52.7896 45.4574 53.0838 45.6862 54.4023 45.6862C55.3284 45.6862 55.5573 45.501 55.5573 45.0106C55.5573 44.5203 55.4483 44.346 54.424 44.1716L53.1383 43.9428C51.7436 43.7031 51.1552 42.9948 51.1552 41.8616C51.1552 40.7502 51.9724 39.6497 54.0645 39.6497C56.1457 39.6497 57.0174 40.7284 57.0174 42.1776V42.2648H55.4047V42.1449C55.4047 41.3822 55.0887 41.1316 54.01 41.1316C53.0729 41.1316 52.7787 41.3386 52.7787 41.7963C52.7787 42.2648 52.9748 42.3738 53.8248 42.5372L55.1214 42.7878C56.6578 43.082 57.1808 43.8883 57.1808 44.9562C57.1808 46.1221 56.3963 47.1681 54.326 47.1681ZM63.6243 47.0591H58.0563V39.7587H63.6243V41.2297H59.6908V42.6571H63.4609V44.1172H59.6908V45.5882H63.6243V47.0591Z" fill="url(#paint0_linear_634_1883)"/>
<path d="M22.2821 47.1681C20.1355 47.1681 19.144 46.2964 19.144 44.6838V44.5421H20.7457V44.6511C20.7457 45.4574 21.0399 45.6862 22.3584 45.6862C23.2846 45.6862 23.5134 45.501 23.5134 45.0106C23.5134 44.5203 23.4044 44.346 22.3802 44.1716L21.0944 43.9428C19.6997 43.7031 19.1113 42.9948 19.1113 41.8616C19.1113 40.7502 19.9285 39.6497 22.0206 39.6497C24.1018 39.6497 24.9735 40.7284 24.9735 42.1776V42.2648H23.3608V42.1449C23.3608 41.3822 23.0448 41.1316 21.9661 41.1316C21.029 41.1316 20.7348 41.3386 20.7348 41.7963C20.7348 42.2648 20.931 42.3738 21.7809 42.5372L23.0775 42.7878C24.6139 43.082 25.1369 43.8883 25.1369 44.9562C25.1369 46.1221 24.3524 47.1681 22.2821 47.1681ZM29.1833 47.1681C27.0585 47.1681 25.9798 46.0349 25.9798 44.2152V39.7587H27.6033V44.1934C27.6033 45.2395 27.9738 45.5882 29.1833 45.5882C30.3818 45.5882 30.7523 45.2395 30.7523 44.1934V39.7587H32.3867V44.2152C32.3867 46.0349 31.308 47.1681 29.1833 47.1681ZM35.2496 47.0591H33.6151V39.7587H35.3585L37.723 43.4198L38.3332 44.4005H38.4422L38.4204 43.4198V39.7587H40.0548V47.0591H38.3114L36.045 43.605L35.3367 42.4827H35.2278L35.2496 43.605V47.0591ZM42.9587 47.0591H41.3242V39.7587H44.6803C46.4237 39.7587 47.3934 40.565 47.3934 41.9815C47.3934 43.1692 46.805 43.8774 45.552 43.9864V44.0954C46.1839 44.2915 46.489 44.6729 46.7723 45.2286L47.6985 47.0591H45.7917L44.9309 45.3702C44.604 44.7382 44.3861 44.4658 43.6124 44.4658H42.9587V47.0591ZM42.9587 41.2297V43.1147H44.7565C45.5193 43.1147 45.7699 42.8859 45.7699 42.1667C45.7699 41.4694 45.5193 41.2297 44.7565 41.2297H42.9587ZM50.0187 47.0591H48.3842V39.7587H50.0187V47.0591ZM54.326 47.1681C52.1794 47.1681 51.1879 46.2964 51.1879 44.6838V44.5421H52.7896V44.6511C52.7896 45.4574 53.0838 45.6862 54.4023 45.6862C55.3284 45.6862 55.5573 45.501 55.5573 45.0106C55.5573 44.5203 55.4483 44.346 54.424 44.1716L53.1383 43.9428C51.7436 43.7031 51.1552 42.9948 51.1552 41.8616C51.1552 40.7502 51.9724 39.6497 54.0645 39.6497C56.1457 39.6497 57.0174 40.7284 57.0174 42.1776V42.2648H55.4047V42.1449C55.4047 41.3822 55.0887 41.1316 54.01 41.1316C53.0729 41.1316 52.7787 41.3386 52.7787 41.7963C52.7787 42.2648 52.9748 42.3738 53.8248 42.5372L55.1214 42.7878C56.6578 43.082 57.1808 43.8883 57.1808 44.9562C57.1808 46.1221 56.3963 47.1681 54.326 47.1681ZM63.6243 47.0591H58.0563V39.7587H63.6243V41.2297H59.6908V42.6571H63.4609V44.1172H59.6908V45.5882H63.6243V47.0591Z" fill="#FF0E0E" fill-opacity="0.2"/>
<path d="M15.1894 58.4014H13.555V51.1009H19.0358V52.5719H15.1894V54.2391H18.8723V55.6992H15.1894V58.4014ZM25.413 58.4014H20.0084V51.1009H21.6429V56.9304H25.413V58.4014ZM28.64 58.4014H27.0055V55.7645L24.1616 51.1009H26.014L27.1581 53.0187L27.7901 54.0974H27.899L28.5201 53.0187L29.6642 51.1009H31.4839L28.64 55.7645V58.4014ZM35.6776 58.4014H33.2804L31.8094 51.1009H33.7054L34.2611 54.3916L34.5226 56.7997H34.6424L35.0892 54.3916L35.95 51.1009H38.2709L39.1317 54.3698L39.5893 56.7997H39.7092L39.9707 54.3698L40.5264 51.1009H42.3788L40.9078 58.4014H38.5215L37.6389 55.1652L37.1486 52.8552H37.0396L36.5493 55.1652L35.6776 58.4014ZM44.6531 58.4014H43.0187V51.1009H44.6531V53.9993H47.8348V51.1009H49.4692V58.4014H47.8348V55.4594H44.6531V58.4014ZM56.3064 58.4014H50.7384V51.1009H56.3064V52.5719H52.3728V53.9993H56.1429V55.4594H52.3728V56.9304H56.3064V58.4014ZM62.9514 58.4014H57.3834V51.1009H62.9514V52.5719H59.0178V53.9993H62.7879V55.4594H59.0178V56.9304H62.9514V58.4014ZM69.4329 58.4014H64.0284V51.1009H65.6628V56.9304H69.4329V58.4014Z" fill="url(#paint1_linear_634_1883)"/>
<path d="M15.1894 58.4014H13.555V51.1009H19.0358V52.5719H15.1894V54.2391H18.8723V55.6992H15.1894V58.4014ZM25.413 58.4014H20.0084V51.1009H21.6429V56.9304H25.413V58.4014ZM28.64 58.4014H27.0055V55.7645L24.1616 51.1009H26.014L27.1581 53.0187L27.7901 54.0974H27.899L28.5201 53.0187L29.6642 51.1009H31.4839L28.64 55.7645V58.4014ZM35.6776 58.4014H33.2804L31.8094 51.1009H33.7054L34.2611 54.3916L34.5226 56.7997H34.6424L35.0892 54.3916L35.95 51.1009H38.2709L39.1317 54.3698L39.5893 56.7997H39.7092L39.9707 54.3698L40.5264 51.1009H42.3788L40.9078 58.4014H38.5215L37.6389 55.1652L37.1486 52.8552H37.0396L36.5493 55.1652L35.6776 58.4014ZM44.6531 58.4014H43.0187V51.1009H44.6531V53.9993H47.8348V51.1009H49.4692V58.4014H47.8348V55.4594H44.6531V58.4014ZM56.3064 58.4014H50.7384V51.1009H56.3064V52.5719H52.3728V53.9993H56.1429V55.4594H52.3728V56.9304H56.3064V58.4014ZM62.9514 58.4014H57.3834V51.1009H62.9514V52.5719H59.0178V53.9993H62.7879V55.4594H59.0178V56.9304H62.9514V58.4014ZM69.4329 58.4014H64.0284V51.1009H65.6628V56.9304H69.4329V58.4014Z" fill="#FF0E0E" fill-opacity="0.2"/>
<path fill-rule="evenodd" clip-rule="evenodd" d="M47.346 33.167C48.0006 32.5202 48.5487 31.7643 48.9605 30.9292C48.5903 30.8084 48.2305 30.6733 47.8876 30.5291C45.9732 29.7225 43.808 29.5641 41.878 30.2408C38.3036 31.4928 35.68 31.3656 33.9382 30.7148C34.4915 31.9267 35.3293 32.9813 36.3644 33.7957C37.5658 33.7554 39.0088 33.4969 40.7181 32.8969C42.8794 32.1397 45.2614 32.315 47.346 33.1683V33.167ZM46.5472 33.8645C44.764 33.2346 42.8079 33.1553 41.0467 33.7736C39.7933 34.2126 38.6556 34.4827 37.6334 34.6191C38.788 35.227 40.1038 35.5712 41.5 35.5712C43.3976 35.5712 45.1471 34.9347 46.5472 33.8645ZM48.2721 29.6745C48.6176 29.82 48.9709 29.9511 49.3267 30.0641C49.6411 29.1874 49.8125 28.2432 49.8125 27.2587H33.1875C33.1875 28.0198 33.2901 28.7562 33.481 29.4563C34.8422 30.2745 37.4152 30.8136 41.5507 29.3641C43.7444 28.5952 46.1654 28.7874 48.2721 29.6745Z" fill="#6495ED"/>
<path fill-rule="evenodd" clip-rule="evenodd" d="M33.1875 27.2587C33.1875 22.6673 36.9086 18.9462 41.5 18.9462C46.0914 18.9462 49.8125 22.6673 49.8125 27.2587H45.9888C45.9888 24.7792 43.9795 22.7699 41.5 22.7699C39.0205 22.7699 37.0113 24.7792 37.0113 27.2587H33.1875Z" fill="#EDBC64"/>
<defs>
<linearGradient id="paint0_linear_634_1883" x1="18.3953" y1="43.5971" x2="64.3953" y2="43.5971" gradientUnits="userSpaceOnUse">
<stop stop-color="#FF9500"/>
<stop offset="1" stop-color="#FFC400"/>
</linearGradient>
<linearGradient id="paint1_linear_634_1883" x1="12.9101" y1="54.9394" x2="69.9101" y2="54.9394" gradientUnits="userSpaceOnUse">
<stop stop-color="#FF9500"/>
<stop offset="1" stop-color="#FFC400"/>
</linearGradient>
</defs>
</svg>
