<svg width="162" height="46" viewBox="0 0 162 46" fill="none" xmlns="http://www.w3.org/2000/svg">
<path fill-rule="evenodd" clip-rule="evenodd" d="M38.8238 38.6176C40.5957 36.8668 42.0793 34.8207 43.1937 32.5602C42.1918 32.2332 41.218 31.8676 40.2898 31.4773C35.1078 29.2941 29.2473 28.8652 24.023 30.6969C14.348 34.0859 7.24648 33.7414 2.53203 31.9801C4.02969 35.2602 6.29727 38.1148 9.09922 40.3191C12.3512 40.2102 16.257 39.5105 20.8836 37.8863C26.7336 35.8367 33.1812 36.3113 38.8238 38.6211V38.6176ZM36.6617 40.5055C31.8348 38.8004 26.5402 38.5859 21.773 40.2594C18.3805 41.4477 15.3008 42.1789 12.534 42.548C15.6594 44.1934 19.2207 45.125 23 45.125C28.1363 45.125 32.8719 43.4023 36.6617 40.5055ZM41.3305 29.1641C42.2656 29.5578 43.2219 29.9129 44.1852 30.2188C45.0359 27.8457 45.5 25.2898 45.5 22.625H0.5C0.5 24.6852 0.777735 26.6785 1.29453 28.5734C4.97891 30.7883 11.9434 32.2473 23.1371 28.3238C29.075 26.2426 35.6281 26.7629 41.3305 29.1641Z" fill="#6495ED"/>
<path fill-rule="evenodd" clip-rule="evenodd" d="M0.5 22.625C0.5 10.1973 10.5723 0.125 23 0.125C35.4277 0.125 45.5 10.1973 45.5 22.625H35.15C35.15 15.9137 29.7113 10.475 23 10.475C16.2887 10.475 10.85 15.9137 10.85 22.625H0.5Z" fill="#EDBC64"/>
<g clip-path="url(#clip0_645_1307)">
<path d="M161.09 12.7109V14.5138H151.811V20.3192H158.831V22.122H151.811V29.0452H161.259V30.8481H149.672V12.7109H161.09Z" fill="#183973"/>
<path d="M145.039 16.7012L142.899 17.3382C142.282 15.1987 141 14.129 139.053 14.129C137.851 14.129 136.922 14.4295 136.264 15.0305C135.696 15.5513 135.411 16.2284 135.411 17.0617C135.411 18.0713 135.724 18.8326 136.349 19.3454C136.901 19.8021 137.847 20.1988 139.185 20.5353L139.967 20.7637C142.178 21.3246 143.677 22.0698 144.462 22.9993C145.079 23.7365 145.387 24.7461 145.387 26.0281C145.387 27.7108 144.778 29.0169 143.56 29.9464C142.455 30.7798 140.98 31.1964 139.137 31.1964C137.334 31.1964 135.86 30.7597 134.714 29.8863C133.704 29.1171 132.995 28.0354 132.586 26.6411L134.702 25.8959C135.006 27.1299 135.599 28.0594 136.481 28.6844C137.218 29.1972 138.087 29.4537 139.089 29.4537C140.539 29.4537 141.621 29.1171 142.334 28.444C142.911 27.8991 143.2 27.174 143.2 26.2685C143.2 25.2349 142.899 24.4656 142.298 23.9608C141.713 23.456 140.66 23.0033 139.137 22.6026L138.416 22.3863C136.372 21.8334 134.97 21.1082 134.209 20.2108C133.584 19.4656 133.272 18.448 133.272 17.1579C133.272 15.7236 133.825 14.5577 134.93 13.6603C135.972 12.8109 137.33 12.3862 139.005 12.3862C142.098 12.3862 144.109 13.8245 145.039 16.7012Z" fill="#183973"/>
<path d="M128.554 12.7109V30.8481H126.415V12.7109H128.554Z" fill="#183973"/>
<path d="M109.655 12.7109H115.761C119.911 12.7109 121.986 14.2935 121.986 17.4586C121.986 18.6845 121.622 19.7022 120.892 20.5115C120.227 21.2566 119.31 21.7615 118.14 22.0259L122.479 30.8481H120.111L116.121 22.3744H111.746V30.8481H109.655V12.7109ZM111.746 14.4297V20.7038H115.484C118.361 20.7038 119.799 19.63 119.799 17.4826C119.799 16.3929 119.438 15.6036 118.717 15.1148C118.044 14.6581 117.018 14.4297 115.64 14.4297H111.746Z" fill="#183973"/>
<path d="M104.24 12.7109V30.8481H101.512L95.8268 19.8745C95.7386 19.7062 94.8772 17.9434 93.2426 14.5859H92.87C92.87 15.0026 92.89 16.0403 92.9301 17.6989C92.9541 18.7727 92.9661 19.6782 92.9661 20.4153V30.8481H90.9709V12.7109H94.3003L99.4926 22.8792C99.9253 23.7126 100.402 24.7022 100.923 25.848C101.54 27.2102 101.917 28.0316 102.053 28.312H102.437C102.309 24.8584 102.245 22.8752 102.245 22.3625V12.7109H104.24Z" fill="#183973"/>
<path d="M85.6043 12.7109V24.7904C85.6043 27.0339 84.9032 28.7166 83.5009 29.8384C82.3631 30.7439 80.8807 31.1966 79.0538 31.1966C76.9224 31.1966 75.2757 30.6077 74.1138 29.4298C73.0241 28.324 72.4792 26.7776 72.4792 24.7904V12.7109H74.6187V24.7182C74.6187 27.8512 76.1131 29.4177 79.1019 29.4177C82.0907 29.4177 83.585 27.8512 83.585 24.7182V12.7109H85.6043Z" fill="#183973"/>
<path d="M67.8941 16.7012L65.7547 17.3382C65.1377 15.1987 63.8556 14.129 61.9085 14.129C60.7066 14.129 59.7771 14.4295 59.12 15.0305C58.5511 15.5513 58.2667 16.2284 58.2667 17.0617C58.2667 18.0713 58.5792 18.8326 59.2042 19.3454C59.7571 19.8021 60.7026 20.1988 62.0407 20.5353L62.822 20.7637C65.0335 21.3246 66.532 22.0698 67.3172 22.9993C67.9342 23.7365 68.2427 24.7461 68.2427 26.0281C68.2427 27.7108 67.6337 29.0169 66.4158 29.9464C65.31 30.7798 63.8356 31.1964 61.9927 31.1964C60.1898 31.1964 58.7154 30.7597 57.5696 29.8863C56.5599 29.1171 55.8508 28.0354 55.4421 26.6411L57.5575 25.8959C57.862 27.1299 58.455 28.0594 59.3364 28.6844C60.0736 29.1972 60.943 29.4537 61.9446 29.4537C63.3949 29.4537 64.4766 29.1171 65.1898 28.444C65.7667 27.8991 66.0552 27.174 66.0552 26.2685C66.0552 25.2349 65.7547 24.4656 65.1537 23.9608C64.5688 23.456 63.5151 23.0033 61.9927 22.6026L61.2715 22.3863C59.2282 21.8334 57.826 21.1082 57.0647 20.2108C56.4397 19.4656 56.1272 18.448 56.1272 17.1579C56.1272 15.7236 56.6801 14.5577 57.7859 13.6603C58.8276 12.8109 60.1858 12.3862 61.8605 12.3862C64.9534 12.3862 66.9646 13.8245 67.8941 16.7012Z" fill="#183973"/>
</g>
<defs>
<clipPath id="clip0_645_1307">
<rect width="106.339" height="19.1298" fill="white" transform="translate(55.1609 12.2266)"/>
</clipPath>
</defs>
</svg>
