<svg xmlns="http://www.w3.org/2000/svg" width="51" height="50" viewBox="0 0 51 50" fill="none">
  <path fill-rule="evenodd" clip-rule="evenodd" d="M25.7148 0C11.9077 0 0.714844 11.1929 0.714844 25C0.714844 28.6996 1.51843 32.2114 2.96058 35.3706C7.39412 37.1921 14.8047 37.7873 25.7944 33.4096C32.2892 30.8224 39.5879 31.094 46.0328 33.493C46.9667 33.8407 47.9172 34.1566 48.8754 34.4296C50.0614 31.5197 50.7148 28.3362 50.7148 25C50.7148 11.1929 39.522 0 25.7148 0ZM39.2148 25C39.2148 17.5442 33.1707 11.5 25.7148 11.5C18.259 11.5 12.2148 17.5442 12.2148 25H39.2148ZM47.6507 37.0022C46.3505 39.3734 44.6771 41.5108 42.7095 43.3354C36.901 41.3791 30.4876 41.148 24.6154 43.2063C19.6873 44.9337 15.4967 45.7221 11.9783 45.8913C9.20356 44.0632 6.81462 41.697 4.95996 38.9414C10.1971 40.1231 17.4827 39.7492 26.8911 36.0014C32.606 33.7249 39.1307 33.9303 44.9858 36.1098C45.8443 36.4294 46.7355 36.7309 47.6507 37.0022ZM25.6025 45.8419C30.2223 44.2226 35.2884 44.1951 40.0669 45.4725C36.005 48.3253 31.0555 50 25.7148 50C22.4379 50 19.3083 49.3695 16.4406 48.2233C19.2248 47.776 22.2767 47.0076 25.6025 45.8419Z" fill="black"/>
</svg>