<svg width="45" height="45" viewBox="0 0 45 45" fill="none" xmlns="http://www.w3.org/2000/svg">
<path fill-rule="evenodd" clip-rule="evenodd" d="M38.3238 38.4926C40.0957 36.7418 41.5793 34.6957 42.6937 32.4352C41.6918 32.1082 40.718 31.7426 39.7898 31.3523C34.6078 29.1691 28.7473 28.7402 23.523 30.5719C13.848 33.9609 6.74648 33.6164 2.03203 31.8551C3.52969 35.1352 5.79727 37.9898 8.59922 40.1941C11.8512 40.0852 15.757 39.3855 20.3836 37.7613C26.2336 35.7117 32.6812 36.1863 38.3238 38.4961V38.4926ZM36.1617 40.3805C31.3348 38.6754 26.0402 38.4609 21.273 40.1344C17.8805 41.3227 14.8008 42.0539 12.034 42.423C15.1594 44.0684 18.7207 45 22.5 45C27.6363 45 32.3719 43.2773 36.1617 40.3805ZM40.8305 29.0391C41.7656 29.4328 42.7219 29.7879 43.6852 30.0938C44.5359 27.7207 45 25.1648 45 22.5H0C0 24.5602 0.277735 26.5535 0.794531 28.4484C4.47891 30.6633 11.4434 32.1223 22.6371 28.1988C28.575 26.1176 35.1281 26.6379 40.8305 29.0391Z" fill="#6495ED"/>
<path fill-rule="evenodd" clip-rule="evenodd" d="M0 22.5C0 10.0723 10.0723 0 22.5 0C34.9277 0 45 10.0723 45 22.5H34.65C34.65 15.7887 29.2113 10.35 22.5 10.35C15.7887 10.35 10.35 15.7887 10.35 22.5H0Z" fill="#EDBC64"/>
</svg>
