<svg width="393" height="950" viewBox="0 0 393 950" fill="none" xmlns="http://www.w3.org/2000/svg">
<g opacity="0.12" filter="url(#filter0_f_1701_952)">
<circle cx="196" cy="392" r="288" fill="#EDBC64"/>
</g>
<g filter="url(#filter1_d_1701_952)">
<circle cx="196" cy="392" r="288" fill="url(#paint0_radial_1701_952)" shape-rendering="crispEdges"/>
<circle cx="196" cy="392" r="286.4" stroke="url(#paint1_linear_1701_952)" stroke-width="3.2" shape-rendering="crispEdges"/>
</g>
<g filter="url(#filter2_f_1701_952)">
<circle cx="196" cy="392" r="286.4" stroke="url(#paint2_radial_1701_952)" stroke-width="3.2"/>
</g>
<g filter="url(#filter3_f_1701_952)">
<circle cx="196" cy="392" r="286.4" stroke="url(#paint3_radial_1701_952)" stroke-width="3.2"/>
</g>
<g opacity="0.9" filter="url(#filter4_f_1701_952)">
<circle cx="196" cy="392" r="286.4" stroke="url(#paint4_radial_1701_952)" stroke-width="3.2"/>
</g>
<path d="M351.92 393.4H352.12V393.2C352.12 307.199 282.403 237.48 196.4 237.48C110.399 237.48 40.68 307.199 40.68 393.2V393.4H40.88H351.92ZM-91.3996 393.2C-91.3996 234.253 37.4527 105.4 196.4 105.4C355.349 105.4 484.2 234.253 484.2 393.2C484.2 431.543 476.703 468.134 463.093 501.588C452.118 498.456 441.232 494.835 430.533 490.852C356.248 463.201 272.116 460.068 197.243 489.893C70.736 540.286 -14.5574 533.45 -65.5796 512.515C-82.1609 476.165 -91.3996 435.762 -91.3996 393.2ZM418.333 521.373C428.152 525.028 438.343 528.478 448.807 531.587C433.876 558.762 414.684 583.265 392.13 604.197C325.21 581.683 251.326 579.033 183.669 602.748C126.943 622.632 78.7075 631.71 38.211 633.665C6.43142 612.717 -20.9499 585.637 -42.2487 554.111C18.0954 567.601 101.906 563.191 210.025 520.122C275.809 493.918 350.921 496.28 418.333 521.373ZM195.173 633.488C248.217 614.895 306.377 614.532 361.27 629.126C314.576 661.818 257.729 681 196.4 681C158.932 681 123.137 673.84 90.3079 660.815C122.202 655.643 157.134 646.82 195.173 633.488Z" fill="url(#paint5_radial_1701_952)"/>
<path d="M351.92 393.4H352.12V393.2C352.12 307.199 282.403 237.48 196.4 237.48C110.399 237.48 40.68 307.199 40.68 393.2V393.4H40.88H351.92ZM-91.3996 393.2C-91.3996 234.253 37.4527 105.4 196.4 105.4C355.349 105.4 484.2 234.253 484.2 393.2C484.2 431.543 476.703 468.134 463.093 501.588C452.118 498.456 441.232 494.835 430.533 490.852C356.248 463.201 272.116 460.068 197.243 489.893C70.736 540.286 -14.5574 533.45 -65.5796 512.515C-82.1609 476.165 -91.3996 435.762 -91.3996 393.2ZM418.333 521.373C428.152 525.028 438.343 528.478 448.807 531.587C433.876 558.762 414.684 583.265 392.13 604.197C325.21 581.683 251.326 579.033 183.669 602.748C126.943 622.632 78.7075 631.71 38.211 633.665C6.43142 612.717 -20.9499 585.637 -42.2487 554.111C18.0954 567.601 101.906 563.191 210.025 520.122C275.809 493.918 350.921 496.28 418.333 521.373ZM195.173 633.488C248.217 614.895 306.377 614.532 361.27 629.126C314.576 661.818 257.729 681 196.4 681C158.932 681 123.137 673.84 90.3079 660.815C122.202 655.643 157.134 646.82 195.173 633.488Z" fill="url(#paint6_radial_1701_952)" fill-opacity="0.45"/>
<path d="M351.92 393.4H352.12V393.2C352.12 307.199 282.403 237.48 196.4 237.48C110.399 237.48 40.68 307.199 40.68 393.2V393.4H40.88H351.92ZM-91.3996 393.2C-91.3996 234.253 37.4527 105.4 196.4 105.4C355.349 105.4 484.2 234.253 484.2 393.2C484.2 431.543 476.703 468.134 463.093 501.588C452.118 498.456 441.232 494.835 430.533 490.852C356.248 463.201 272.116 460.068 197.243 489.893C70.736 540.286 -14.5574 533.45 -65.5796 512.515C-82.1609 476.165 -91.3996 435.762 -91.3996 393.2ZM418.333 521.373C428.152 525.028 438.343 528.478 448.807 531.587C433.876 558.762 414.684 583.265 392.13 604.197C325.21 581.683 251.326 579.033 183.669 602.748C126.943 622.632 78.7075 631.71 38.211 633.665C6.43142 612.717 -20.9499 585.637 -42.2487 554.111C18.0954 567.601 101.906 563.191 210.025 520.122C275.809 493.918 350.921 496.28 418.333 521.373ZM195.173 633.488C248.217 614.895 306.377 614.532 361.27 629.126C314.576 661.818 257.729 681 196.4 681C158.932 681 123.137 673.84 90.3079 660.815C122.202 655.643 157.134 646.82 195.173 633.488Z" stroke="url(#paint7_linear_1701_952)" stroke-width="0.4"/>
<defs>
<filter id="filter0_f_1701_952" x="-361.04" y="-165.04" width="1114.08" height="1114.08" filterUnits="userSpaceOnUse" color-interpolation-filters="sRGB">
<feFlood flood-opacity="0" result="BackgroundImageFix"/>
<feBlend mode="normal" in="SourceGraphic" in2="BackgroundImageFix" result="shape"/>
<feGaussianBlur stdDeviation="134.52" result="effect1_foregroundBlur_1701_952"/>
</filter>
<filter id="filter1_d_1701_952" x="-93.6" y="104" width="579.2" height="579.2" filterUnits="userSpaceOnUse" color-interpolation-filters="sRGB">
<feFlood flood-opacity="0" result="BackgroundImageFix"/>
<feColorMatrix in="SourceAlpha" type="matrix" values="0 0 0 0 0 0 0 0 0 0 0 0 0 0 0 0 0 0 127 0" result="hardAlpha"/>
<feOffset dy="1.6"/>
<feGaussianBlur stdDeviation="0.8"/>
<feComposite in2="hardAlpha" operator="out"/>
<feColorMatrix type="matrix" values="0 0 0 0 0 0 0 0 0 0 0 0 0 0 0 0 0 0 0.25 0"/>
<feBlend mode="normal" in2="BackgroundImageFix" result="effect1_dropShadow_1701_952"/>
<feBlend mode="normal" in="SourceGraphic" in2="effect1_dropShadow_1701_952" result="shape"/>
</filter>
<filter id="filter2_f_1701_952" x="-104.08" y="91.92" width="600.16" height="600.16" filterUnits="userSpaceOnUse" color-interpolation-filters="sRGB">
<feFlood flood-opacity="0" result="BackgroundImageFix"/>
<feBlend mode="normal" in="SourceGraphic" in2="BackgroundImageFix" result="shape"/>
<feGaussianBlur stdDeviation="6.04" result="effect1_foregroundBlur_1701_952"/>
</filter>
<filter id="filter3_f_1701_952" x="-104.8" y="91.2" width="601.6" height="601.6" filterUnits="userSpaceOnUse" color-interpolation-filters="sRGB">
<feFlood flood-opacity="0" result="BackgroundImageFix"/>
<feBlend mode="normal" in="SourceGraphic" in2="BackgroundImageFix" result="shape"/>
<feGaussianBlur stdDeviation="6.4" result="effect1_foregroundBlur_1701_952"/>
</filter>
<filter id="filter4_f_1701_952" x="-104.8" y="91.2" width="601.6" height="601.6" filterUnits="userSpaceOnUse" color-interpolation-filters="sRGB">
<feFlood flood-opacity="0" result="BackgroundImageFix"/>
<feBlend mode="normal" in="SourceGraphic" in2="BackgroundImageFix" result="shape"/>
<feGaussianBlur stdDeviation="6.4" result="effect1_foregroundBlur_1701_952"/>
</filter>
<radialGradient id="paint0_radial_1701_952" cx="0" cy="0" r="1" gradientUnits="userSpaceOnUse" gradientTransform="translate(196 104) rotate(90) scale(152.9)">
<stop stop-color="#EDBC64" stop-opacity="0.12"/>
<stop offset="1" stop-color="#EDBC64" stop-opacity="0"/>
</radialGradient>
<linearGradient id="paint1_linear_1701_952" x1="196" y1="104" x2="196" y2="229.538" gradientUnits="userSpaceOnUse">
<stop stop-color="#EDBC64" stop-opacity="0.55"/>
<stop offset="0.88" stop-color="#EDBC64" stop-opacity="0"/>
<stop offset="0.8801" stop-color="#EDBC64" stop-opacity="0.05"/>
</linearGradient>
<radialGradient id="paint2_radial_1701_952" cx="0" cy="0" r="1" gradientUnits="userSpaceOnUse" gradientTransform="translate(196 104) rotate(90) scale(70.3482 72.3498)">
<stop stop-color="#EDBC64"/>
<stop offset="1" stop-color="#EDBC64" stop-opacity="0"/>
</radialGradient>
<radialGradient id="paint3_radial_1701_952" cx="0" cy="0" r="1" gradientUnits="userSpaceOnUse" gradientTransform="translate(196 104) rotate(90) scale(244.664 251.625)">
<stop stop-color="#FBC25B"/>
<stop offset="1" stop-color="#EDBC64" stop-opacity="0"/>
</radialGradient>
<radialGradient id="paint4_radial_1701_952" cx="0" cy="0" r="1" gradientUnits="userSpaceOnUse" gradientTransform="translate(196 104) rotate(90) scale(244.664 251.625)">
<stop stop-color="#FBC25B"/>
<stop offset="1" stop-color="#EDBC64" stop-opacity="0"/>
</radialGradient>
<radialGradient id="paint5_radial_1701_952" cx="0" cy="0" r="1" gradientUnits="userSpaceOnUse" gradientTransform="translate(196.064 105.581) rotate(90) scale(546.423)">
<stop stop-color="white" stop-opacity="0.05"/>
<stop offset="1" stop-color="white" stop-opacity="0"/>
</radialGradient>
<radialGradient id="paint6_radial_1701_952" cx="0" cy="0" r="1" gradientUnits="userSpaceOnUse" gradientTransform="translate(196.445 31.4859) rotate(90) scale(361.714)">
<stop offset="0.145002" stop-color="#EDBC64"/>
<stop offset="1" stop-color="#EDBC64" stop-opacity="0"/>
</radialGradient>
<linearGradient id="paint7_linear_1701_952" x1="196.064" y1="105.581" x2="196.064" y2="618.121" gradientUnits="userSpaceOnUse">
<stop stop-color="white" stop-opacity="0.5"/>
<stop offset="1" stop-color="white" stop-opacity="0"/>
</linearGradient>
</defs>
</svg>
