<svg width="178" height="165" viewBox="0 0 178 165" fill="none" xmlns="http://www.w3.org/2000/svg">
<path opacity="0.1" d="M3.15395 101.921C3.98232 102.542 4.92494 102.994 5.928 103.251C6.93107 103.508 7.97492 103.565 8.99997 103.419C10.025 103.272 11.0112 102.925 11.9022 102.398C12.7932 101.87 13.5715 101.173 14.1928 100.344C18.9667 93.9802 25.1571 88.8148 32.2737 85.2572C39.3903 81.6995 47.2376 79.8473 55.1942 79.8473C63.1507 79.8473 70.998 81.6995 78.1146 85.2572C85.2312 88.8148 91.4216 93.9802 96.1955 100.344C97.4517 102.016 99.3203 103.119 101.39 103.413C103.461 103.707 105.563 103.167 107.234 101.911C107.83 101.468 108.358 100.94 108.801 100.344C113.575 93.9802 119.766 88.8148 126.882 85.2572C133.999 81.6995 141.846 79.8473 149.803 79.8473C157.759 79.8473 165.607 81.6995 172.723 85.2572C179.84 88.8148 186.03 93.9802 190.804 100.344C192.06 102.017 193.929 103.122 196.001 103.417C198.072 103.712 200.175 103.172 201.848 101.916C203.521 100.66 204.626 98.7915 204.921 96.7208C205.216 94.65 204.676 92.547 203.42 90.8743C196.441 81.5193 187.134 74.1538 176.424 69.5101C182.295 64.1507 186.409 57.1419 188.225 49.4033C190.04 41.6648 189.474 33.5581 186.599 26.1473C183.724 18.7365 178.676 12.3677 172.116 7.87687C165.557 3.38602 157.792 0.98291 149.842 0.98291C141.892 0.98291 134.128 3.38602 127.568 7.87687C121.009 12.3677 115.96 18.7365 113.085 26.1473C110.211 33.5581 109.644 41.6648 111.46 49.4033C113.276 57.1419 117.389 64.1507 123.26 69.5101C115.528 72.8532 108.503 77.6391 102.563 83.6117C96.622 77.6391 89.5974 72.8532 81.8648 69.5101C87.7359 64.1507 91.8493 57.1419 93.6651 49.4033C95.481 41.6648 94.9144 33.5581 92.0397 26.1473C89.165 18.7365 84.1166 12.3677 77.5569 7.87687C70.9973 3.38602 63.2329 0.98291 55.2829 0.98291C47.3328 0.98291 39.5684 3.38602 33.0088 7.87687C26.4492 12.3677 21.4007 18.7365 18.5261 26.1473C15.6514 33.5581 15.0848 41.6648 16.9006 49.4033C18.7164 57.1419 22.8298 64.1507 28.701 69.5101C17.9445 74.1386 8.59157 81.5089 1.57698 90.8842C0.955702 91.7124 0.503669 92.6549 0.246688 93.6578C-0.0102923 94.6606 -0.0671882 95.7043 0.0792475 96.7292C0.225683 97.754 0.572584 98.74 1.10014 99.6309C1.6277 100.522 2.32559 101.3 3.15395 101.921ZM149.813 16.7795C154.491 16.7795 159.065 18.1666 162.955 20.7654C166.844 23.3641 169.876 27.0578 171.667 31.3793C173.457 35.7009 173.926 40.4562 173.013 45.0439C172.1 49.6317 169.847 53.8458 166.539 57.1533C163.231 60.4609 159.016 62.7134 154.428 63.626C149.839 64.5385 145.083 64.0702 140.76 62.2801C136.438 60.4901 132.744 57.4587 130.145 53.5694C127.545 49.6801 126.158 45.1076 126.158 40.43C126.158 34.1575 128.65 28.1419 133.086 23.7066C137.522 19.2713 143.539 16.7795 149.813 16.7795ZM55.1942 16.7795C59.8726 16.7795 64.446 18.1666 68.336 20.7654C72.226 23.3641 75.2578 27.0578 77.0482 31.3793C78.8386 35.7009 79.307 40.4562 78.3943 45.0439C77.4816 49.6317 75.2287 53.8458 71.9205 57.1533C68.6124 60.4609 64.3975 62.7134 59.8089 63.626C55.2204 64.5385 50.4642 64.0702 46.1419 62.2801C41.8196 60.4901 38.1253 57.4587 35.526 53.5694C32.9268 49.6801 31.5395 45.1076 31.5395 40.43C31.5395 34.1575 34.0317 28.1419 38.4678 23.7066C42.9039 19.2713 48.9206 16.7795 55.1942 16.7795ZM176.424 171.995C182.295 166.636 186.409 159.627 188.225 151.888C190.04 144.15 189.474 136.043 186.599 128.632C183.724 121.222 178.676 114.853 172.116 110.362C165.557 105.871 157.792 103.468 149.842 103.468C141.892 103.468 134.128 105.871 127.568 110.362C121.009 114.853 115.96 121.222 113.085 128.632C110.211 136.043 109.644 144.15 111.46 151.888C113.276 159.627 117.389 166.636 123.26 171.995C115.528 175.338 108.503 180.124 102.563 186.097C96.622 180.124 89.5974 175.338 81.8648 171.995C87.7359 166.636 91.8493 159.627 93.6651 151.888C95.481 144.15 94.9144 136.043 92.0397 128.632C89.165 121.222 84.1166 114.853 77.5569 110.362C70.9973 105.871 63.2329 103.468 55.2829 103.468C47.3328 103.468 39.5684 105.871 33.0088 110.362C26.4492 114.853 21.4007 121.222 18.5261 128.632C15.6514 136.043 15.0848 144.15 16.9006 151.888C18.7164 159.627 22.8298 166.636 28.701 171.995C17.9445 176.624 8.59157 183.994 1.57698 193.369C0.955702 194.198 0.503669 195.14 0.246688 196.143C-0.0102923 197.146 -0.0671882 198.189 0.0792475 199.214C0.225683 200.239 0.572584 201.225 1.10014 202.116C1.6277 203.007 2.32559 203.785 3.15395 204.406C3.98232 205.027 4.92494 205.479 5.928 205.736C6.93107 205.993 7.97492 206.05 8.99997 205.904C10.025 205.757 11.0112 205.41 11.9022 204.883C12.7932 204.355 13.5715 203.658 14.1928 202.83C18.9667 196.465 25.1571 191.3 32.2737 187.742C39.3903 184.185 47.2376 182.332 55.1942 182.332C63.1507 182.332 70.998 184.185 78.1146 187.742C85.2312 191.3 91.4216 196.465 96.1955 202.83C97.4517 204.501 99.3203 205.605 101.39 205.898C103.461 206.192 105.563 205.652 107.234 204.396C107.83 203.953 108.358 203.425 108.801 202.83C113.575 196.465 119.766 191.3 126.882 187.742C133.999 184.185 141.846 182.332 149.803 182.332C157.759 182.332 165.607 184.185 172.723 187.742C179.84 191.3 186.03 196.465 190.804 202.83C192.06 204.502 193.929 205.607 196.001 205.902C198.072 206.197 200.175 205.657 201.848 204.401C203.521 203.145 204.626 201.277 204.921 199.206C205.216 197.135 204.676 195.032 203.42 193.359C196.441 184.004 187.134 176.639 176.424 171.995ZM55.1942 119.265C59.8726 119.265 64.446 120.652 68.336 123.251C72.226 125.849 75.2578 129.543 77.0482 133.864C78.8386 138.186 79.307 142.941 78.3943 147.529C77.4816 152.117 75.2287 156.331 71.9205 159.638C68.6124 162.946 64.3975 165.199 59.8089 166.111C55.2204 167.024 50.4642 166.555 46.1419 164.765C41.8196 162.975 38.1253 159.944 35.526 156.055C32.9268 152.165 31.5395 147.593 31.5395 142.915C31.5395 136.643 34.0317 130.627 38.4678 126.192C42.9039 121.756 48.9206 119.265 55.1942 119.265ZM149.813 119.265C154.491 119.265 159.065 120.652 162.955 123.251C166.844 125.849 169.876 129.543 171.667 133.864C173.457 138.186 173.926 142.941 173.013 147.529C172.1 152.117 169.847 156.331 166.539 159.638C163.231 162.946 159.016 165.199 154.428 166.111C149.839 167.024 145.083 166.555 140.76 164.765C136.438 162.975 132.744 159.944 130.145 156.055C127.545 152.165 126.158 147.593 126.158 142.915C126.158 136.643 128.65 130.627 133.086 126.192C137.522 121.756 143.539 119.265 149.813 119.265Z" fill="url(#paint0_linear_1319_133)"/>
<defs>
<linearGradient id="paint0_linear_1319_133" x1="0" y1="103.483" x2="205" y2="103.483" gradientUnits="userSpaceOnUse">
<stop stop-color="#FF7B04"/>
<stop offset="1" stop-color="#FF9F04"/>
</linearGradient>
</defs>
</svg>
