<svg width="162" height="138" viewBox="0 0 162 138" fill="none" xmlns="http://www.w3.org/2000/svg">
<path opacity="0.1" d="M150.667 43.2301V38.4829C150.667 17.1079 118.354 0.98291 75.5002 0.98291C32.6466 0.98291 0.333496 17.1079 0.333496 38.4829V72.5738C0.333496 90.3778 22.7554 104.526 55.0002 108.761V113.483C55.0002 134.858 87.3133 150.983 130.167 150.983C173.02 150.983 205.333 134.858 205.333 113.483V79.392C205.333 61.75 183.621 47.5852 150.667 43.2301ZM191.667 79.392C191.667 90.659 165.367 103.256 130.167 103.256C126.981 103.256 123.82 103.145 120.703 102.94C139.127 96.2414 150.667 85.3579 150.667 72.5738V57.0113C176.181 60.8039 191.667 71.0994 191.667 79.392ZM55.0002 94.946V74.6704C61.7974 75.5541 68.6454 75.9926 75.5002 75.9829C82.3549 75.9926 89.2029 75.5541 96.0002 74.6704V94.946C89.213 95.9464 82.361 96.445 75.5002 96.4375C68.6393 96.445 61.7873 95.9464 55.0002 94.946ZM137 60.5823V72.5738C137 79.7244 126.4 87.4034 109.667 92.0653V72.1477C120.694 69.4801 130.03 65.5085 137 60.5823ZM75.5002 14.6193C110.7 14.6193 137 27.2159 137 38.4829C137 49.75 110.7 62.3465 75.5002 62.3465C40.3 62.3465 14.0002 49.75 14.0002 38.4829C14.0002 27.2159 40.3 14.6193 75.5002 14.6193ZM14.0002 72.5738V60.5823C20.9702 65.5085 30.3062 69.4801 41.3335 72.1477V92.0653C24.6004 87.4034 14.0002 79.7244 14.0002 72.5738ZM68.6668 113.483V109.929C70.9133 110.014 73.1854 110.074 75.5002 110.074C78.8143 110.074 82.0516 109.963 85.2291 109.776C88.759 111.036 92.3546 112.106 96.0002 112.98V132.974C79.267 128.312 68.6668 120.633 68.6668 113.483ZM109.667 135.855V115.528C116.462 116.44 123.311 116.895 130.167 116.892C137.022 116.902 143.87 116.463 150.667 115.58V135.855C137.073 137.844 123.261 137.844 109.667 135.855ZM164.333 132.974V113.057C175.361 110.389 184.697 106.418 191.667 101.491V113.483C191.667 120.633 181.067 128.312 164.333 132.974Z" fill="url(#paint0_linear_1319_149)"/>
<defs>
<linearGradient id="paint0_linear_1319_149" x1="0.333496" y1="75.9829" x2="205.333" y2="75.9829" gradientUnits="userSpaceOnUse">
<stop stop-color="#FF7B04"/>
<stop offset="1" stop-color="#FF9F04"/>
</linearGradient>
</defs>
</svg>
