<svg width="174" height="196" viewBox="0 0 174 196" fill="none" xmlns="http://www.w3.org/2000/svg">
<path opacity="0.1" d="M103.167 35.1886C82.894 35.1886 63.0766 41.207 46.2206 52.4827C29.3646 63.7584 16.2269 79.785 8.4689 98.5359C0.710916 117.287 -1.31893 137.92 2.63606 157.825C6.59104 177.731 16.3532 196.016 30.6881 210.367C45.023 224.718 63.2867 234.492 83.1698 238.451C103.053 242.411 123.662 240.378 142.392 232.612C161.121 224.845 177.129 211.692 188.392 194.817C199.655 177.941 205.667 158.102 205.667 137.806C205.635 110.6 194.826 84.5166 175.611 65.2789C156.395 46.0411 130.342 35.2197 103.167 35.1886ZM103.167 223.32C86.2727 223.32 69.7583 218.305 55.7116 208.908C41.6649 199.512 30.7168 186.156 24.2518 170.531C17.7869 154.905 16.0953 137.711 19.3911 121.123C22.687 104.535 30.8221 89.2974 42.7678 77.338C54.7136 65.3786 69.9334 57.2342 86.5026 53.9346C103.072 50.635 120.246 52.3285 135.854 58.8009C151.462 65.2732 164.802 76.2338 174.188 90.2966C183.574 104.359 188.583 120.893 188.583 137.806C188.558 160.478 179.55 182.214 163.537 198.245C147.524 214.277 125.813 223.295 103.167 223.32ZM151.918 88.9985C152.712 89.7927 153.342 90.7358 153.772 91.7739C154.202 92.8121 154.423 93.9248 154.423 95.0486C154.423 96.1724 154.202 97.2852 153.772 98.3233C153.342 99.3614 152.712 100.305 151.918 101.099L109.21 143.856C108.416 144.65 107.474 145.281 106.437 145.711C105.4 146.141 104.289 146.362 103.167 146.362C102.044 146.362 100.933 146.141 99.896 145.711C98.8591 145.281 97.9169 144.65 97.1233 143.856C96.3297 143.061 95.7002 142.118 95.2707 141.08C94.8412 140.042 94.6201 138.929 94.6201 137.806C94.6201 136.682 94.8412 135.57 95.2707 134.531C95.7002 133.493 96.3297 132.55 97.1233 131.756L139.832 88.9985C140.625 88.2034 141.567 87.5727 142.604 87.1423C143.641 86.712 144.752 86.4905 145.875 86.4905C146.997 86.4905 148.109 86.712 149.146 87.1423C150.183 87.5727 151.125 88.2034 151.918 88.9985ZM68.9999 9.53434C68.9999 7.26636 69.8998 5.09127 71.5017 3.48757C73.1035 1.88386 75.2761 0.98291 77.5415 0.98291L128.792 0.98291C131.057 0.98291 133.23 1.88386 134.831 3.48757C136.433 5.09127 137.333 7.26636 137.333 9.53434C137.333 11.8023 136.433 13.9774 134.831 15.5811C133.23 17.1848 131.057 18.0858 128.792 18.0858H77.5415C75.2761 18.0858 73.1035 17.1848 71.5017 15.5811C69.8998 13.9774 68.9999 11.8023 68.9999 9.53434Z" fill="url(#paint0_linear_1319_141)"/>
<defs>
<linearGradient id="paint0_linear_1319_141" x1="0.666504" y1="120.703" x2="205.667" y2="120.703" gradientUnits="userSpaceOnUse">
<stop stop-color="#FF7B04"/>
<stop offset="1" stop-color="#FF9F04"/>
</linearGradient>
</defs>
</svg>
