<svg width="500" height="506" viewBox="0 0 500 506" fill="none" xmlns="http://www.w3.org/2000/svg">
<path d="M249.821 135L499.651 279.234L249.825 423.473L0 279.234L249.821 135Z" fill="#FFDB9A" fill-opacity="0.85"/>
<path d="M0.5 360.925V279.1L249.325 422.762V504.587L0.5 360.925Z" fill="#FFD25F" fill-opacity="0.77" stroke="#FFC75F"/>
<path d="M250.325 504.587V423.762L499.151 280.1V360.925L250.325 504.587Z" fill="#E4B051" fill-opacity="0.9" stroke="#FFC75F"/>
<path d="M249.821 0L321.362 41.3038L71.5405 185.538L0 144.234L249.821 0Z" fill="#FF4F4F" fill-opacity="0.7"/>
<path d="M0.5 277.925V145.1L71.0405 185.827V318.652L0.5 277.925Z" fill="#FF4F4F" fill-opacity="0.8" stroke="#FF4F4F"/>
<path d="M72.0361 318.652V185.827L320.861 42.17V174.995L72.0361 318.652Z" fill="#FF4F4F" stroke="#FF4F4F"/>
<path d="M339.13 51.5627L500 144.442L383.971 211.429L223.102 118.551L339.13 51.5627Z" fill="#D39DFF" fill-opacity="0.7"/>
<path d="M223.602 252.241V119.417L383.471 211.718V344.543L223.602 252.241Z" fill="#B65CFF" fill-opacity="0.8" stroke="#A134F9"/>
<path d="M384.472 344.543V211.718L499.5 145.308V278.133L384.472 344.543Z" fill="#A134F9" fill-opacity="0.9" stroke="#A134F9"/>
<path d="M205.333 127.81L276.874 169.113L160.845 236.101L89.3047 194.797L205.333 127.81Z" fill="#58D6A9" fill-opacity="0.7"/>
<path d="M89.8087 328.488L89.8047 195.663L160.345 236.39V369.215L89.8087 328.488Z" fill="#58D6A9" fill-opacity="0.9" stroke="#58D6A9"/>
<path d="M161.346 369.215V236.39L276.374 169.98V302.8L161.346 369.215Z" fill="#58D6A9" fill-opacity="0.8" stroke="#58D6A9"/>
<path d="M294.667 257.247L366.204 298.555L250.175 365.542L178.639 324.239L294.667 257.247Z" fill="#93B9FF" fill-opacity="0.7"/>
<path d="M179.139 380.683V325.105L249.675 365.831V421.409L179.139 380.683Z" fill="#669BFF" fill-opacity="0.9" stroke="#4988FF"/>
<path d="M250.675 421.409V365.831L365.703 299.421V354.999L250.675 421.409Z" fill="#4988FF" fill-opacity="0.8" stroke="#4988FF"/>
<path d="M294.667 180L366.208 221.304L250.179 288.292L178.639 246.988L294.667 180Z" fill="#93B9FF" fill-opacity="0.7"/>
<path d="M179.139 303.432V247.854L249.679 288.58V344.163L179.139 303.432Z" fill="#669BFF" fill-opacity="0.8" stroke="#4988FF"/>
<path d="M250.675 344.163V288.58L365.707 222.17V277.748L250.675 344.163Z" fill="#4988FF" fill-opacity="0.9" stroke="#4988FF"/>
</svg>
