<svg width="240" height="241" viewBox="0 0 240 241" fill="none" xmlns="http://www.w3.org/2000/svg">
<g clip-path="url(#clip0_146_18384)">
<path d="M95.7641 27.5137H31.7676C29.1787 27.5137 27.0801 29.6123 27.0801 32.2012V96.418C27.0801 99.0069 29.1787 101.106 31.7676 101.106H95.7641C98.353 101.106 100.452 99.0069 100.452 96.418V32.2012C100.452 29.6123 98.353 27.5137 95.7641 27.5137Z" fill="#FF4F4F"/>
<path d="M76.3516 74.5896V54.0303C76.3516 52.7359 75.3022 51.6865 74.0078 51.6865H53.5239C52.2295 51.6865 51.1802 52.7359 51.1802 54.0303V74.5896C51.1802 75.8841 52.2295 76.9334 53.5239 76.9334H74.0078C75.3022 76.9334 76.3516 75.8841 76.3516 74.5896Z" fill="white"/>
<path d="M208.232 27.5137H144.235C141.647 27.5137 139.548 29.6123 139.548 32.2012V96.418C139.548 99.0069 141.647 101.106 144.235 101.106H208.232C210.821 101.106 212.919 99.0069 212.919 96.418V32.2012C212.919 29.6123 210.821 27.5137 208.232 27.5137Z" fill="#A742EE"/>
<path d="M188.819 72.2454V56.3735C188.819 53.7847 186.721 51.686 184.132 51.686H168.335C165.747 51.686 163.648 53.7847 163.648 56.3735V72.2454C163.648 74.8342 165.747 76.9329 168.335 76.9329H184.132C186.721 76.9329 188.819 74.8342 188.819 72.2454Z" fill="white"/>
<path d="M200.869 176.577V184.635H192.836V176.577H200.869ZM176.77 176.577V184.634H168.736V176.577H176.77ZM190.832 144.347V152.404H182.799V144.347H190.832ZM208.232 216.889H156.686C155.753 216.889 154.859 216.519 154.2 215.859C153.54 215.2 153.17 214.306 153.17 213.373C153.17 212.441 153.54 211.547 154.2 210.887C154.859 210.228 155.753 209.858 156.686 209.858H208.233C208.543 209.857 208.841 209.734 209.061 209.514C209.28 209.294 209.404 208.997 209.404 208.686V192.717H206.494C205.561 192.717 204.667 192.346 204.008 191.687C203.348 191.028 202.978 190.133 202.978 189.201C202.978 188.268 203.348 187.374 204.008 186.715C204.667 186.056 205.561 185.685 206.494 185.685H212.92C213.852 185.685 214.747 186.056 215.406 186.715C216.065 187.374 216.436 188.268 216.436 189.201V208.686C216.433 210.861 215.568 212.946 214.03 214.484C212.492 216.021 210.407 216.887 208.233 216.889H208.232ZM196.853 168.544H169.677C168.745 168.544 167.85 168.174 167.191 167.514C166.532 166.855 166.161 165.961 166.161 165.028C166.161 164.096 166.532 163.202 167.191 162.542C167.85 161.883 168.745 161.513 169.677 161.513H196.853C197.785 161.513 198.679 161.883 199.339 162.542C199.998 163.202 200.368 164.096 200.368 165.028C200.368 165.961 199.998 166.855 199.339 167.514C198.679 168.174 197.785 168.544 196.853 168.544Z" fill="white"/>
<path d="M188.82 200.774H171.682C170.749 200.774 169.855 200.404 169.196 199.744C168.536 199.085 168.166 198.191 168.166 197.258C168.166 196.326 168.536 195.432 169.196 194.772C169.855 194.113 170.749 193.743 171.682 193.743H188.819C189.752 193.743 190.646 194.113 191.305 194.772C191.964 195.432 192.335 196.326 192.335 197.258C192.335 198.191 191.964 199.085 191.305 199.744C190.646 200.404 189.752 200.774 188.819 200.774H188.82Z" fill="white"/>
<path d="M95.7641 140.319H31.7676C29.1787 140.319 27.0801 142.418 27.0801 145.006V209.223C27.0801 211.812 29.1787 213.911 31.7676 213.911H95.7641C98.353 213.911 100.452 211.812 100.452 209.223V145.006C100.452 142.418 98.353 140.319 95.7641 140.319Z" fill="#65D4A6"/>
<path d="M76.3516 185.051V169.179C76.3516 166.59 74.2529 164.492 71.6641 164.492H55.8677C53.2788 164.492 51.1802 166.59 51.1802 169.179V185.051C51.1802 187.64 53.2788 189.739 55.8677 189.739H71.6641C74.2529 189.739 76.3516 187.64 76.3516 185.051Z" fill="white"/>
<path d="M120 217.426C119.068 217.426 118.173 217.056 117.514 216.397C116.855 215.737 116.484 214.843 116.484 213.911V164.491C116.484 163.558 116.855 162.664 117.514 162.005C118.173 161.346 119.068 160.975 120 160.975C120.932 160.975 121.827 161.346 122.486 162.005C123.145 162.664 123.516 163.558 123.516 164.491V213.91C123.516 214.843 123.145 215.737 122.486 216.396C121.827 217.055 120.932 217.426 120 217.426V217.426ZM143.565 209.345V217.402H135.531V209.345H143.565ZM139.548 193.254C138.615 193.254 137.721 192.883 137.062 192.224C136.403 191.565 136.032 190.671 136.032 189.738V140.319C136.032 139.387 136.403 138.493 137.062 137.833C137.721 137.174 138.615 136.804 139.548 136.804C140.48 136.804 141.374 137.174 142.034 137.833C142.693 138.493 143.063 139.387 143.063 140.319V189.738C143.063 190.67 142.693 191.564 142.034 192.224C141.374 192.883 140.48 193.253 139.548 193.253V193.254ZM156.686 200.774C155.753 200.774 154.859 200.404 154.2 199.744C153.541 199.085 153.17 198.191 153.17 197.258V180.069C153.17 179.137 153.541 178.243 154.2 177.583C154.859 176.924 155.753 176.554 156.686 176.554C157.618 176.554 158.512 176.924 159.172 177.583C159.831 178.243 160.201 179.137 160.201 180.069V197.258C160.201 198.191 159.831 199.085 159.172 199.744C158.512 200.404 157.618 200.774 156.686 200.774ZM212.92 169.081C211.987 169.081 211.093 168.711 210.434 168.052C209.775 167.392 209.404 166.498 209.404 165.566V145.006C209.404 144.696 209.28 144.398 209.061 144.178C208.841 143.958 208.543 143.835 208.232 143.834H197.37C196.437 143.834 195.543 143.464 194.884 142.805C194.224 142.145 193.854 141.251 193.854 140.319C193.854 139.386 194.224 138.492 194.884 137.833C195.543 137.174 196.437 136.803 197.37 136.803H208.232C210.407 136.806 212.492 137.671 214.03 139.209C215.568 140.746 216.433 142.831 216.435 145.006V165.566C216.435 166.498 216.065 167.392 215.406 168.052C214.746 168.711 213.852 169.081 212.92 169.081ZM120 88.506C119.068 88.506 118.173 88.1356 117.514 87.4763C116.855 86.817 116.484 85.9228 116.484 84.9904V31.0293H110.762C109.83 31.0293 108.936 30.6589 108.276 29.9996C107.617 29.3403 107.247 28.4461 107.247 27.5137C107.247 26.5813 107.617 25.6871 108.276 25.0278C108.936 24.3684 109.83 23.998 110.762 23.998H120C120.932 23.998 121.827 24.3684 122.486 25.0278C123.145 25.6871 123.516 26.5813 123.516 27.5137V84.9909C123.516 85.9233 123.145 86.8175 122.486 87.4768C121.827 88.1361 120.932 88.5065 120 88.5065V88.506ZM236.484 124.228H3.51562C2.58322 124.228 1.68901 123.857 1.0297 123.198C0.370395 122.539 0 121.644 0 120.712C0 119.78 0.370395 118.885 1.0297 118.226C1.68901 117.567 2.58322 117.196 3.51562 117.196H236.484C237.417 117.196 238.311 117.567 238.97 118.226C239.63 118.885 240 119.78 240 120.712C240 121.644 239.63 122.539 238.97 123.198C238.311 123.857 237.417 124.228 236.484 124.228Z" fill="white"/>
<path d="M120 171.325C147.83 171.325 170.391 148.765 170.391 120.935C170.391 93.1046 147.83 70.5439 120 70.5439C92.17 70.5439 69.6094 93.1046 69.6094 120.935C69.6094 148.765 92.17 171.325 120 171.325Z" fill="#F69531"/>
<path d="M120 70.5439C117.648 70.5446 115.298 70.7086 112.969 71.0347C124.997 72.7299 136.007 78.7124 143.975 87.8811C151.942 97.0499 156.329 108.788 156.329 120.935C156.329 133.081 151.942 144.819 143.975 153.988C136.007 163.157 124.997 169.139 112.969 170.834C119.815 171.799 126.787 171.344 133.451 169.498C140.114 167.652 146.326 164.455 151.701 160.105C157.075 155.755 161.497 150.346 164.691 144.213C167.885 138.081 169.782 131.357 170.266 124.46C170.75 117.562 169.809 110.639 167.502 104.121C165.194 97.6034 161.571 91.6299 156.856 86.5727C152.141 81.5154 146.436 77.4825 140.095 74.725C133.754 71.9674 126.914 70.5442 120 70.5439Z" fill="#F48A31"/>
<path d="M120 174.841C109.338 174.841 98.9162 171.679 90.0513 165.756C81.1865 159.833 74.2772 151.414 70.1971 141.564C66.1171 131.714 65.0496 120.875 67.1296 110.418C69.2096 99.9612 74.3436 90.356 81.8826 82.8171C89.4215 75.2782 99.0266 70.1441 109.483 68.0641C119.94 65.9842 130.779 67.0517 140.629 71.1317C150.479 75.2118 158.898 82.121 164.821 90.9859C170.745 99.8507 173.906 110.273 173.906 120.935C173.89 135.226 168.206 148.928 158.1 159.034C147.994 169.14 134.292 174.825 120 174.841ZM120 74.0596C110.729 74.0596 101.666 76.8088 93.9577 81.9595C86.2491 87.1102 80.241 94.431 76.6932 102.996C73.1453 111.562 72.217 120.987 74.0257 130.079C75.8344 139.172 80.2988 147.525 86.8544 154.08C93.41 160.636 101.762 165.1 110.855 166.909C119.948 168.718 129.373 167.789 137.938 164.241C146.504 160.694 153.824 154.686 158.975 146.977C164.126 139.268 166.875 130.206 166.875 120.935C166.861 108.507 161.918 96.5922 153.13 87.8045C144.342 79.0167 132.428 74.0736 120 74.0596Z" fill="#FED947"/>
<path d="M129.731 152.189H107.125C106.193 152.189 105.298 151.819 104.639 151.159C103.98 150.5 103.609 149.606 103.609 148.673V120.935C103.609 120.002 103.98 119.108 104.639 118.449C105.298 117.789 106.193 117.419 107.125 117.419H129.731C133.149 117.423 136.426 118.782 138.842 121.199C141.259 123.615 142.618 126.892 142.622 130.31V139.298C142.618 142.716 141.259 145.992 138.842 148.409C136.426 150.826 133.149 152.185 129.731 152.189ZM110.641 145.158H129.731C131.285 145.156 132.774 144.538 133.873 143.44C134.971 142.341 135.589 140.852 135.591 139.298V130.31C135.589 128.756 134.971 127.267 133.873 126.168C132.774 125.07 131.285 124.452 129.731 124.45H110.641V145.158Z" fill="white"/>
<path d="M129.731 124.45H107.125C106.193 124.45 105.298 124.08 104.639 123.42C103.98 122.761 103.609 121.867 103.609 120.935V93.1958C103.609 92.2634 103.98 91.3692 104.639 90.7099C105.298 90.0506 106.193 89.6802 107.125 89.6802H129.731C133.149 89.684 136.426 91.0434 138.842 93.46C141.259 95.8766 142.618 99.1532 142.622 102.571V111.56C142.618 114.977 141.259 118.254 138.842 120.67C136.426 123.087 133.149 124.446 129.731 124.45ZM110.641 117.419H129.731C131.285 117.417 132.774 116.799 133.873 115.701C134.971 114.602 135.589 113.113 135.591 111.56V102.571C135.589 101.017 134.971 99.528 133.873 98.4295C132.774 97.331 131.285 96.7132 129.731 96.7114H110.641V117.419Z" fill="white"/>
<path d="M114.141 96.7114C113.208 96.7114 112.314 96.341 111.655 95.6816C110.995 95.0223 110.625 94.1281 110.625 93.1957V85.0376C110.625 84.1052 110.995 83.211 111.655 82.5517C112.314 81.8924 113.208 81.522 114.141 81.522C115.073 81.522 115.967 81.8924 116.627 82.5517C117.286 83.211 117.656 84.1052 117.656 85.0376V93.1962C117.656 94.1286 117.286 95.0228 116.627 95.6821C115.967 96.3414 115.073 96.7114 114.141 96.7114ZM128.203 96.7114C127.271 96.7114 126.377 96.341 125.717 95.6816C125.058 95.0223 124.688 94.1281 124.688 93.1957V85.0376C124.688 84.1052 125.058 83.211 125.717 82.5517C126.377 81.8924 127.271 81.522 128.203 81.522C129.136 81.522 130.03 81.8924 130.689 82.5517C131.348 83.211 131.719 84.1052 131.719 85.0376V93.1962C131.719 94.1286 131.348 95.0228 130.689 95.6821C130.03 96.3414 129.136 96.7114 128.203 96.7114ZM114.141 160.347C113.208 160.347 112.314 159.977 111.655 159.318C110.995 158.658 110.625 157.764 110.625 156.832V148.673C110.625 147.741 110.995 146.847 111.655 146.187C112.314 145.528 113.208 145.158 114.141 145.158C115.073 145.158 115.967 145.528 116.627 146.187C117.286 146.847 117.656 147.741 117.656 148.673V156.832C117.656 157.764 117.286 158.658 116.627 159.318C115.967 159.977 115.073 160.347 114.141 160.347ZM128.203 160.347C127.271 160.347 126.377 159.977 125.717 159.318C125.058 158.658 124.688 157.764 124.688 156.832V148.673C124.688 147.741 125.058 146.847 125.717 146.187C126.377 145.528 127.271 145.158 128.203 145.158C129.136 145.158 130.03 145.528 130.689 146.187C131.348 146.847 131.719 147.741 131.719 148.673V156.832C131.719 157.764 131.348 158.658 130.689 159.318C130.03 159.977 129.136 160.347 128.203 160.347Z" fill="white"/>
<path d="M112.021 152.189H100.894C99.9612 152.189 99.0669 151.819 98.4076 151.159C97.7483 150.5 97.3779 149.606 97.3779 148.673C97.3779 147.741 97.7483 146.847 98.4076 146.187C99.0669 145.528 99.9612 145.158 100.894 145.158H112.021C112.953 145.158 113.847 145.528 114.507 146.187C115.166 146.847 115.536 147.741 115.536 148.673C115.536 149.606 115.166 150.5 114.507 151.159C113.847 151.819 112.953 152.189 112.021 152.189ZM112.021 96.7114H100.894C99.9612 96.7114 99.0669 96.341 98.4076 95.6817C97.7483 95.0224 97.3779 94.1282 97.3779 93.1958C97.3779 92.2634 97.7483 91.3692 98.4076 90.7099C99.0669 90.0506 99.9612 89.6802 100.894 89.6802H112.021C112.953 89.6802 113.847 90.0506 114.507 90.7099C115.166 91.3692 115.536 92.2634 115.536 93.1958C115.536 94.1282 115.166 95.0224 114.507 95.6817C113.847 96.341 112.953 96.7114 112.021 96.7114Z" fill="white"/>
<path d="M192.836 184.635H200.87V176.578H192.836V184.635ZM166.162 165.028C166.162 165.961 166.532 166.855 167.191 167.514C167.851 168.174 168.745 168.544 169.677 168.544H196.853C197.785 168.544 198.68 168.174 199.339 167.514C199.998 166.855 200.369 165.961 200.369 165.028C200.369 164.096 199.998 163.202 199.339 162.543C198.68 161.883 197.785 161.513 196.853 161.513H169.677C168.745 161.513 167.851 161.883 167.191 162.543C166.532 163.202 166.162 164.096 166.162 165.028ZM182.798 144.347V152.405H190.832V144.347H182.798ZM171.682 200.774H188.819C189.751 200.774 190.646 200.404 191.305 199.744C191.964 199.085 192.335 198.191 192.335 197.258C192.335 196.326 191.964 195.432 191.305 194.772C190.646 194.113 189.751 193.743 188.819 193.743H171.682C170.749 193.743 169.855 194.113 169.196 194.772C168.536 195.432 168.166 196.326 168.166 197.258C168.166 198.191 168.536 199.085 169.196 199.744C169.855 200.404 170.749 200.774 171.682 200.774ZM212.92 185.685H206.494C205.561 185.685 204.667 186.056 204.008 186.715C203.349 187.374 202.978 188.269 202.978 189.201C202.978 190.133 203.349 191.028 204.008 191.687C204.667 192.346 205.561 192.717 206.494 192.717H209.405V208.686C209.404 208.997 209.281 209.294 209.061 209.514C208.841 209.734 208.544 209.857 208.233 209.858H156.686C155.753 209.858 154.859 210.228 154.2 210.888C153.541 211.547 153.17 212.441 153.17 213.373C153.17 214.306 153.541 215.2 154.2 215.859C154.859 216.519 155.753 216.889 156.686 216.889H208.233C210.408 216.887 212.493 216.022 214.031 214.484C215.568 212.946 216.433 210.861 216.436 208.686V189.201C216.436 188.269 216.066 187.374 215.406 186.715C214.747 186.056 213.853 185.685 212.92 185.685ZM156.686 200.774C157.619 200.774 158.513 200.404 159.172 199.745C159.831 199.085 160.202 198.191 160.202 197.259V180.069C160.202 179.136 159.831 178.242 159.172 177.583C158.513 176.924 157.619 176.553 156.686 176.553C155.754 176.553 154.86 176.924 154.2 177.583C153.541 178.242 153.171 179.136 153.171 180.069V197.258C153.171 198.191 153.541 199.085 154.2 199.744C154.86 200.404 155.754 200.774 156.686 200.774ZM135.532 217.402H143.565V209.345H135.532V217.402ZM71.6639 160.975H55.868C53.6931 160.978 51.6081 161.843 50.0702 163.381C48.5324 164.918 47.6673 167.003 47.6648 169.178V185.05C47.6673 187.225 48.5324 189.31 50.0702 190.848C51.6081 192.386 53.6931 193.251 55.868 193.253H71.6644C73.8392 193.251 75.9243 192.386 77.4621 190.848C79 189.31 79.865 187.225 79.8675 185.05V169.178C79.865 167.003 79 164.918 77.4621 163.381C75.9243 161.843 73.8387 160.978 71.6639 160.975ZM72.8358 185.05C72.8354 185.361 72.7118 185.659 72.4921 185.878C72.2724 186.098 71.9746 186.222 71.6639 186.222H55.868C55.5573 186.222 55.2594 186.098 55.0397 185.878C54.8201 185.659 54.6965 185.361 54.6961 185.05V169.178C54.6965 168.868 54.8201 168.57 55.0397 168.35C55.2594 168.13 55.5573 168.007 55.868 168.006H71.6644C71.9751 168.007 72.2729 168.13 72.4926 168.35C72.7123 168.57 72.8359 168.868 72.8363 169.178L72.8358 185.05ZM184.132 48.1705H168.336C166.161 48.173 164.076 49.038 162.538 50.5759C161 52.1137 160.135 54.1988 160.132 56.3736V72.245C160.135 74.4199 161 76.5049 162.538 78.0428C164.076 79.5806 166.161 80.4457 168.336 80.4482H184.132C186.307 80.4457 188.392 79.5806 189.93 78.0428C191.468 76.5049 192.333 74.4199 192.335 72.245V56.3732C192.333 54.1983 191.468 52.1133 189.93 50.5754C188.392 49.0376 186.307 48.173 184.132 48.1705ZM185.304 72.245C185.304 72.5557 185.18 72.8536 184.96 73.0733C184.741 73.293 184.443 73.4165 184.132 73.4169H168.336C168.025 73.4165 167.727 73.293 167.507 73.0733C167.288 72.8536 167.164 72.5557 167.164 72.245V56.3732C167.164 56.0625 167.288 55.7646 167.507 55.5449C167.727 55.3252 168.025 55.2017 168.336 55.2013H184.132C184.443 55.2017 184.741 55.3252 184.96 55.5449C185.18 55.7646 185.304 56.0625 185.304 56.3732V72.245ZM176.769 176.577H168.736V184.635H176.769V176.577ZM236.484 117.196H173.775C173.482 112.924 172.679 108.703 171.381 104.622H208.233C210.408 104.62 212.493 103.755 214.031 102.217C215.568 100.679 216.433 98.5938 216.436 96.4189V32.2002C216.433 30.0254 215.568 27.9403 214.031 26.4025C212.493 24.8646 210.408 23.9996 208.233 23.9971H144.234C142.06 23.9996 139.974 24.8646 138.437 26.4025C136.899 27.9403 136.034 30.0254 136.031 32.2002V69.4621C131.966 68.1956 127.765 67.418 123.516 67.146V27.5132C123.516 26.5808 123.145 25.6865 122.486 25.0272C121.827 24.3679 120.932 23.9975 120 23.9975H110.761C109.829 23.9975 108.934 24.3679 108.275 25.0272C107.616 25.6865 107.245 26.5808 107.245 27.5132C107.245 28.4456 107.616 29.3398 108.275 29.9991C108.934 30.6584 109.829 31.0288 110.761 31.0288H116.484V67.146C112.235 67.418 108.034 68.1956 103.969 69.4621V32.2002C103.966 30.0254 103.101 27.9403 101.563 26.4025C100.026 24.8646 97.9405 23.9996 95.7656 23.9971H31.7672C29.5923 23.9996 27.5073 24.8646 25.9694 26.4025C24.4316 27.9403 23.5665 30.0254 23.5641 32.2002V96.4189C23.5665 98.5938 24.4316 100.679 25.9694 102.217C27.5073 103.755 29.5923 104.62 31.7672 104.622H68.6189C67.3214 108.703 66.5178 112.924 66.2255 117.196H3.51562C2.58322 117.196 1.68901 117.567 1.0297 118.226C0.370395 118.885 0 119.78 0 120.712C0 121.644 0.370395 122.539 1.0297 123.198C1.68901 123.857 2.58322 124.228 3.51562 124.228H66.1969C66.4529 128.495 67.2187 132.716 68.4778 136.802H31.7672C29.5923 136.804 27.5073 137.669 25.9694 139.207C24.4316 140.745 23.5665 142.83 23.5641 145.005V209.224C23.5665 211.398 24.4316 213.484 25.9694 215.021C27.5073 216.559 29.5923 217.424 31.7672 217.427H95.7656C97.9405 217.424 100.026 216.559 101.563 215.021C103.101 213.484 103.966 211.398 103.969 209.224V172.407C108.034 173.674 112.235 174.451 116.484 174.723V213.911C116.484 214.843 116.855 215.737 117.514 216.397C118.173 217.056 119.068 217.426 120 217.426C120.932 217.426 121.827 217.056 122.486 216.397C123.145 215.737 123.516 214.843 123.516 213.911V174.723C127.765 174.451 131.967 173.673 136.032 172.407V189.738C136.032 190.671 136.403 191.565 137.062 192.224C137.721 192.883 138.615 193.254 139.548 193.254C140.48 193.254 141.374 192.883 142.034 192.224C142.693 191.565 143.063 190.671 143.063 189.738V169.651C151.777 165.515 159.223 159.12 164.629 151.132C170.035 143.144 173.203 133.854 173.803 124.228H236.484C237.417 124.228 238.311 123.857 238.97 123.198C239.63 122.539 240 121.644 240 120.712C240 119.78 239.63 118.885 238.97 118.226C238.311 117.567 237.417 117.196 236.484 117.196ZM31.7672 97.5908C31.4565 97.5904 31.1586 97.4669 30.939 97.2472C30.7193 97.0275 30.5957 96.7296 30.5953 96.4189V32.2002C30.5957 31.8895 30.7193 31.5917 30.939 31.372C31.1586 31.1523 31.4565 31.0287 31.7672 31.0283H95.7656C96.0763 31.0287 96.3742 31.1523 96.5939 31.372C96.8135 31.5917 96.9371 31.8895 96.9375 32.2002V72.2179C85.7909 77.5256 76.7877 86.4761 71.4145 97.5913L31.7672 97.5908ZM96.9375 209.224C96.9371 209.534 96.8135 209.832 96.5939 210.052C96.3742 210.272 96.0763 210.395 95.7656 210.396H31.7672C31.4565 210.395 31.1586 210.272 30.939 210.052C30.7193 209.832 30.5957 209.534 30.5953 209.224V145.005C30.5957 144.694 30.7193 144.396 30.939 144.177C31.1586 143.957 31.4565 143.833 31.7672 143.833H71.2064C76.549 155.149 85.6395 164.27 96.9375 169.651V209.224ZM143.062 72.2179V32.2007C143.063 31.89 143.186 31.5921 143.406 31.3724C143.626 31.1527 143.924 31.0292 144.234 31.0288H208.233C208.544 31.0292 208.841 31.1527 209.061 31.3724C209.281 31.5921 209.404 31.89 209.405 32.2007V96.4194C209.404 96.7301 209.281 97.028 209.061 97.2477C208.841 97.4673 208.544 97.5909 208.233 97.5913H168.585C163.212 86.4761 154.209 77.5256 143.062 72.2179ZM208.233 136.804H197.37C196.438 136.804 195.543 137.174 194.884 137.833C194.225 138.493 193.854 139.387 193.854 140.319C193.854 141.252 194.225 142.146 194.884 142.805C195.543 143.464 196.438 143.835 197.37 143.835H208.233C208.544 143.835 208.841 143.959 209.061 144.179C209.281 144.398 209.404 144.696 209.405 145.007V165.566C209.405 166.498 209.775 167.392 210.434 168.052C211.094 168.711 211.988 169.081 212.92 169.081C213.853 169.081 214.747 168.711 215.406 168.052C216.066 167.392 216.436 166.498 216.436 165.566V145.006C216.433 142.831 215.568 140.746 214.031 139.209C212.493 137.671 210.408 136.806 208.233 136.804ZM79.8675 74.5893V54.0299C79.8658 52.4764 79.2479 50.9871 78.1494 49.8886C77.0509 48.7901 75.5616 48.1722 74.0081 48.1705H53.5242C51.9707 48.1722 50.4814 48.7901 49.3829 49.8886C48.2845 50.9871 47.6666 52.4764 47.6648 54.0299V74.5893C47.6666 76.1427 48.2845 77.6321 49.3829 78.7305C50.4814 79.829 51.9707 80.4469 53.5242 80.4486H74.0081C75.5616 80.4469 77.0509 79.829 78.1494 78.7305C79.2479 77.6321 79.8658 76.1427 79.8675 74.5893ZM72.8363 73.4174H54.6961V55.2018H72.8363V73.4174Z" fill="#E6E9ED"/>
<rect x="63" y="64.9346" width="114.985" height="110.477" rx="55.2387" fill="#FFC75F"/>
<rect width="74.985" height="70.4775" transform="translate(83 84.9346)" fill="#E6E9ED"/>
<path d="M154.235 122.412H86.75C84.6763 122.412 83 120.736 83 118.662V88.6846C83 86.6108 84.6763 84.9346 86.75 84.9346H154.235C156.309 84.9346 157.985 86.6108 157.985 88.6846V118.662C157.985 120.736 156.309 122.412 154.235 122.412ZM90.5 114.912H150.485V92.4346H90.5V114.912Z" fill="#E6E9ED"/>
<path d="M154.224 125.412H86.7617V155.412H154.224V125.412Z" fill="white"/>
<path d="M154.235 155.412H86.75C84.6763 155.412 83 153.826 83 151.863V123.496C83 121.533 84.6763 119.947 86.75 119.947H154.235C156.309 119.947 157.985 121.533 157.985 123.496V151.863C157.985 153.826 156.309 155.412 154.235 155.412ZM90.5 148.315H150.485V127.044H90.5V148.315Z" fill="#E6E9ED"/>
<path d="M154.234 88.4619H86.7715V116.851H154.234V88.4619Z" fill="white"/>
<path d="M101.867 107.965C98.7616 107.965 96.2266 105.595 96.2266 102.656C96.2266 99.7252 98.7091 97.3477 101.807 97.3477H101.867C104.964 97.3477 107.477 99.7252 107.477 102.656C107.48 105.595 104.968 107.965 101.867 107.965Z" fill="#65D4A6"/>
<path d="M101.867 142.978C98.7616 142.978 96.2266 140.607 96.2266 137.669C96.2266 134.738 98.7091 132.36 101.807 132.36H101.867C104.964 132.36 107.477 134.738 107.477 137.669C107.48 140.607 104.968 142.978 101.867 142.978Z" fill="#65D4A6"/>
<path d="M128 109.754C127.437 109.754 126.863 109.63 126.323 109.381C124.471 108.501 123.725 106.372 124.647 104.619L128.397 97.5218C129.327 95.7688 131.577 95.0626 133.43 95.9356C135.282 96.8085 136.036 98.9448 135.106 100.698L131.356 107.795C130.696 109.033 129.376 109.754 128 109.754ZM139.25 109.754C138.687 109.754 138.113 109.63 137.573 109.381C135.721 108.501 134.975 106.372 135.897 104.619L139.647 97.5218C140.577 95.7688 142.835 95.0626 144.68 95.9356C146.532 96.8085 147.286 98.9448 146.356 100.698L142.606 107.795C141.946 109.033 140.626 109.754 139.25 109.754Z" fill="#E6E9ED"/>
<path d="M128 144.766C127.437 144.766 126.863 144.642 126.323 144.394C124.471 143.514 123.725 141.385 124.647 139.632L128.397 132.534C129.327 130.781 131.577 130.075 133.43 130.948C135.282 131.821 136.036 133.957 135.106 135.71L131.356 142.808C130.696 144.046 129.376 144.766 128 144.766ZM139.25 144.766C138.687 144.766 138.113 144.642 137.573 144.394C135.721 143.514 134.975 141.385 135.897 139.632L139.647 132.534C140.577 130.781 142.835 130.075 144.68 130.948C146.532 131.821 147.286 133.957 146.356 135.71L142.606 142.808C141.946 144.046 140.626 144.766 139.25 144.766Z" fill="#E6E9ED"/>
</g>
<defs>
<clipPath id="clip0_146_18384">
<rect width="240" height="240" fill="white" transform="translate(0 0.93457)"/>
</clipPath>
</defs>
</svg>
