<svg width="240" height="241" viewBox="0 0 240 241" fill="none" xmlns="http://www.w3.org/2000/svg">
<path d="M153.698 120.935H86.2354V150.935H153.698V120.935Z" fill="#A742EE"/>
<path d="M153.698 154.692H86.2129C84.1391 154.692 82.4629 153.016 82.4629 150.942V120.957C82.4629 118.883 84.1391 117.207 86.2129 117.207H153.698C155.772 117.207 157.448 118.883 157.448 120.957V150.942C157.448 153.016 155.772 154.692 153.698 154.692ZM89.9629 147.192H149.948V124.707H89.9629V147.192Z" fill="white"/>
<path d="M101.328 141.552C98.2235 141.552 95.6885 139.04 95.6885 135.942C95.6885 132.837 98.171 130.332 101.268 130.332H101.328C104.426 130.332 106.938 132.837 106.938 135.942C106.942 139.04 104.43 141.552 101.328 141.552Z" fill="white"/>
<path d="M127.463 143.434C126.9 143.434 126.326 143.311 125.786 143.041C123.934 142.118 123.188 139.861 124.11 138.008L127.86 130.508C128.79 128.656 131.04 127.917 132.893 128.832C134.745 129.762 135.499 132.012 134.569 133.864L130.819 141.364C130.159 142.681 128.839 143.434 127.463 143.434ZM138.713 143.434C138.15 143.434 137.576 143.311 137.036 143.041C135.184 142.118 134.438 139.861 135.36 138.008L139.11 130.508C140.04 128.656 142.298 127.917 144.143 128.832C145.995 129.762 146.749 132.012 145.819 133.864L142.069 141.364C141.409 142.681 140.089 143.434 138.713 143.434Z" fill="#E6E9ED"/>
<path d="M153.697 83.4194H86.2344V113.419H153.697V83.4194Z" fill="#65D4A6"/>
<path d="M153.698 117.169H86.2129C84.1391 117.169 82.4629 115.493 82.4629 113.419V83.4419C82.4629 81.3681 84.1391 79.6919 86.2129 79.6919H153.698C155.772 79.6919 157.448 81.3681 157.448 83.4419V113.419C157.448 115.493 155.772 117.169 153.698 117.169ZM89.9629 109.669H149.948V87.1919H89.9629V109.669Z" fill="#E6E9ED"/>
<path d="M101.329 104.03C98.2245 104.03 95.6895 101.525 95.6895 98.4196C95.6895 95.3221 98.1719 92.8096 101.269 92.8096H101.329C104.427 92.8096 106.939 95.3221 106.939 98.4196C106.943 101.525 104.431 104.03 101.329 104.03Z" fill="white"/>
<path d="M127.463 105.92C126.9 105.92 126.326 105.788 125.786 105.526C123.934 104.596 123.188 102.346 124.11 100.493L127.86 92.9934C128.79 91.1409 131.04 90.3946 132.893 91.3171C134.745 92.2396 135.499 94.4971 134.569 96.3496L130.819 103.85C130.159 105.158 128.839 105.92 127.463 105.92ZM138.713 105.92C138.15 105.92 137.576 105.788 137.036 105.526C135.184 104.596 134.438 102.346 135.36 100.493L139.11 92.9934C140.04 91.1409 142.298 90.3946 144.143 91.3171C145.995 92.2396 146.749 94.4971 145.819 96.3496L142.069 103.85C141.409 105.158 140.089 105.92 138.713 105.92Z" fill="white"/>
<path d="M71.2054 139.707H41.2129C39.1391 139.707 37.4629 138.031 37.4629 135.957C37.4629 133.883 39.1391 132.207 41.2129 132.207H71.2054C73.2791 132.207 74.9554 133.883 74.9554 135.957C74.9554 138.031 73.2791 139.707 71.2054 139.707Z" fill="#656D78"/>
<path d="M41.2129 162.2C39.1391 162.2 37.4629 160.524 37.4629 158.45V135.987C37.4629 133.914 39.1391 132.237 41.2129 132.237C43.2866 132.237 44.9629 133.914 44.9629 135.987V158.45C44.9629 160.524 43.2866 162.2 41.2129 162.2Z" fill="#656D78"/>
<path d="M198.795 139.7H168.795C166.721 139.7 165.045 138.023 165.045 135.95C165.045 133.876 166.721 132.2 168.795 132.2H198.795C200.869 132.2 202.545 133.876 202.545 135.95C202.545 138.023 200.865 139.7 198.795 139.7Z" fill="#183C84"/>
<path fill-rule="evenodd" clip-rule="evenodd" d="M50.2881 138.375H74.6682C76.5948 138.375 78.1521 136.818 78.1521 134.891C78.1521 132.965 76.5948 131.407 74.6682 131.407H46.8042C44.8776 131.407 43.3203 132.965 43.3203 134.891C43.3203 134.899 43.3203 134.906 43.3204 134.913C43.3204 134.915 43.3204 134.917 43.3204 134.919V155.787C43.3204 157.714 44.8777 159.271 46.8042 159.271C48.7308 159.271 50.2881 157.714 50.2881 155.787V138.375Z" fill="#183C84"/>
<path fill-rule="evenodd" clip-rule="evenodd" d="M43.3204 106.988C43.3203 106.98 43.3203 106.972 43.3203 106.964V86.1025C43.3203 84.1759 44.8776 82.6187 46.8042 82.6187C48.7308 82.6187 50.2881 84.1759 50.2881 86.1025V103.515H74.6683C76.5948 103.515 78.1521 105.073 78.1521 106.999C78.1521 108.926 76.5948 110.483 74.6683 110.483H46.8042C44.8777 110.483 43.3204 108.926 43.3204 106.999C43.3204 106.995 43.3204 106.992 43.3204 106.988Z" fill="#183C84"/>
<path fill-rule="evenodd" clip-rule="evenodd" d="M189.719 138.368H165.332C163.405 138.368 161.848 136.81 161.848 134.884C161.848 132.957 163.405 131.4 165.332 131.4H193.202C195.129 131.4 196.686 132.957 196.686 134.884C196.686 134.89 196.686 134.895 196.686 134.901C196.686 134.907 196.686 134.913 196.686 134.919V155.78C196.686 157.707 195.126 159.264 193.202 159.264C191.276 159.264 189.719 157.707 189.719 155.78V138.368Z" fill="#183C84"/>
<path fill-rule="evenodd" clip-rule="evenodd" d="M189.719 103.509V86.0962C189.719 84.1696 191.277 82.6123 193.203 82.6123C195.13 82.6123 196.687 84.1696 196.687 86.0962V106.965C196.687 107.005 196.687 107.046 196.685 107.087C196.635 108.97 195.094 110.476 193.202 110.476H165.332C163.405 110.476 161.848 108.919 161.848 106.993C161.848 105.066 163.405 103.509 165.332 103.509H189.719Z" fill="#183C84"/>
<path d="M32.8686 54.7412H60.7326C66.5158 54.7412 71.1842 50.0728 71.1842 44.2896V65.1858C71.1842 70.969 66.5158 75.6374 60.7326 75.6374H32.8686C27.1202 75.6374 22.417 70.969 22.417 65.1858V44.2896C22.417 50.0728 27.1202 54.7412 32.8686 54.7412Z" fill="#E6E9ED"/>
<path d="M60.7326 12.9346C66.5158 12.9346 71.1842 17.603 71.1842 23.3862C71.1842 29.1694 66.5158 33.8378 60.7326 33.8378H32.8686C27.1202 33.8378 22.417 29.1694 22.417 23.3862C22.417 17.603 27.1202 12.9346 32.8686 12.9346H60.7326Z" fill="white"/>
<path d="M32.8686 33.8378H60.7326C66.5158 33.8378 71.1842 29.1695 71.1842 23.3862V44.2895C71.1842 50.0727 66.5158 54.7411 60.7326 54.7411H32.8686C27.1202 54.7411 22.417 50.0727 22.417 44.2895V23.3862C22.417 29.1695 27.1202 33.8378 32.8686 33.8378Z" fill="#E6E9ED"/>
<path d="M60.7326 52.999H32.8686C27.1202 52.999 22.417 48.3306 22.417 42.5474V46.0312C22.417 51.8145 27.1202 56.4828 32.8686 56.4828H60.7326C66.5158 56.4828 71.1842 51.8145 71.1842 46.0312V42.5474C71.1842 48.3306 66.5158 52.999 60.7326 52.999Z" fill="#4988FF"/>
<path d="M179.267 54.7412H207.131C212.914 54.7412 217.583 50.0728 217.583 44.2896V65.1858C217.583 70.969 212.914 75.6374 207.131 75.6374H179.267C173.519 75.6374 168.815 70.969 168.815 65.1858V44.2896C168.815 50.0728 173.515 54.7412 179.267 54.7412Z" fill="#E6E9ED"/>
<path d="M207.131 12.9346C212.914 12.9346 217.583 17.603 217.583 23.3862C217.583 29.1694 212.914 33.8378 207.131 33.8378H179.267C173.519 33.8378 168.815 29.1694 168.815 23.3862C168.815 17.603 173.519 12.9346 179.267 12.9346H207.131Z" fill="white"/>
<path d="M179.267 33.8378H207.131C212.914 33.8378 217.583 29.1695 217.583 23.3862V44.2895C217.583 50.0727 212.914 54.7411 207.131 54.7411H179.267C173.519 54.7411 168.815 50.0727 168.815 44.2895V23.3862C168.815 29.1695 173.515 33.8378 179.267 33.8378Z" fill="#E6E9ED"/>
<path d="M207.131 52.999H179.267C173.519 52.999 168.815 48.3306 168.815 42.5474V46.0312C168.815 51.8145 173.519 56.4828 179.267 56.4828H207.131C212.914 56.4828 217.583 51.8145 217.583 46.0312V42.5474C217.583 48.3306 212.914 52.999 207.131 52.999Z" fill="#FFC75F"/>
<path d="M32.8686 208.031H60.7326C66.5158 208.031 71.1842 203.363 71.1842 197.58V218.483C71.1842 224.266 66.5158 228.934 60.7326 228.934H32.8686C27.1202 228.934 22.417 224.266 22.417 218.483V197.58C22.417 203.363 27.1202 208.031 32.8686 208.031Z" fill="#E6E9ED"/>
<path d="M60.7326 166.231C66.5158 166.231 71.1842 170.9 71.1842 176.683C71.1842 182.466 66.5158 187.135 60.7326 187.135H32.8686C27.1202 187.135 22.417 182.466 22.417 176.683C22.417 170.9 27.1202 166.231 32.8686 166.231H60.7326Z" fill="white"/>
<path d="M32.8686 187.135H60.7326C66.5158 187.135 71.1842 182.466 71.1842 176.683V197.579C71.1842 203.363 66.5158 208.031 60.7326 208.031H32.8686C27.1202 208.031 22.417 203.363 22.417 197.579V176.683C22.417 182.466 27.1202 187.135 32.8686 187.135Z" fill="#E6E9ED"/>
<path d="M60.7326 206.29H32.8686C27.1202 206.29 22.417 201.621 22.417 195.838V199.329C22.417 205.112 27.1202 209.78 32.8686 209.78H60.7326C66.5158 209.78 71.1842 205.112 71.1842 199.329V195.838C71.1842 201.621 66.5158 206.29 60.7326 206.29Z" fill="#FFC75F"/>
<path d="M179.267 208.032H207.131C212.914 208.032 217.583 203.363 217.583 197.58V218.483C217.583 224.267 212.914 228.935 207.131 228.935H179.267C173.519 228.935 168.815 224.267 168.815 218.483V197.58C168.815 203.363 173.515 208.032 179.267 208.032Z" fill="#E6E9ED"/>
<path d="M207.131 166.232C212.914 166.232 217.583 170.9 217.583 176.684C217.583 182.467 212.914 187.135 207.131 187.135H179.267C173.519 187.135 168.815 182.467 168.815 176.684C168.815 170.9 173.519 166.232 179.267 166.232H207.131Z" fill="white"/>
<path d="M179.267 187.135H207.131C212.914 187.135 217.583 182.467 217.583 176.684V197.58C217.583 203.363 212.914 208.031 207.131 208.031H179.267C173.519 208.031 168.815 203.363 168.815 197.58V176.684C168.815 182.467 173.515 187.135 179.267 187.135Z" fill="#E6E9ED"/>
<path d="M207.131 206.29H179.267C173.519 206.29 168.815 201.621 168.815 195.838V199.329C168.815 205.112 173.519 209.78 179.267 209.78H207.131C212.914 209.78 217.583 205.112 217.583 199.329V195.838C217.583 201.621 212.914 206.29 207.131 206.29Z" fill="#4988FF"/>
</svg>
