<svg width="107" height="20" viewBox="0 0 107 20" fill="none" xmlns="http://www.w3.org/2000/svg">
<g clip-path="url(#clip0_13_38)">
<path d="M106.59 0.586376V2.38927H97.3113V8.19461H104.331V9.99748H97.3113V16.9206H106.759V18.7235H95.1721V0.586376H106.59Z" fill="white"/>
<path d="M90.5388 4.57687L88.3991 5.2139C87.7824 3.07446 86.5002 2.00474 84.5529 2.00474C83.3511 2.00474 82.4216 2.30522 81.7644 2.90619C81.1956 3.42703 80.9109 4.10411 80.9109 4.93745C80.9109 5.94704 81.2237 6.7083 81.8488 7.22114C82.4013 7.67784 83.3471 8.0745 84.6851 8.41102L85.4666 8.63939C87.6778 9.20029 89.1766 9.94551 89.9615 10.875C90.5787 11.6122 90.8871 12.6218 90.8871 13.9039C90.8871 15.5865 90.2783 16.8927 89.0602 17.8221C87.9546 18.6555 86.4799 19.0722 84.6373 19.0722C82.834 19.0722 81.3599 18.6354 80.2138 17.762C79.2044 16.9928 78.4955 15.9111 78.0864 14.5168L80.202 13.7716C80.5063 15.0056 81.0994 15.9351 81.981 16.5601C82.7181 17.0729 83.5874 17.3294 84.5889 17.3294C86.0394 17.3294 87.1213 16.9928 87.8342 16.3197C88.4115 15.7749 88.6995 15.0497 88.6995 14.1442C88.6995 13.1106 88.3991 12.3413 87.7982 11.8365C87.213 11.3317 86.1598 10.879 84.6373 10.4783L83.9159 10.262C81.8724 9.70914 80.4703 8.98395 79.7091 8.08649C79.084 7.34132 78.7717 6.32368 78.7717 5.0336C78.7717 3.5993 79.3248 2.43343 80.4304 1.53599C81.4718 0.686623 82.8301 0.261942 84.505 0.261942C87.5979 0.261942 89.6093 1.70025 90.5388 4.57687Z" fill="white"/>
<path d="M74.0544 0.586376V18.7235H71.9153V0.586376H74.0544Z" fill="white"/>
<path d="M55.1545 0.586376H61.2606C65.4112 0.586376 67.4862 2.16892 67.4862 5.334C67.4862 6.55997 67.1216 7.57761 66.3924 8.38692C65.7274 9.13208 64.8103 9.63694 63.64 9.90132L67.9791 18.7235H65.6115L61.6207 10.2499H57.2462V18.7235H55.1545V0.586376ZM57.2462 2.30514V8.57923H60.9838C63.8606 8.57923 65.2987 7.50548 65.2987 5.35804C65.2987 4.26829 64.938 3.47902 64.2173 2.99024C63.5438 2.5335 62.5181 2.30514 61.1402 2.30514H57.2462Z" fill="white"/>
<path d="M49.7403 0.586376V18.7235H47.0119L41.3268 7.74989C41.2386 7.58161 40.3772 5.8188 38.7426 2.46139H38.37C38.37 2.87806 38.39 3.91572 38.4301 5.57439C38.4541 6.64813 38.4661 7.55359 38.4661 8.29076V18.7235H36.4709V0.586376H39.8003L44.9926 10.7547C45.4253 11.5881 45.9021 12.5776 46.4229 13.7235C47.0399 15.0857 47.4165 15.907 47.5527 16.1874H47.9373C47.8092 12.7339 47.745 10.7507 47.745 10.2379V0.586376H49.7403Z" fill="white"/>
<path d="M31.1043 0.586376V12.6658C31.1043 14.9094 30.4032 16.5921 29.0009 17.7139C27.8631 18.6193 26.3807 19.0721 24.5538 19.0721C22.4224 19.0721 20.7757 18.4831 19.6138 17.3052C18.5241 16.1995 17.9792 14.653 17.9792 12.6658V0.586376H20.1187V12.5937C20.1187 15.7267 21.6131 17.2932 24.6019 17.2932C27.5907 17.2932 29.085 15.7267 29.085 12.5937V0.586376H31.1043Z" fill="white"/>
<path d="M13.3941 4.57687L11.2547 5.2139C10.6377 3.07446 9.35564 2.00474 7.40851 2.00474C6.20659 2.00474 5.2771 2.30522 4.62005 2.90619C4.05113 3.42703 3.76667 4.10411 3.76667 4.93745C3.76667 5.94704 4.07918 6.7083 4.70418 7.22114C5.25707 7.67784 6.20259 8.0745 7.54073 8.41102L8.32201 8.63939C10.5335 9.20029 12.032 9.94551 12.8172 10.875C13.4342 11.6122 13.7427 12.6218 13.7427 13.9039C13.7427 15.5865 13.1337 16.8927 11.9158 17.8221C10.81 18.6555 9.33561 19.0722 7.49268 19.0722C5.68976 19.0722 4.2154 18.6354 3.06956 17.762C2.05993 16.9928 1.3508 15.9111 0.942139 14.5168L3.05754 13.7716C3.36202 15.0056 3.95498 15.9351 4.83639 16.5601C5.57358 17.0729 6.44296 17.3294 7.44458 17.3294C8.8949 17.3294 9.97663 16.9928 10.6898 16.3197C11.2667 15.7749 11.5552 15.0497 11.5552 14.1442C11.5552 13.1106 11.2547 12.3413 10.6537 11.8365C10.0688 11.3317 9.01507 10.879 7.49268 10.4783L6.77149 10.262C4.72822 9.70914 3.32597 8.98395 2.56474 8.08649C1.93974 7.34132 1.62724 6.32368 1.62724 5.0336C1.62724 3.5993 2.18013 2.43343 3.2859 1.53599C4.32758 0.686623 5.68576 0.261942 7.36046 0.261942C10.4534 0.261942 12.4646 1.70025 13.3941 4.57687Z" fill="white"/>
</g>
<defs>
<clipPath id="clip0_13_38">
<rect width="106.339" height="19.1298" fill="white" transform="translate(0.660889 0.102051)"/>
</clipPath>
</defs>
</svg>
