<svg width="189" height="34" viewBox="0 0 189 34" fill="none" xmlns="http://www.w3.org/2000/svg">
<path d="M188.272 0.86084V4.06519H171.78V14.3832H184.256V17.5875H171.78V29.8922H188.571V33.0966H167.978V0.86084H188.272Z" fill="#181818"/>
<path d="M159.743 7.95325L155.94 9.08545C154.844 5.28296 152.565 3.38171 149.104 3.38171C146.968 3.38171 145.316 3.91577 144.148 4.98389C143.137 5.90959 142.631 7.113 142.631 8.59412C142.631 10.3885 143.187 11.7415 144.298 12.653C145.28 13.4647 146.961 14.1697 149.339 14.7678L150.728 15.1737C154.658 16.1706 157.322 17.4951 158.717 19.1471C159.814 20.4573 160.362 22.2517 160.362 24.5304C160.362 27.5211 159.28 29.8425 157.115 31.4945C155.15 32.9756 152.529 33.7162 149.254 33.7162C146.049 33.7162 143.429 32.94 141.392 31.3877C139.598 30.0205 138.338 28.0979 137.611 25.6199L141.371 24.2954C141.912 26.4886 142.966 28.1406 144.533 29.2515C145.843 30.1629 147.388 30.6187 149.168 30.6187C151.746 30.6187 153.669 30.0205 154.936 28.8242C155.962 27.8558 156.474 26.5669 156.474 24.9576C156.474 23.1205 155.94 21.7533 154.872 20.8561C153.832 19.9589 151.96 19.1542 149.254 18.4421L147.972 18.0576C144.34 17.075 141.848 15.7861 140.495 14.191C139.384 12.8666 138.829 11.0579 138.829 8.76501C138.829 6.21578 139.812 4.14364 141.777 2.54858C143.628 1.03898 146.042 0.28418 149.019 0.28418C154.516 0.28418 158.091 2.84054 159.743 7.95325Z" fill="#181818"/>
<path d="M130.445 0.86084V33.0966H126.643V0.86084H130.445Z" fill="#181818"/>
<path d="M96.8535 0.86084H107.706C115.083 0.86084 118.771 3.67354 118.771 9.29895C118.771 11.4779 118.123 13.2866 116.827 14.725C115.645 16.0494 114.015 16.9467 111.935 17.4166L119.647 33.0966H115.439L108.346 18.0361H100.571V33.0966H96.8535V0.86084ZM100.571 3.91565V15.0668H107.214C112.327 15.0668 114.883 13.1584 114.883 9.34167C114.883 7.40483 114.242 6.00203 112.961 5.1333C111.764 4.32153 109.941 3.91565 107.492 3.91565H100.571Z" fill="#181818"/>
<path d="M87.2305 0.86084V33.0966H82.3812L72.2769 13.5928C72.1202 13.2937 70.5892 10.1606 67.684 4.19336H67.0217C67.0217 4.93392 67.0573 6.7782 67.1285 9.7262C67.1713 11.6346 67.1926 13.2439 67.1926 14.5541V33.0966H63.6465V0.86084H69.5638L78.7924 18.9333C79.5614 20.4145 80.4088 22.1733 81.3345 24.2098C82.4311 26.6309 83.1004 28.0907 83.3425 28.5891H84.0261C83.7983 22.451 83.6843 18.9262 83.6843 18.0148V0.86084H87.2305Z" fill="#181818"/>
<path d="M54.1079 0.86084V22.33C54.1079 26.3176 52.8618 29.3083 50.3695 31.3021C48.3472 32.9114 45.7125 33.7161 42.4655 33.7161C38.6772 33.7161 35.7506 32.6693 33.6855 30.5758C31.7487 28.6105 30.7803 25.8619 30.7803 22.33V0.86084H34.5828V22.2018C34.5828 27.7702 37.2388 30.5544 42.5509 30.5544C47.863 30.5544 50.519 27.7702 50.519 22.2018V0.86084H54.1079Z" fill="#181818"/>
<path d="M22.6313 7.95325L18.8289 9.08545C17.7323 5.28296 15.4536 3.38171 11.9929 3.38171C9.85669 3.38171 8.20467 3.91577 7.03687 4.98389C6.02572 5.90959 5.52014 7.113 5.52014 8.59412C5.52014 10.3885 6.07556 11.7415 7.1864 12.653C8.16907 13.4647 9.84957 14.1697 12.2279 14.7678L13.6165 15.1737C17.5471 16.1706 20.2103 17.4951 21.606 19.1471C22.7026 20.4573 23.2509 22.2517 23.2509 24.5304C23.2509 27.5211 22.1685 29.8425 20.0038 31.4945C18.0385 32.9756 15.418 33.7162 12.1425 33.7162C8.93811 33.7162 6.31767 32.94 4.28113 31.3877C2.48669 30.0205 1.22632 28.0979 0.5 25.6199L4.25977 24.2954C4.80094 26.4886 5.85482 28.1406 7.42139 29.2515C8.73161 30.1629 10.2768 30.6187 12.057 30.6187C14.6347 30.6187 16.5573 30.0205 17.8248 28.8242C18.8502 27.8558 19.3629 26.5669 19.3629 24.9576C19.3629 23.1205 18.8289 21.7533 17.7607 20.8561C16.7211 19.9589 14.8483 19.1542 12.1425 18.4421L10.8607 18.0576C7.22913 17.075 4.73686 15.7861 3.38391 14.191C2.27307 12.8666 1.71765 11.0579 1.71765 8.76501C1.71765 6.21578 2.70032 4.14364 4.66565 2.54858C6.51705 1.03898 8.93099 0.28418 11.9075 0.28418C17.4047 0.28418 20.9793 2.84054 22.6313 7.95325Z" fill="#181818"/>
</svg>
