<svg width="107" height="20" viewBox="0 0 107 20" fill="none" xmlns="http://www.w3.org/2000/svg">
<g clip-path="url(#clip0_645_54)">
<path d="M106.59 0.585938V2.38883H97.3113V8.19417H104.331V9.99704H97.3113V16.9202H106.759V18.7231H95.1721V0.585938H106.59Z" fill="#183973"/>
<path d="M90.5388 4.57665L88.3991 5.21367C87.7824 3.07424 86.5002 2.00452 84.5529 2.00452C83.3511 2.00452 82.4216 2.305 81.7644 2.90597C81.1956 3.4268 80.9109 4.10389 80.9109 4.93723C80.9109 5.94682 81.2237 6.70807 81.8488 7.22092C82.4013 7.67762 83.3471 8.07428 84.6851 8.41079L85.4666 8.63917C87.6778 9.20007 89.1766 9.94528 89.9615 10.8748C90.5787 11.6119 90.8871 12.6215 90.8871 13.9036C90.8871 15.5863 90.2783 16.8924 89.0602 17.8219C87.9546 18.6552 86.4799 19.0719 84.6373 19.0719C82.834 19.0719 81.3599 18.6352 80.2138 17.7618C79.2044 16.9926 78.4955 15.9109 78.0864 14.5166L80.202 13.7714C80.5063 15.0054 81.0994 15.9349 81.981 16.5599C82.7181 17.0727 83.5874 17.3292 84.5889 17.3292C86.0394 17.3292 87.1213 16.9926 87.8342 16.3195C88.4115 15.7746 88.6995 15.0494 88.6995 14.144C88.6995 13.1104 88.3991 12.3411 87.7982 11.8363C87.213 11.3315 86.1598 10.8788 84.6373 10.4781L83.9159 10.2618C81.8724 9.70892 80.4703 8.98373 79.7091 8.08626C79.084 7.3411 78.7717 6.32345 78.7717 5.03338C78.7717 3.59908 79.3248 2.43321 80.4304 1.53576C81.4718 0.6864 82.8301 0.261719 84.505 0.261719C87.5979 0.261719 89.6093 1.70003 90.5388 4.57665Z" fill="#183973"/>
<path d="M74.0546 0.585938V18.7231H71.9154V0.585938H74.0546Z" fill="#183973"/>
<path d="M55.1547 0.585938H61.2607C65.4113 0.585938 67.4863 2.16848 67.4863 5.33356C67.4863 6.55953 67.1217 7.57718 66.3926 8.38648C65.7275 9.13164 64.8104 9.6365 63.6401 9.90088L67.9792 18.7231H65.6116L61.6208 10.2494H57.2463V18.7231H55.1547V0.585938ZM57.2463 2.3047V8.57879H60.9839C63.8607 8.57879 65.2988 7.50504 65.2988 5.3576C65.2988 4.26785 64.9381 3.47858 64.2174 2.9898C63.5439 2.53306 62.5182 2.3047 61.1403 2.3047H57.2463Z" fill="#183973"/>
<path d="M49.7403 0.585938V18.7231H47.0119L41.3268 7.74946C41.2386 7.58117 40.3772 5.81836 38.7426 2.46095H38.37C38.37 2.87762 38.39 3.91529 38.4301 5.57395C38.4541 6.64769 38.4661 7.55315 38.4661 8.29032V18.7231H36.4709V0.585938H39.8003L44.9926 10.7542C45.4253 11.5876 45.9021 12.5772 46.4229 13.723C47.0399 15.0852 47.4165 15.9066 47.5527 16.187H47.9373C47.8092 12.7334 47.745 10.7502 47.745 10.2375V0.585938H49.7403Z" fill="#183973"/>
<path d="M31.1042 0.585938V12.6654C31.1042 14.9089 30.4031 16.5916 29.0008 17.7134C27.863 18.6189 26.3806 19.0716 24.5537 19.0716C22.4222 19.0716 20.7756 18.4827 19.6137 17.3048C18.524 16.199 17.9791 14.6526 17.9791 12.6654V0.585938H20.1186V12.5932C20.1186 15.7262 21.6129 17.2927 24.6017 17.2927C27.5905 17.2927 29.0849 15.7262 29.0849 12.5932V0.585938H31.1042Z" fill="#183973"/>
<path d="M13.3942 4.57665L11.2548 5.21367C10.6379 3.07424 9.35576 2.00452 7.40863 2.00452C6.20671 2.00452 5.27722 2.305 4.62017 2.90597C4.05126 3.4268 3.7668 4.10389 3.7668 4.93723C3.7668 5.94682 4.0793 6.70807 4.7043 7.22092C5.25719 7.67762 6.20271 8.07428 7.54085 8.41079L8.32214 8.63917C10.5337 9.20007 12.0321 9.94528 12.8174 10.8748C13.4343 11.6119 13.7428 12.6215 13.7428 13.9036C13.7428 15.5863 13.1338 16.8924 11.9159 17.8219C10.8101 18.6552 9.33573 19.0719 7.4928 19.0719C5.68988 19.0719 4.21552 18.6352 3.06968 17.7618C2.06005 16.9926 1.35092 15.9109 0.942261 14.5166L3.05766 13.7714C3.36214 15.0054 3.9551 15.9349 4.83652 16.5599C5.5737 17.0727 6.44309 17.3292 7.4447 17.3292C8.89502 17.3292 9.97675 16.9926 10.6899 16.3195C11.2668 15.7746 11.5553 15.0494 11.5553 14.144C11.5553 13.1104 11.2548 12.3411 10.6538 11.8363C10.0689 11.3315 9.0152 10.8788 7.4928 10.4781L6.77161 10.2618C4.72834 9.70892 3.32609 8.98373 2.56487 8.08626C1.93986 7.3411 1.62736 6.32345 1.62736 5.03338C1.62736 3.59908 2.18025 2.43321 3.28602 1.53576C4.3277 0.6864 5.68588 0.261719 7.36058 0.261719C10.4535 0.261719 12.4647 1.70003 13.3942 4.57665Z" fill="#183973"/>
</g>
<defs>
<clipPath id="clip0_645_54">
<rect width="106.339" height="19.1298" fill="white" transform="translate(0.660889 0.101562)"/>
</clipPath>
</defs>
</svg>
