<svg width="28" height="29" viewBox="0 0 28 29" fill="none" xmlns="http://www.w3.org/2000/svg">
<path d="M17 10.9829H11C10.7348 10.9829 10.4804 11.0883 10.2929 11.2758C10.1054 11.4633 10 11.7177 10 11.9829V17.9829C10 18.2481 10.1054 18.5025 10.2929 18.69C10.4804 18.8776 10.7348 18.9829 11 18.9829H17C17.2652 18.9829 17.5196 18.8776 17.7071 18.69C17.8946 18.5025 18 18.2481 18 17.9829V11.9829C18 11.7177 17.8946 11.4633 17.7071 11.2758C17.5196 11.0883 17.2652 10.9829 17 10.9829ZM16 16.9829H12V12.9829H16V16.9829ZM27 16.9829H25V12.9829H27C27.2652 12.9829 27.5196 12.8776 27.7071 12.69C27.8946 12.5025 28 12.2481 28 11.9829C28 11.7177 27.8946 11.4633 27.7071 11.2758C27.5196 11.0883 27.2652 10.9829 27 10.9829H25V5.98291C25 5.45248 24.7893 4.94377 24.4142 4.5687C24.0391 4.19362 23.5304 3.98291 23 3.98291H18V1.98291C18 1.71769 17.8946 1.46334 17.7071 1.2758C17.5196 1.08827 17.2652 0.98291 17 0.98291C16.7348 0.98291 16.4804 1.08827 16.2929 1.2758C16.1054 1.46334 16 1.71769 16 1.98291V3.98291H12V1.98291C12 1.71769 11.8946 1.46334 11.7071 1.2758C11.5196 1.08827 11.2652 0.98291 11 0.98291C10.7348 0.98291 10.4804 1.08827 10.2929 1.2758C10.1054 1.46334 10 1.71769 10 1.98291V3.98291H5C4.46957 3.98291 3.96086 4.19362 3.58579 4.5687C3.21071 4.94377 3 5.45248 3 5.98291V10.9829H1C0.734784 10.9829 0.48043 11.0883 0.292893 11.2758C0.105357 11.4633 0 11.7177 0 11.9829C0 12.2481 0.105357 12.5025 0.292893 12.69C0.48043 12.8776 0.734784 12.9829 1 12.9829H3V16.9829H1C0.734784 16.9829 0.48043 17.0883 0.292893 17.2758C0.105357 17.4633 0 17.7177 0 17.9829C0 18.2481 0.105357 18.5025 0.292893 18.69C0.48043 18.8776 0.734784 18.9829 1 18.9829H3V23.9829C3 24.5133 3.21071 25.0221 3.58579 25.3971C3.96086 25.7722 4.46957 25.9829 5 25.9829H10V27.9829C10 28.2481 10.1054 28.5025 10.2929 28.69C10.4804 28.8776 10.7348 28.9829 11 28.9829C11.2652 28.9829 11.5196 28.8776 11.7071 28.69C11.8946 28.5025 12 28.2481 12 27.9829V25.9829H16V27.9829C16 28.2481 16.1054 28.5025 16.2929 28.69C16.4804 28.8776 16.7348 28.9829 17 28.9829C17.2652 28.9829 17.5196 28.8776 17.7071 28.69C17.8946 28.5025 18 28.2481 18 27.9829V25.9829H23C23.5304 25.9829 24.0391 25.7722 24.4142 25.3971C24.7893 25.0221 25 24.5133 25 23.9829V18.9829H27C27.2652 18.9829 27.5196 18.8776 27.7071 18.69C27.8946 18.5025 28 18.2481 28 17.9829C28 17.7177 27.8946 17.4633 27.7071 17.2758C27.5196 17.0883 27.2652 16.9829 27 16.9829ZM23 23.9829H5V5.98291H23V17.9667C23 17.9667 23 17.9779 23 17.9829C23 17.9879 23 17.9942 23 17.9992V23.9829Z" fill="url(#paint0_linear_1319_159)"/>
<defs>
<linearGradient id="paint0_linear_1319_159" x1="0" y1="14.9829" x2="28" y2="14.9829" gradientUnits="userSpaceOnUse">
<stop stop-color="#FF7B04"/>
<stop offset="1" stop-color="#FF9F04"/>
</linearGradient>
</defs>
</svg>
