<svg width="31" height="25" viewBox="0 0 31 25" fill="none" xmlns="http://www.w3.org/2000/svg">
<path d="M24 11.4829C24 11.7796 23.912 12.0696 23.7472 12.3163C23.5824 12.5629 23.3481 12.7552 23.074 12.8687C22.7999 12.9823 22.4983 13.012 22.2074 12.9541C21.9164 12.8962 21.6491 12.7533 21.4393 12.5436C21.2296 12.3338 21.0867 12.0665 21.0288 11.7755C20.9709 11.4846 21.0007 11.183 21.1142 10.9089C21.2277 10.6348 21.42 10.4005 21.6666 10.2357C21.9133 10.0709 22.2033 9.98291 22.5 9.98291C22.8978 9.98291 23.2794 10.1409 23.5607 10.4222C23.842 10.7036 24 11.0851 24 11.4829ZM19 4.98291H14C13.7348 4.98291 13.4804 5.08827 13.2929 5.2758C13.1054 5.46334 13 5.71769 13 5.98291C13 6.24813 13.1054 6.50248 13.2929 6.69002C13.4804 6.87755 13.7348 6.98291 14 6.98291H19C19.2652 6.98291 19.5196 6.87755 19.7071 6.69002C19.8946 6.50248 20 6.24813 20 5.98291C20 5.71769 19.8946 5.46334 19.7071 5.2758C19.5196 5.08827 19.2652 4.98291 19 4.98291ZM31 10.9829V14.9829C31 15.7786 30.6839 16.5416 30.1213 17.1042C29.5587 17.6668 28.7956 17.9829 28 17.9829H27.705L25.6787 23.6554C25.54 24.044 25.2845 24.3801 24.9473 24.6177C24.6101 24.8554 24.2076 24.983 23.795 24.9829H22.205C21.7924 24.983 21.3899 24.8554 21.0527 24.6177C20.7155 24.3801 20.46 24.044 20.3213 23.6554L20.0812 22.9829H12.9187L12.6788 23.6554C12.54 24.044 12.2845 24.3801 11.9473 24.6177C11.6101 24.8554 11.2076 24.983 10.795 24.9829H9.205C8.79243 24.983 8.38995 24.8554 8.05271 24.6177C7.71547 24.3801 7.45998 24.044 7.32125 23.6554L5.75 19.2604C4.25523 17.5687 3.31926 15.4566 3.07 13.2129C2.74728 13.3824 2.47702 13.6369 2.28844 13.9489C2.09985 14.2608 2.00011 14.6184 2 14.9829C2 15.2481 1.89464 15.5025 1.70711 15.69C1.51957 15.8776 1.26522 15.9829 1 15.9829C0.734784 15.9829 0.48043 15.8776 0.292893 15.69C0.105357 15.5025 0 15.2481 0 14.9829C0.00152797 14.0911 0.301028 13.2254 0.850918 12.5233C1.40081 11.8212 2.16955 11.3231 3.035 11.1079C3.2584 8.35207 4.51003 5.78102 6.54135 3.90531C8.57268 2.0296 11.2351 0.986421 14 0.98291H27C27.2652 0.98291 27.5196 1.08827 27.7071 1.2758C27.8946 1.46334 28 1.71769 28 1.98291C28 2.24813 27.8946 2.50248 27.7071 2.69002C27.5196 2.87755 27.2652 2.98291 27 2.98291H24.3263C25.9858 4.14728 27.291 5.74795 28.0975 7.60791C28.1512 7.73291 28.2038 7.85791 28.2537 7.98291C29.0046 8.04665 29.704 8.39064 30.2129 8.94649C30.7217 9.50234 31.0027 10.2293 31 10.9829ZM29 10.9829C29 10.7177 28.8946 10.4633 28.7071 10.2758C28.5196 10.0883 28.2652 9.98291 28 9.98291H27.5425C27.3295 9.98314 27.122 9.91536 26.9503 9.78945C26.7785 9.66354 26.6514 9.48608 26.5875 9.28291C26.0146 7.45458 24.8723 5.85719 23.3275 4.72384C21.7826 3.5905 19.916 2.98052 18 2.98291H14C12.2534 2.98282 10.5445 3.49095 9.08171 4.44534C7.61891 5.39973 6.46543 6.75913 5.76191 8.35778C5.05839 9.95643 4.83524 11.7253 5.11967 13.4485C5.4041 15.1718 6.18382 16.7751 7.36375 18.0629C7.45398 18.161 7.52368 18.2762 7.56875 18.4017L9.205 22.9829H10.795L11.2725 21.6467C11.3418 21.4525 11.4695 21.2845 11.638 21.1657C11.8065 21.0469 12.0076 20.983 12.2137 20.9829H20.7862C20.9924 20.983 21.1935 21.0469 21.362 21.1657C21.5305 21.2845 21.6582 21.4525 21.7275 21.6467L22.205 22.9829H23.795L26.0588 16.6467C26.1281 16.4525 26.2557 16.2845 26.4242 16.1657C26.5927 16.0469 26.7938 15.983 27 15.9829H28C28.2652 15.9829 28.5196 15.8776 28.7071 15.69C28.8946 15.5025 29 15.2481 29 14.9829V10.9829Z" fill="url(#paint0_linear_1319_184)"/>
<defs>
<linearGradient id="paint0_linear_1319_184" x1="0" y1="12.9829" x2="31" y2="12.9829" gradientUnits="userSpaceOnUse">
<stop stop-color="#FF7B04"/>
<stop offset="1" stop-color="#FF9F04"/>
</linearGradient>
</defs>
</svg>
