<svg width="22" height="29" viewBox="0 0 22 29" fill="none" xmlns="http://www.w3.org/2000/svg">
<path d="M16.75 5.95187C15.206 4.16866 13.4682 2.56293 11.5688 1.16437C11.4006 1.04658 11.2003 0.983398 10.995 0.983398C10.7897 0.983398 10.5894 1.04658 10.4213 1.16437C8.52531 2.56352 6.7909 4.16922 5.25 5.95187C1.81375 9.89812 0 14.0581 0 17.9831C0 20.9005 1.15893 23.6984 3.22183 25.7613C5.28473 27.8242 8.08262 28.9831 11 28.9831C13.9174 28.9831 16.7153 27.8242 18.7782 25.7613C20.8411 23.6984 22 20.9005 22 17.9831C22 14.0581 20.1863 9.89812 16.75 5.95187ZM11 26.9831C8.61386 26.9805 6.32622 26.0314 4.63896 24.3442C2.95171 22.6569 2.00265 20.3693 2 17.9831C2 10.8294 8.93375 4.85812 11 3.23312C13.0662 4.85812 20 10.8269 20 17.9831C19.9974 20.3693 19.0483 22.6569 17.361 24.3442C15.6738 26.0314 13.3861 26.9805 11 26.9831ZM17.9862 19.1506C17.7269 20.599 17.0301 21.9332 15.9896 22.9735C14.949 24.0138 13.6147 24.7104 12.1663 24.9694C12.1113 24.9782 12.0557 24.9828 12 24.9831C11.7492 24.9831 11.5075 24.8887 11.323 24.7188C11.1384 24.5489 11.0245 24.3159 11.0037 24.0659C10.9829 23.8159 11.0569 23.5673 11.2108 23.3693C11.3648 23.1712 11.5876 23.0383 11.835 22.9969C13.9062 22.6481 15.6637 20.8906 16.015 18.8156C16.0594 18.554 16.2059 18.3208 16.4223 18.1673C16.6387 18.0137 16.9072 17.9524 17.1688 17.9969C17.4303 18.0413 17.6635 18.1878 17.8171 18.4042C17.9706 18.6205 18.0319 18.889 17.9875 19.1506H17.9862Z" fill="url(#paint0_linear_1319_167)"/>
<defs>
<linearGradient id="paint0_linear_1319_167" x1="0" y1="14.9833" x2="22" y2="14.9833" gradientUnits="userSpaceOnUse">
<stop stop-color="#FF7B04"/>
<stop offset="1" stop-color="#FF9F04"/>
</linearGradient>
</defs>
</svg>
