<svg width="428" height="429" viewBox="0 0 428 429" fill="none" xmlns="http://www.w3.org/2000/svg">
<path fill-rule="evenodd" clip-rule="evenodd" d="M213.571 0.93457C95.6191 0.93457 0 96.5537 0 214.506C0 246.111 6.86495 276.112 19.185 303.1C57.06 318.661 120.367 323.746 214.251 286.347C269.735 264.246 332.087 266.566 387.144 287.06C395.123 290.03 403.243 292.729 411.429 295.061C421.56 270.203 427.143 243.006 427.143 214.506C427.143 96.5537 331.523 0.93457 213.571 0.93457ZM328.9 214.506C328.9 150.812 277.265 99.1774 213.571 99.1774C149.877 99.1774 98.2428 150.812 98.2428 214.506H328.9ZM400.966 317.039C389.859 337.296 375.563 355.555 358.754 371.142C309.133 354.43 254.344 352.456 204.179 370.04C162.079 384.796 126.279 391.531 96.2224 392.977C72.5179 377.36 52.1094 357.146 36.2654 333.605C81.0052 343.7 143.245 340.506 223.62 308.489C272.442 289.042 328.181 290.796 378.2 309.415C385.534 312.145 393.148 314.721 400.966 317.039ZM212.612 392.555C252.077 378.722 295.357 378.487 336.179 389.399C301.479 413.771 259.196 428.077 213.571 428.077C185.577 428.077 158.841 422.691 134.342 412.899C158.128 409.077 184.199 402.514 212.612 392.555Z" fill="white"/>
</svg>
