<svg width="240" height="241" viewBox="0 0 140 241" fill="none" xmlns="http://www.w3.org/2000/svg">
<path d="M70.106 199.855V240.875C67.5223 240.835 64.9664 240.251 62.9819 239.107L62.0731 238.587L4.08048 205.074C2.02859 203.894 1.02051 202.345 1.02051 200.788V172.208L70.106 199.855Z" fill="#EEBA59"/>
<path d="M139.204 173.599V200.788C139.204 202.345 138.18 203.89 136.128 205.074L78.0839 238.615L77.2227 239.107C75.2383 240.251 72.6823 240.835 70.0986 240.875V201.245L139.204 173.599Z" fill="white"/>
<path d="M78.0033 238.741V201.205H62.1279V238.741C64.9061 240.396 71.9706 242.713 78.0033 238.741Z" fill="#FAC25B"/>
<path d="M1.02051 160.178L2.44499 164.285L58.4416 194.476C62.015 196.403 66.0148 197.4 70.0736 197.377C74.1325 197.353 78.1204 196.309 81.6712 194.341L137.112 164.551L139.219 160.868V175.271L82.7785 206.444C78.8749 208.534 74.5141 209.622 70.0871 209.609C65.6601 209.597 61.3054 208.485 57.4137 206.373L1.02051 174.786" fill="#FFE5B4"/>
<path d="M88.9737 215.488C86.64 216.835 84.7509 220.112 84.7588 222.793C84.7668 225.474 86.6678 226.566 89.0015 225.22C91.3352 223.873 93.2283 220.596 93.2204 217.903C93.2124 215.21 91.3114 214.137 88.9737 215.488ZM101.539 208.283C99.2054 209.629 97.3162 212.906 97.3241 215.587C97.3321 218.268 99.2332 219.361 101.567 218.014C103.901 216.668 105.798 213.387 105.798 210.698C105.798 208.008 103.889 206.932 101.551 208.283M114.085 201.025C111.751 202.38 109.866 205.649 109.874 208.338C109.882 211.027 111.783 212.112 114.116 210.765C116.45 209.419 118.343 206.142 118.335 203.448C118.327 200.755 116.426 199.683 114.089 201.033M126.642 193.768C124.308 195.115 122.419 198.392 122.427 201.073C122.435 203.754 124.336 204.847 126.67 203.5C129.003 202.154 130.897 198.876 130.889 196.183C130.881 193.49 128.98 192.418 126.642 193.768Z" fill="#FFC75F"/>
<path d="M136.183 165.341L77.6547 199.386C75.579 200.577 72.8405 201.177 70.1139 201.153C67.5302 201.114 64.9743 200.53 62.9899 199.386L4.08048 165.353C2.02859 164.173 1.02051 162.624 1.02051 161.067C1.02051 159.51 2.03256 158.004 4.04476 156.832L62.5374 122.803C64.625 121.611 67.3635 121.012 70.102 121.035C72.6857 121.075 75.2615 121.659 77.2261 122.803L136.128 156.836C140.204 159.184 140.215 162.989 136.183 165.341Z" fill="#FFDB97"/>
<path d="M135.957 126.935L77.4281 160.981C75.3524 162.172 72.614 162.772 69.8874 162.748C67.3036 162.708 64.7477 162.125 62.7633 160.981L3.85392 126.947C1.80203 125.768 0.793945 124.218 0.793945 122.661C0.793945 121.104 1.806 119.599 3.8182 118.427L62.3109 84.3977C64.3985 83.206 67.137 82.6062 69.8755 82.6301C72.4592 82.6698 75.035 83.2537 76.9995 84.3977L135.901 118.431C139.977 120.779 139.989 124.584 135.957 126.935Z" fill="#557BEB"/>
<path d="M69.839 61.9303V162.998C67.2563 162.968 64.7014 162.527 62.7178 161.663L61.8093 161.27L3.83999 135.963C1.78893 135.072 0.78125 133.902 0.78125 132.726V41.0532L69.839 61.9303Z" fill="#E0E8F7"/>
<path d="M70.1146 51.9342V122.814C67.5216 122.798 64.9565 122.567 62.965 122.113L62.0528 121.907L3.8522 90.8209C1.79295 90.353 0.78125 89.7385 0.78125 89.1209V40.9683L70.1146 51.9342Z" fill="#E0E8F7"/>
<path d="M138.897 41.0532V132.726C138.897 133.902 137.873 135.069 135.823 135.963L77.8187 161.291L76.958 161.663C74.975 162.527 72.4208 162.968 69.8389 162.998V61.9303L138.897 41.0532Z" fill="#E0E8F7"/>
<path d="M77.7767 74.022V161.342L76.9231 161.71C74.9564 162.565 72.4233 163.001 69.8626 163.031C67.302 163.001 64.7688 162.565 62.8021 161.71L61.9014 161.321V74.022H77.7767Z" fill="#C0CBDE"/>
<path d="M135.905 36.7315L76.9953 2.6982C72.9273 0.346694 66.3549 0.346694 62.3106 2.6982L3.79811 36.7355C-0.242161 39.087 -0.222316 42.8963 3.84574 45.2478L62.7512 79.285C66.8192 81.6366 73.3916 81.6366 77.4359 79.285L135.956 45.2478C139.997 42.8963 139.977 39.087 135.909 36.7355" fill="white"/>
<path d="M111.849 38.2847L74.4032 16.6485C71.8195 15.1549 67.6562 15.1549 65.0725 16.6485L27.8686 38.2847C25.3008 39.7782 25.3127 42.2012 27.9004 43.6948L65.3463 65.331C67.9301 66.8245 72.0934 66.8245 74.6771 65.331L111.881 43.6948C114.449 42.2012 114.437 39.7782 111.849 38.2847Z" fill="#4988FF"/>
<path d="M0.793945 81.0451L58.215 112.004C61.7884 113.931 65.7882 114.928 69.8471 114.904C73.9059 114.881 77.8938 113.837 81.4446 111.869L138.993 80.9458V92.7987L82.5519 123.972C78.6484 126.062 74.2875 127.15 69.8605 127.137C65.4335 127.125 61.0788 126.012 57.1871 123.901L0.793945 92.3141" fill="white"/>
<path d="M0.793945 127.362L58.215 158.32C61.7884 160.247 65.7882 161.244 69.8471 161.221C73.9059 161.197 77.8938 160.153 81.4446 158.185L138.993 127.262V139.115L82.5519 170.288C78.6484 172.378 74.2875 173.466 69.8605 173.453C65.4335 173.441 61.0788 172.329 57.1871 170.217L0.793945 138.63" fill="white"/>
<path d="M88.7472 86.0856C86.4135 87.4322 84.5243 90.7092 84.5323 93.3904C84.5402 96.0716 86.4413 97.1639 88.7749 95.8174C91.1086 94.4708 93.0017 91.1938 92.9938 88.5007C92.9859 85.8076 91.0848 84.7351 88.7472 86.0856ZM101.312 78.8802C98.9788 80.2267 97.0896 83.5037 97.0976 86.1849C97.1055 88.8661 99.0066 89.9585 101.34 88.6119C103.674 87.2654 105.571 83.9844 105.571 81.2952C105.571 78.6061 103.662 77.5296 101.324 78.8802M113.858 71.6231C111.524 72.9776 109.639 76.2466 109.647 78.9358C109.655 81.6249 111.556 82.7093 113.89 81.3628C116.223 80.0162 118.117 76.7392 118.109 74.0461C118.101 71.353 116.2 70.2805 113.862 71.631M126.415 64.366C124.082 65.7125 122.193 68.9895 122.2 71.6707C122.208 74.3519 124.109 75.4443 126.443 74.0977C128.777 72.7512 130.67 69.4741 130.662 66.781C130.654 64.0879 128.753 63.0154 126.415 64.366Z" fill="white"/>
<path d="M88.7472 133.016C86.4135 134.362 84.5243 137.639 84.5323 140.321C84.5402 143.002 86.4413 144.094 88.7749 142.748C91.1086 141.401 93.0017 138.124 92.9938 135.431C92.9859 132.738 91.0848 131.665 88.7472 133.016ZM101.312 125.81C98.9788 127.157 97.0896 130.434 97.0976 133.115C97.1055 135.796 99.0066 136.889 101.34 135.542C103.674 134.196 105.571 130.915 105.571 128.225C105.571 125.536 103.662 124.46 101.324 125.81M113.858 118.553C111.524 119.908 109.639 123.177 109.647 125.866C109.655 128.555 111.556 129.639 113.89 128.293C116.223 126.946 118.117 123.669 118.109 120.976C118.101 118.283 116.2 117.211 113.862 118.561M126.415 111.296C124.082 112.643 122.193 115.92 122.2 118.601C122.208 121.282 124.109 122.374 126.443 121.028C128.777 119.681 130.67 116.404 130.662 113.711C130.654 111.018 128.753 109.946 126.415 111.296Z" fill="#4988FF"/>
</svg>
