<svg width="501" height="506" viewBox="0 0 501 506" fill="none" xmlns="http://www.w3.org/2000/svg">
<path d="M250.321 135.355L500.151 279.59L250.325 423.828L0.5 279.59L250.321 135.355Z" fill="#FFDB9A" fill-opacity="0.85"/>
<path d="M1 361.281V279.456L249.825 423.117V504.942L1 361.281Z" fill="#FFD25F" fill-opacity="0.77" stroke="#FFC75F"/>
<path d="M250.824 504.942V424.117L499.65 280.456V361.281L250.824 504.942Z" fill="#E4B051" fill-opacity="0.9" stroke="#FFC75F"/>
<path d="M250.321 0.355469L321.862 41.6593L72.0405 185.894L0.5 144.59L250.321 0.355469Z" fill="#FF4F4F" fill-opacity="0.7"/>
<path d="M1 278.281V145.456L71.5405 186.182V319.007L1 278.281Z" fill="#FF4F4F" fill-opacity="0.8" stroke="#FF4F4F"/>
<path d="M72.5371 319.007V186.182L321.362 42.5252V175.35L72.5371 319.007Z" fill="#FF4F4F" stroke="#FF4F4F"/>
<path d="M339.63 51.918L500.5 144.797L384.471 211.785L223.602 118.906L339.63 51.918Z" fill="#D39DFF" fill-opacity="0.7"/>
<path d="M224.102 252.597V119.772L383.971 212.073V344.898L224.102 252.597Z" fill="#B65CFF" fill-opacity="0.8" stroke="#A134F9"/>
<path d="M384.971 344.898V212.073L499.999 145.663V278.488L384.971 344.898Z" fill="#A134F9" fill-opacity="0.9" stroke="#A134F9"/>
<path d="M205.833 128.165L277.374 169.469L161.345 236.457L89.8047 195.153L205.833 128.165Z" fill="#58D6A9" fill-opacity="0.7"/>
<path d="M90.3087 328.844L90.3047 196.019L160.845 236.745V369.57L90.3087 328.844Z" fill="#58D6A9" fill-opacity="0.9" stroke="#58D6A9"/>
<path d="M161.846 369.57V236.745L276.874 170.335V303.156L161.846 369.57Z" fill="#58D6A9" fill-opacity="0.8" stroke="#58D6A9"/>
<path d="M295.167 257.602L366.704 298.91L250.675 365.898L179.139 324.594L295.167 257.602Z" fill="#93B9FF" fill-opacity="0.7"/>
<path d="M179.639 381.038V325.46L250.175 366.186V421.764L179.639 381.038Z" fill="#669BFF" fill-opacity="0.9" stroke="#4988FF"/>
<path d="M251.176 421.765V366.187L366.204 299.776V355.354L251.176 421.765Z" fill="#4988FF" fill-opacity="0.8" stroke="#4988FF"/>
<path d="M295.167 180.355L366.708 221.659L250.679 288.647L179.139 247.343L295.167 180.355Z" fill="#93B9FF" fill-opacity="0.7"/>
<path d="M179.639 303.787V248.209L250.179 288.936V344.518L179.639 303.787Z" fill="#669BFF" fill-opacity="0.8" stroke="#4988FF"/>
<path d="M251.176 344.518V288.936L366.208 222.525V278.103L251.176 344.518Z" fill="#4988FF" fill-opacity="0.9" stroke="#4988FF"/>
<path fill-rule="evenodd" clip-rule="evenodd" d="M462.151 319.855C450.193 326.759 440.5 343.548 440.5 357.355C440.5 361.055 441.196 364.165 442.445 366.603C446.284 366.208 452.702 363.098 462.22 353.225C467.844 347.391 474.165 344.013 479.746 343.19C480.555 343.07 481.378 342.911 482.208 342.705C483.235 339.202 483.801 335.692 483.801 332.355C483.801 318.548 474.108 312.952 462.151 319.855ZM473.842 338.105C473.842 330.65 468.608 327.628 462.151 331.355C455.694 335.083 450.459 344.15 450.459 351.605L473.842 338.105ZM481.148 345.89C480.022 348.911 478.572 351.885 476.868 354.694C471.838 355.642 466.284 358.617 461.199 363.611C456.931 367.803 453.301 370.687 450.254 372.615C447.851 372.174 445.783 371.003 444.176 369.174C448.712 367.737 455.021 363.721 463.169 355.269C468.119 350.135 473.769 347.078 478.84 346.33C479.583 346.22 480.355 346.076 481.148 345.89ZM462.053 365.754C466.054 361.824 470.442 359.264 474.58 358.152C471.062 363.036 466.776 367.185 462.151 369.855C459.313 371.494 456.602 372.428 454.119 372.716C456.53 370.876 459.173 368.582 462.053 365.754Z" fill="white"/>
<path fill-rule="evenodd" clip-rule="evenodd" d="M195.71 173.48C189.133 169.684 178.471 169.684 171.894 173.48C165.318 177.277 165.318 183.434 171.894 187.23C178.471 191.027 189.133 191.027 195.71 187.23C202.286 183.434 202.286 177.277 195.71 173.48ZM188.565 177.605C185.935 176.087 181.669 176.087 179.039 177.605C176.408 179.124 176.408 181.587 179.039 183.105C181.669 184.624 185.935 184.624 188.565 183.105C191.196 181.587 191.196 179.124 188.565 177.605Z" fill="white"/>
<path fill-rule="evenodd" clip-rule="evenodd" d="M190.889 169.82C190.315 169.434 190.014 168.975 189.985 168.444C189.952 167.85 190.256 167.368 190.895 166.999C191.611 166.586 192.483 166.401 193.513 166.445C194.543 166.489 195.48 166.755 196.326 167.243L197.594 167.975C197.681 168.025 197.768 168.025 197.854 167.975L201.594 165.816C201.702 165.753 201.713 165.697 201.626 165.647L200.098 164.764C198.852 164.045 197.437 163.566 195.854 163.328C194.283 163.084 192.706 163.075 191.123 163.3C189.551 163.532 188.153 164.001 186.928 164.708C185.757 165.384 184.982 166.182 184.603 167.102C184.424 167.521 184.331 167.94 184.323 168.36C185.183 168.354 186.044 168.418 186.908 168.55C188.402 168.767 189.729 169.19 190.889 169.82Z" fill="white"/>
<path d="M204.497 180.007C205.218 180.002 205.937 179.949 206.651 179.85C208.212 179.637 209.594 179.183 210.797 178.489C212.022 177.781 212.824 176.974 213.204 176.067C213.583 175.159 213.567 174.242 213.155 173.316C212.732 172.396 211.898 171.576 210.651 170.857L205.123 167.665C205.015 167.602 204.917 167.596 204.83 167.646L198.603 171.242C198.484 171.31 198.478 171.376 198.587 171.439L202.31 173.588C202.419 173.651 202.532 173.648 202.652 173.579L204.977 172.237L206.619 173.185C207.367 173.617 207.762 174.12 207.806 174.696C207.838 175.266 207.497 175.757 206.781 176.17C206.12 176.552 205.286 176.733 204.278 176.714C203.369 176.692 202.577 176.513 201.901 176.177C203.021 176.864 203.779 177.638 204.176 178.5C204.4 179.005 204.507 179.507 204.497 180.007Z" fill="white"/>
<path fill-rule="evenodd" clip-rule="evenodd" d="M183.198 192.304C183.189 192.72 183.098 193.135 182.926 193.548C182.557 194.449 181.771 195.247 180.568 195.941C179.343 196.649 177.945 197.112 176.373 197.331C174.802 197.55 173.214 197.54 171.609 197.303C170.016 197.059 168.596 196.577 167.349 195.857L161.821 192.665C161.713 192.603 161.702 192.546 161.789 192.496L168.016 188.901C168.135 188.832 168.249 188.829 168.357 188.892L172.081 191.041C172.189 191.104 172.184 191.17 172.065 191.238L169.74 192.581L171.382 193.529C172.13 193.961 173.002 194.189 173.999 194.214C174.986 194.233 175.837 194.036 176.552 193.623C177.213 193.241 177.528 192.759 177.495 192.177C177.456 191.653 177.146 191.195 176.565 190.805C177.754 191.452 179.095 191.89 180.589 192.118C181.463 192.248 182.333 192.31 183.198 192.304Z" fill="white"/>
<path d="M165.553 184.447C164.884 184.116 164.09 183.942 163.17 183.925C162.14 183.907 161.306 184.082 160.666 184.451C159.951 184.864 159.631 185.368 159.707 185.962C159.783 186.557 160.243 187.098 161.089 187.586L162.357 188.319C162.444 188.369 162.444 188.419 162.357 188.469L158.617 190.628C158.509 190.69 158.411 190.697 158.325 190.647L156.796 189.764C155.55 189.045 154.721 188.228 154.309 187.314C153.886 186.407 153.87 185.496 154.26 184.582C154.661 183.675 155.474 182.868 156.699 182.161C157.869 181.485 159.251 181.037 160.845 180.818C161.57 180.715 162.296 180.661 163.024 180.656C163.014 181.153 163.124 181.65 163.353 182.149C163.729 183.011 164.462 183.777 165.553 184.447Z" fill="white"/>
<path fill-rule="evenodd" clip-rule="evenodd" d="M183.198 168.407C183.189 167.991 183.098 167.576 182.926 167.163C182.557 166.262 181.771 165.464 180.568 164.77C179.343 164.062 177.945 163.599 176.373 163.38C174.802 163.161 173.214 163.171 171.609 163.408C170.016 163.652 168.596 164.134 167.349 164.854L161.821 168.046C161.713 168.108 161.702 168.165 161.789 168.215L168.016 171.81C168.135 171.879 168.249 171.882 168.357 171.819L172.081 169.67C172.189 169.607 172.184 169.541 172.065 169.473L169.74 168.13L171.382 167.182C172.13 166.75 173.002 166.522 173.999 166.497C174.986 166.478 175.837 166.675 176.552 167.088C177.213 167.47 177.528 167.952 177.495 168.534C177.456 169.058 177.146 169.516 176.565 169.906C177.754 169.259 179.095 168.821 180.589 168.593C181.463 168.463 182.333 168.401 183.198 168.407Z" fill="white"/>
<path d="M165.553 176.264C164.884 176.595 164.09 176.769 163.17 176.786C162.14 176.804 161.306 176.629 160.666 176.26C159.951 175.847 159.631 175.343 159.707 174.749C159.783 174.154 160.243 173.613 161.089 173.125L162.357 172.392C162.444 172.342 162.444 172.292 162.357 172.242L158.617 170.083C158.509 170.021 158.411 170.014 158.325 170.064L156.796 170.947C155.55 171.666 154.721 172.483 154.309 173.397C153.886 174.304 153.87 175.215 154.26 176.128C154.661 177.036 155.474 177.843 156.699 178.55C157.869 179.226 159.251 179.674 160.845 179.893C161.57 179.996 162.296 180.05 163.024 180.055C163.014 179.558 163.124 179.061 163.353 178.562C163.729 177.7 164.462 176.934 165.553 176.264Z" fill="white"/>
<path fill-rule="evenodd" clip-rule="evenodd" d="M190.889 190.891C190.315 191.277 190.014 191.736 189.985 192.267C189.952 192.861 190.256 193.343 190.895 193.712C191.611 194.125 192.483 194.31 193.513 194.266C194.543 194.222 195.48 193.956 196.326 193.468L197.594 192.736C197.681 192.686 197.768 192.686 197.854 192.736L201.594 194.895C201.702 194.958 201.713 195.014 201.626 195.064L200.098 195.946C198.852 196.666 197.437 197.145 195.854 197.383C194.283 197.627 192.706 197.636 191.123 197.411C189.551 197.179 188.153 196.71 186.928 196.003C185.757 195.327 184.982 194.529 184.603 193.609C184.424 193.19 184.331 192.771 184.323 192.351C185.183 192.357 186.044 192.293 186.908 192.161C188.402 191.944 189.729 191.521 190.889 190.891Z" fill="white"/>
<path d="M204.497 180.704C205.218 180.709 205.937 180.762 206.651 180.861C208.212 181.074 209.594 181.528 210.797 182.222C212.022 182.93 212.824 183.737 213.204 184.644C213.583 185.552 213.567 186.469 213.155 187.395C212.732 188.315 211.898 189.135 210.651 189.854L205.123 193.046C205.015 193.108 204.917 193.115 204.83 193.065L198.603 189.469C198.484 189.401 198.478 189.335 198.587 189.272L202.31 187.123C202.419 187.06 202.532 187.063 202.652 187.132L204.977 188.474L206.619 187.526C207.367 187.094 207.762 186.591 207.806 186.015C207.838 185.445 207.497 184.954 206.781 184.541C206.12 184.159 205.286 183.978 204.278 183.997C203.369 184.019 202.577 184.198 201.901 184.534C203.021 183.847 203.779 183.073 204.176 182.211C204.4 181.706 204.507 181.204 204.497 180.704Z" fill="white"/>
</svg>
