<svg width="500" height="506" viewBox="0 0 500 506" fill="none" xmlns="http://www.w3.org/2000/svg">
<path d="M249.821 135.355L499.651 279.59L249.825 423.828L0 279.59L249.821 135.355Z" fill="#FFDB9A" fill-opacity="0.85"/>
<path d="M0.5 361.281V279.456L249.325 423.117V504.942L0.5 361.281Z" fill="#FFD25F" fill-opacity="0.77" stroke="#FFC75F"/>
<path d="M250.325 504.942V424.117L499.151 280.456V361.281L250.325 504.942Z" fill="#E4B051" fill-opacity="0.9" stroke="#FFC75F"/>
<path d="M249.821 0.355469L321.362 41.6593L71.5405 185.894L0 144.59L249.821 0.355469Z" fill="#FF4F4F" fill-opacity="0.7"/>
<path d="M0.5 278.281V145.456L71.0405 186.182V319.007L0.5 278.281Z" fill="#FF4F4F" fill-opacity="0.8" stroke="#FF4F4F"/>
<path d="M72.0361 319.008V186.183L320.861 42.5254V175.35L72.0361 319.008Z" fill="#FF4F4F" stroke="#FF4F4F"/>
<path d="M339.13 51.9182L500 144.797L383.971 211.785L223.102 118.906L339.13 51.9182Z" fill="#D39DFF" fill-opacity="0.7"/>
<path d="M223.602 252.597V119.772L383.471 212.074V344.898L223.602 252.597Z" fill="#B65CFF" fill-opacity="0.8" stroke="#A134F9"/>
<path d="M384.472 344.898V212.074L499.5 145.663V278.488L384.472 344.898Z" fill="#A134F9" fill-opacity="0.9" stroke="#A134F9"/>
<path d="M205.333 128.165L276.874 169.469L160.845 236.457L89.3047 195.153L205.333 128.165Z" fill="#58D6A9" fill-opacity="0.7"/>
<path d="M89.8087 328.844L89.8047 196.019L160.345 236.745V369.57L89.8087 328.844Z" fill="#58D6A9" fill-opacity="0.9" stroke="#58D6A9"/>
<path d="M161.346 369.57V236.745L276.374 170.335V303.156L161.346 369.57Z" fill="#58D6A9" fill-opacity="0.8" stroke="#58D6A9"/>
<path d="M294.667 257.602L366.204 298.91L250.175 365.898L178.639 324.594L294.667 257.602Z" fill="#93B9FF" fill-opacity="0.7"/>
<path d="M179.139 381.038V325.46L249.675 366.187V421.765L179.139 381.038Z" fill="#669BFF" fill-opacity="0.9" stroke="#4988FF"/>
<path d="M250.675 421.765V366.187L365.703 299.776V355.354L250.675 421.765Z" fill="#4988FF" fill-opacity="0.8" stroke="#4988FF"/>
<path d="M294.667 180.355L366.208 221.659L250.179 288.647L178.639 247.343L294.667 180.355Z" fill="#93B9FF" fill-opacity="0.7"/>
<path d="M179.139 303.787V248.209L249.679 288.936V344.518L179.139 303.787Z" fill="#669BFF" fill-opacity="0.8" stroke="#4988FF"/>
<path d="M250.675 344.518V288.936L365.707 222.525V278.104L250.675 344.518Z" fill="#4988FF" fill-opacity="0.9" stroke="#4988FF"/>
<path fill-rule="evenodd" clip-rule="evenodd" d="M461.651 319.855C449.693 326.759 440 343.548 440 357.355C440 361.055 440.696 364.165 441.945 366.603C445.784 366.208 452.202 363.098 461.72 353.225C467.344 347.391 473.665 344.013 479.246 343.19C480.055 343.07 480.878 342.911 481.708 342.705C482.735 339.202 483.301 335.692 483.301 332.355C483.301 318.548 473.608 312.952 461.651 319.855ZM473.342 338.105C473.342 330.65 468.108 327.628 461.651 331.355C455.194 335.083 449.959 344.15 449.959 351.605L473.342 338.105ZM480.648 345.89C479.522 348.911 478.072 351.885 476.368 354.694C471.338 355.642 465.784 358.617 460.699 363.611C456.431 367.803 452.801 370.687 449.754 372.615C447.351 372.174 445.283 371.003 443.676 369.174C448.212 367.737 454.521 363.721 462.669 355.269C467.619 350.135 473.269 347.078 478.34 346.33C479.083 346.22 479.855 346.076 480.648 345.89ZM461.553 365.754C465.554 361.824 469.942 359.264 474.08 358.152C470.562 363.036 466.276 367.185 461.651 369.855C458.813 371.494 456.102 372.428 453.619 372.716C456.03 370.876 458.673 368.582 461.553 365.754Z" fill="white"/>
<path fill-rule="evenodd" clip-rule="evenodd" d="M195.209 173.48C188.632 169.684 177.97 169.684 171.393 173.48C164.817 177.277 164.817 183.434 171.393 187.23C177.97 191.027 188.632 191.027 195.209 187.23C201.785 183.434 201.785 177.277 195.209 173.48ZM188.064 177.605C185.434 176.087 181.169 176.087 178.538 177.605C175.907 179.124 175.907 181.587 178.538 183.105C181.169 184.624 185.434 184.624 188.064 183.105C190.695 181.587 190.695 179.124 188.064 177.605Z" fill="white"/>
<path fill-rule="evenodd" clip-rule="evenodd" d="M190.389 169.82C189.815 169.434 189.514 168.975 189.485 168.444C189.452 167.85 189.756 167.368 190.395 166.999C191.111 166.586 191.983 166.401 193.013 166.445C194.043 166.489 194.98 166.755 195.826 167.243L197.094 167.975C197.181 168.025 197.268 168.025 197.354 167.975L201.094 165.816C201.202 165.753 201.213 165.697 201.126 165.647L199.598 164.764C198.352 164.045 196.937 163.566 195.354 163.328C193.783 163.084 192.206 163.075 190.623 163.3C189.051 163.532 187.653 164.001 186.428 164.708C185.257 165.384 184.482 166.182 184.103 167.102C183.924 167.521 183.831 167.94 183.823 168.36C184.683 168.354 185.544 168.418 186.408 168.55C187.902 168.767 189.229 169.19 190.389 169.82Z" fill="white"/>
<path d="M203.996 180.007C204.717 180.002 205.436 179.949 206.15 179.85C207.711 179.637 209.093 179.183 210.296 178.489C211.521 177.781 212.323 176.974 212.703 176.067C213.082 175.159 213.066 174.242 212.654 173.316C212.231 172.396 211.397 171.576 210.15 170.857L204.622 167.665C204.514 167.602 204.416 167.596 204.329 167.646L198.102 171.242C197.983 171.31 197.977 171.376 198.086 171.439L201.809 173.588C201.918 173.651 202.031 173.648 202.151 173.579L204.476 172.237L206.118 173.185C206.866 173.617 207.261 174.12 207.305 174.696C207.337 175.266 206.996 175.757 206.28 176.17C205.619 176.552 204.785 176.733 203.777 176.714C202.868 176.692 202.076 176.513 201.4 176.177C202.52 176.864 203.279 177.638 203.675 178.5C203.899 179.005 204.006 179.507 203.996 180.007Z" fill="white"/>
<path fill-rule="evenodd" clip-rule="evenodd" d="M182.698 192.303C182.689 192.72 182.598 193.135 182.426 193.547C182.057 194.449 181.271 195.247 180.068 195.941C178.843 196.648 177.445 197.111 175.873 197.33C174.302 197.55 172.714 197.54 171.109 197.302C169.516 197.058 168.096 196.576 166.849 195.857L161.321 192.665C161.213 192.602 161.202 192.546 161.289 192.496L167.516 188.901C167.635 188.832 167.749 188.829 167.857 188.891L171.581 191.041C171.689 191.104 171.684 191.169 171.565 191.238L169.24 192.581L170.882 193.529C171.63 193.96 172.502 194.189 173.499 194.214C174.486 194.233 175.337 194.036 176.052 193.623C176.713 193.241 177.028 192.759 176.995 192.177C176.956 191.652 176.646 191.195 176.065 190.805C177.254 191.452 178.595 191.889 180.089 192.118C180.963 192.248 181.833 192.31 182.698 192.303Z" fill="white"/>
<path d="M165.053 184.448C164.384 184.116 163.59 183.942 162.67 183.926C161.64 183.907 160.806 184.082 160.166 184.451C159.451 184.864 159.131 185.368 159.207 185.963C159.283 186.557 159.743 187.098 160.589 187.587L161.857 188.319C161.944 188.369 161.944 188.419 161.857 188.469L158.117 190.628C158.009 190.691 157.911 190.697 157.825 190.647L156.296 189.764C155.05 189.045 154.221 188.228 153.809 187.314C153.386 186.407 153.37 185.496 153.76 184.583C154.161 183.675 154.974 182.868 156.199 182.161C157.369 181.485 158.751 181.037 160.345 180.818C161.07 180.715 161.796 180.661 162.524 180.657C162.514 181.153 162.624 181.651 162.853 182.149C163.229 183.011 163.962 183.778 165.053 184.448Z" fill="white"/>
<path fill-rule="evenodd" clip-rule="evenodd" d="M182.698 168.408C182.689 167.991 182.598 167.576 182.426 167.163C182.057 166.262 181.271 165.464 180.068 164.77C178.843 164.063 177.445 163.599 175.873 163.38C174.302 163.161 172.714 163.171 171.109 163.409C169.516 163.653 168.096 164.135 166.849 164.854L161.321 168.046C161.213 168.108 161.202 168.165 161.289 168.215L167.516 171.81C167.635 171.879 167.749 171.882 167.857 171.82L171.581 169.67C171.689 169.607 171.684 169.542 171.565 169.473L169.24 168.13L170.882 167.182C171.63 166.75 172.502 166.522 173.499 166.497C174.486 166.478 175.337 166.675 176.052 167.088C176.713 167.47 177.028 167.952 176.995 168.534C176.956 169.059 176.646 169.516 176.065 169.906C177.254 169.259 178.595 168.822 180.089 168.593C180.963 168.463 181.833 168.401 182.698 168.408Z" fill="white"/>
<path d="M165.053 176.263C164.384 176.595 163.59 176.769 162.67 176.785C161.64 176.804 160.806 176.629 160.166 176.26C159.451 175.847 159.131 175.343 159.207 174.748C159.283 174.154 159.743 173.612 160.589 173.124L161.857 172.392C161.944 172.342 161.944 172.292 161.857 172.242L158.117 170.083C158.009 170.02 157.911 170.014 157.825 170.064L156.296 170.946C155.05 171.666 154.221 172.483 153.809 173.397C153.386 174.304 153.37 175.215 153.76 176.128C154.161 177.036 154.974 177.843 156.199 178.55C157.369 179.226 158.751 179.673 160.345 179.893C161.07 179.996 161.796 180.05 162.524 180.054C162.514 179.558 162.624 179.06 162.853 178.562C163.229 177.699 163.962 176.933 165.053 176.263Z" fill="white"/>
<path fill-rule="evenodd" clip-rule="evenodd" d="M190.389 190.891C189.815 191.277 189.514 191.736 189.485 192.267C189.452 192.861 189.756 193.343 190.395 193.712C191.111 194.125 191.983 194.31 193.013 194.266C194.043 194.222 194.98 193.956 195.826 193.468L197.094 192.736C197.181 192.686 197.268 192.686 197.354 192.736L201.094 194.895C201.202 194.958 201.213 195.014 201.126 195.064L199.598 195.946C198.352 196.666 196.937 197.145 195.354 197.383C193.783 197.627 192.206 197.636 190.623 197.411C189.051 197.179 187.653 196.71 186.428 196.003C185.257 195.327 184.482 194.529 184.103 193.609C183.924 193.19 183.831 192.771 183.823 192.351C184.683 192.357 185.544 192.293 186.408 192.161C187.902 191.944 189.229 191.521 190.389 190.891Z" fill="white"/>
<path d="M203.996 180.704C204.717 180.709 205.436 180.762 206.15 180.861C207.711 181.074 209.093 181.528 210.296 182.222C211.521 182.93 212.323 183.737 212.703 184.644C213.082 185.552 213.066 186.469 212.654 187.395C212.231 188.315 211.397 189.135 210.15 189.854L204.622 193.046C204.514 193.108 204.416 193.115 204.329 193.065L198.102 189.469C197.983 189.401 197.977 189.335 198.086 189.272L201.809 187.123C201.918 187.06 202.031 187.063 202.151 187.132L204.476 188.474L206.118 187.526C206.866 187.094 207.261 186.591 207.305 186.015C207.337 185.445 206.996 184.954 206.28 184.541C205.619 184.159 204.785 183.978 203.777 183.997C202.868 184.019 202.076 184.198 201.4 184.534C202.52 183.847 203.279 183.073 203.675 182.211C203.899 181.706 204.006 181.204 203.996 180.704Z" fill="white"/>
<g filter="url(#filter0_d_146_17898)">
<path d="M135.026 179.315C135.152 179.853 135.69 180.187 136.227 180.061C136.765 179.936 137.099 179.398 136.974 178.86L135.026 179.315ZM66.6667 138.587C66.6667 141.533 69.0545 143.921 72 143.921C74.9455 143.921 77.3333 141.533 77.3333 138.587C77.3333 135.642 74.9455 133.254 72 133.254C69.0545 133.254 66.6667 135.642 66.6667 138.587ZM136.974 178.86C134.285 167.347 127.821 151.411 117.091 141.152C111.71 136.007 105.222 132.26 97.5793 131.263C89.9324 130.266 81.2448 132.037 71.4961 137.724L72.5039 139.451C81.9552 133.938 90.2009 132.318 97.3207 133.246C104.445 134.175 110.557 137.672 115.709 142.598C126.046 152.481 132.382 167.994 135.026 179.315L136.974 178.86Z" fill="#39FFFF" fill-opacity="0.8"/>
</g>
<g filter="url(#filter1_d_146_17898)">
<path d="M250.667 250.443C250.667 253.388 253.054 255.776 256 255.776C258.946 255.776 261.333 253.388 261.333 250.443C261.333 247.497 258.946 245.11 256 245.11C253.054 245.11 250.667 247.497 250.667 250.443ZM256.974 250.215C254.285 238.703 247.821 222.766 237.091 212.508C231.71 207.363 225.222 203.615 217.579 202.619C209.932 201.621 201.245 203.392 191.496 209.079L192.504 210.807C201.955 205.293 210.201 203.673 217.321 204.602C224.445 205.531 230.557 209.027 235.709 213.953C246.046 223.836 252.382 239.35 255.026 250.67L256.974 250.215Z" fill="#39FFFF" fill-opacity="0.8"/>
</g>
<g filter="url(#filter2_d_146_17898)">
<path d="M176.026 155.315C176.152 155.853 176.69 156.187 177.227 156.061C177.765 155.936 178.099 155.398 177.974 154.86L176.026 155.315ZM107.667 114.587C107.667 117.533 110.054 119.921 113 119.921C115.946 119.921 118.333 117.533 118.333 114.587C118.333 111.642 115.946 109.254 113 109.254C110.054 109.254 107.667 111.642 107.667 114.587ZM177.974 154.86C175.285 143.347 168.821 127.411 158.091 117.152C152.71 112.007 146.222 108.26 138.579 107.263C130.932 106.266 122.245 108.037 112.496 113.724L113.504 115.451C122.955 109.938 131.201 108.318 138.321 109.246C145.445 110.175 151.557 113.672 156.709 118.598C167.046 128.481 173.382 143.994 176.026 155.315L177.974 154.86Z" fill="#39FFFF" fill-opacity="0.8"/>
</g>
<g filter="url(#filter3_d_146_17898)">
<path d="M291.667 226.443C291.667 229.388 294.054 231.776 297 231.776C299.946 231.776 302.333 229.388 302.333 226.443C302.333 223.497 299.946 221.11 297 221.11C294.054 221.11 291.667 223.497 291.667 226.443ZM297.974 226.215C295.285 214.703 288.821 198.766 278.091 188.508C272.71 183.363 266.222 179.615 258.579 178.619C250.932 177.621 242.245 179.392 232.496 185.079L233.504 186.807C242.955 181.293 251.201 179.673 258.321 180.602C265.445 181.531 271.557 185.027 276.709 189.953C287.046 199.836 293.382 215.35 296.026 226.67L297.974 226.215Z" fill="#39FFFF" fill-opacity="0.8"/>
</g>
<g filter="url(#filter4_d_146_17898)">
<path d="M270.167 116.356C270.167 119.301 272.554 121.689 275.5 121.689C278.446 121.689 280.833 119.301 280.833 116.356C280.833 113.41 278.446 111.022 275.5 111.022C272.554 111.022 270.167 113.41 270.167 116.356ZM220.985 148.028C222.375 140.095 226.771 129.061 235.363 121.703C243.881 114.408 256.66 110.605 275.16 117.296L275.84 115.415C256.74 108.507 243.186 112.37 234.062 120.184C225.013 127.933 220.458 139.45 219.015 147.683L220.985 148.028Z" fill="#39FFFF" fill-opacity="0.8"/>
</g>
<g filter="url(#filter5_d_146_17898)">
<path d="M298.167 133.888C298.167 136.833 300.554 139.221 303.5 139.221C306.446 139.221 308.833 136.833 308.833 133.888C308.833 130.942 306.446 128.555 303.5 128.555C300.554 128.555 298.167 130.942 298.167 133.888ZM248.985 165.561C250.375 157.627 254.771 146.593 263.363 139.235C271.881 131.94 284.66 128.137 303.16 134.828L303.84 132.948C284.74 126.039 271.186 129.902 262.062 137.716C253.013 145.466 248.458 156.982 247.015 165.215L248.985 165.561Z" fill="#39FFFF" fill-opacity="0.8"/>
</g>
<defs>
<filter id="filter0_d_146_17898" x="63.667" y="126" width="76.333" height="55.0876" filterUnits="userSpaceOnUse" color-interpolation-filters="sRGB">
<feFlood flood-opacity="0" result="BackgroundImageFix"/>
<feColorMatrix in="SourceAlpha" type="matrix" values="0 0 0 0 0 0 0 0 0 0 0 0 0 0 0 0 0 0 127 0" result="hardAlpha"/>
<feOffset dy="-2"/>
<feGaussianBlur stdDeviation="1.5"/>
<feComposite in2="hardAlpha" operator="out"/>
<feColorMatrix type="matrix" values="0 0 0 0 0.240918 0 0 0 0 1 0 0 0 0 0.954455 0 0 0 0.7 0"/>
<feBlend mode="normal" in2="BackgroundImageFix" result="effect1_dropShadow_146_17898"/>
<feBlend mode="normal" in="SourceGraphic" in2="effect1_dropShadow_146_17898" result="shape"/>
</filter>
<filter id="filter1_d_146_17898" x="188.496" y="197.355" width="75.8369" height="59.4209" filterUnits="userSpaceOnUse" color-interpolation-filters="sRGB">
<feFlood flood-opacity="0" result="BackgroundImageFix"/>
<feColorMatrix in="SourceAlpha" type="matrix" values="0 0 0 0 0 0 0 0 0 0 0 0 0 0 0 0 0 0 127 0" result="hardAlpha"/>
<feOffset dy="-2"/>
<feGaussianBlur stdDeviation="1.5"/>
<feComposite in2="hardAlpha" operator="out"/>
<feColorMatrix type="matrix" values="0 0 0 0 0.240918 0 0 0 0 1 0 0 0 0 0.954455 0 0 0 0.7 0"/>
<feBlend mode="normal" in2="BackgroundImageFix" result="effect1_dropShadow_146_17898"/>
<feBlend mode="normal" in="SourceGraphic" in2="effect1_dropShadow_146_17898" result="shape"/>
</filter>
<filter id="filter2_d_146_17898" x="104.667" y="102" width="76.333" height="55.0876" filterUnits="userSpaceOnUse" color-interpolation-filters="sRGB">
<feFlood flood-opacity="0" result="BackgroundImageFix"/>
<feColorMatrix in="SourceAlpha" type="matrix" values="0 0 0 0 0 0 0 0 0 0 0 0 0 0 0 0 0 0 127 0" result="hardAlpha"/>
<feOffset dy="-2"/>
<feGaussianBlur stdDeviation="1.5"/>
<feComposite in2="hardAlpha" operator="out"/>
<feColorMatrix type="matrix" values="0 0 0 0 0.240918 0 0 0 0 1 0 0 0 0 0.954455 0 0 0 0.7 0"/>
<feBlend mode="normal" in2="BackgroundImageFix" result="effect1_dropShadow_146_17898"/>
<feBlend mode="normal" in="SourceGraphic" in2="effect1_dropShadow_146_17898" result="shape"/>
</filter>
<filter id="filter3_d_146_17898" x="229.496" y="173.355" width="75.8369" height="59.4209" filterUnits="userSpaceOnUse" color-interpolation-filters="sRGB">
<feFlood flood-opacity="0" result="BackgroundImageFix"/>
<feColorMatrix in="SourceAlpha" type="matrix" values="0 0 0 0 0 0 0 0 0 0 0 0 0 0 0 0 0 0 127 0" result="hardAlpha"/>
<feOffset dy="-2"/>
<feGaussianBlur stdDeviation="1.5"/>
<feComposite in2="hardAlpha" operator="out"/>
<feColorMatrix type="matrix" values="0 0 0 0 0.240918 0 0 0 0 1 0 0 0 0 0.954455 0 0 0 0.7 0"/>
<feBlend mode="normal" in2="BackgroundImageFix" result="effect1_dropShadow_146_17898"/>
<feBlend mode="normal" in="SourceGraphic" in2="effect1_dropShadow_146_17898" result="shape"/>
</filter>
<filter id="filter4_d_146_17898" x="216.015" y="106.022" width="67.8184" height="43.0061" filterUnits="userSpaceOnUse" color-interpolation-filters="sRGB">
<feFlood flood-opacity="0" result="BackgroundImageFix"/>
<feColorMatrix in="SourceAlpha" type="matrix" values="0 0 0 0 0 0 0 0 0 0 0 0 0 0 0 0 0 0 127 0" result="hardAlpha"/>
<feOffset dy="-2"/>
<feGaussianBlur stdDeviation="1.5"/>
<feComposite in2="hardAlpha" operator="out"/>
<feColorMatrix type="matrix" values="0 0 0 0 0.240918 0 0 0 0 1 0 0 0 0 0.954455 0 0 0 0.7 0"/>
<feBlend mode="normal" in2="BackgroundImageFix" result="effect1_dropShadow_146_17898"/>
<feBlend mode="normal" in="SourceGraphic" in2="effect1_dropShadow_146_17898" result="shape"/>
</filter>
<filter id="filter5_d_146_17898" x="244.015" y="123.554" width="67.8184" height="43.0061" filterUnits="userSpaceOnUse" color-interpolation-filters="sRGB">
<feFlood flood-opacity="0" result="BackgroundImageFix"/>
<feColorMatrix in="SourceAlpha" type="matrix" values="0 0 0 0 0 0 0 0 0 0 0 0 0 0 0 0 0 0 127 0" result="hardAlpha"/>
<feOffset dy="-2"/>
<feGaussianBlur stdDeviation="1.5"/>
<feComposite in2="hardAlpha" operator="out"/>
<feColorMatrix type="matrix" values="0 0 0 0 0.240918 0 0 0 0 1 0 0 0 0 0.954455 0 0 0 0.7 0"/>
<feBlend mode="normal" in2="BackgroundImageFix" result="effect1_dropShadow_146_17898"/>
<feBlend mode="normal" in="SourceGraphic" in2="effect1_dropShadow_146_17898" result="shape"/>
</filter>
</defs>
</svg>
